<svg id="Layer_1" data-name="Layer 1" xmlns="http://www.w3.org/2000/svg" viewBox="0 0 566 221"><title>BRUMAI_BLACK</title><path d="M566,7.57V4.66a3.77,3.77,0,0,0-2.85-.61,1.73,1.73,0,0,1-.57-1.56c.36-.27,1.69,0,1.7-.47-.49-.2,0-.94-.85-.94-.52.24-.67.68-1.13.94a9.53,9.53,0,0,0-2.84-.31,1.85,1.85,0,0,0-.53.24C558.35,1,557.06.78,556.31,0H544.16a3,3,0,0,0,1.31.85c.11.15.25.27.37.41-1.16.42-2.2,1.24-1.4,2.17a3.06,3.06,0,0,0,1.71-1.85C547,2.45,548.07,3.15,549,4a5.4,5.4,0,0,1,1,.49c-.63.55-1.9.86-4.06.66a1,1,0,0,0-.28.07,5.61,5.61,0,0,0-.84-.69.92.92,0,0,0,0-.16h-.29a4.66,4.66,0,0,0-.5-.25c-1.25-1.8-3.58-2.48-5-4.12H528.14a6.14,6.14,0,0,0-.79.29,2.42,2.42,0,0,0,.24.45A10,10,0,0,0,525.46.3c-.55.37-.46,1.1-1.42,1.25-.83-.21-.33-1.16-.84-1.55H507.62A2.17,2.17,0,0,1,507,1.86c-.64-.15-1.37-.25-2-.38a2.46,2.46,0,0,0-.43-.76.53.53,0,0,0,.2-.42l-.4-.3h-14.6a.68.68,0,0,0,0,.14L489.14,0H474.57c.51.67.89,1.49,2.14,1.41a3.13,3.13,0,0,0,1,1.13c-2.65.26-5.28,0-6.07-1.15C471.8.82,473,.79,472.79,0h-3a.43.43,0,0,0-.13.14l.21.54A4.37,4.37,0,0,0,468.69,0h-8.21c-.07.56-.94.8-1.34,1.39A3.79,3.79,0,0,0,461,2.3a.66.66,0,0,0-.11.24c0,.52.67.36.66.9.24.05.55.22.76,0,.46.5.86,1.06,1.33,1.55a11.64,11.64,0,0,1-4.74,1.86,1.38,1.38,0,0,0-2.06-.21A7.57,7.57,0,0,0,454,5.93c.06-.71-1.42-1.39-.56-2,2.31,0,2.54,1.1,3.11,2a1.35,1.35,0,0,1,.58-.34c0,.1-.09.13-.11.22a.49.49,0,0,1,.33.11V5.58h-.19A21.22,21.22,0,0,0,459.43,5c-.17-.61,1-1,.28-1.41-1.13-.15-.85.47-2,.32-.62-.39-.48-1.2-1.42-1.41a2.05,2.05,0,0,1-2.27.94c-.84-.81-2.82-1.75-2.83-2.51A10.29,10.29,0,0,0,452.78,0h-3a2.55,2.55,0,0,0-1.13,1.39v.13a2.69,2.69,0,0,1-.22-.45A2.29,2.29,0,0,1,447.24,0H440c.37.49.7,1,1.6,1,.13.51.62.64.66,1.24A5,5,0,0,1,444.29,4c1.66.13,2.21,1.41,3.27,2.14a2.67,2.67,0,0,0,1.1-.11c1.08,1.56,2.77,3.88,5.36,3a.61.61,0,0,1,0,.15c-2.4.39-4.09,1.18-6.23,1.72a4.76,4.76,0,0,1,3.12,2.35.67.67,0,0,1-.21.2,3.67,3.67,0,0,1-1.3-1.38c-.86.09-2.17-.29-2.4.45-.8.16-1.51-.21-2.29,0-.34.1-.57.5-.88.56-1.07.24-2.18-.26-3.11.13.13-.69,2.53-.14,2.53-.9-.93,0-2.32-.37-3.11,0,.77,1.1-.72,1.07-1.14,1.87a4.11,4.11,0,0,0,2.21.38,4.22,4.22,0,0,0,1.21.44c.48,1,1.57,1.44,2,2.58a15.07,15.07,0,0,1-2.26.2c-.05-.6,1.32-.42,1.13-1.09-.62-.13-.36-.74-1.13-.78-.2.51-1.16.61-2.26.62-.65-.11.26-1.08-.86-.94-1.13-.13-.6.65-1.26.78,0,0,0,0,0,0s-.35,0-.43-.11,0-.36-.11-.45a.28.28,0,0,0-.16-.05c0-.5,0-1.06-.85-1.09l-.59.13-.26-.12c-.74-.31-1.34-1.11-2.07-.11-.22-.47-.78-.4-1.23-.21a.89.89,0,0,1-.38-.47c-.36-1.12,3.28-1.55,1.41-2.5a3.33,3.33,0,0,0-1.33.39,4.08,4.08,0,0,1-.33-.25A19,19,0,0,1,428.47,9h-.64a.44.44,0,0,0-.15-.12c-.1-.38-.6-.33-.85-.56S426.32,7.39,426,7s-1-.45-1.42-.78c-.84-.69-1.35-1.92-2.51-2-.28-.86-1.69-1.1-1.64-1.92.18-.26.35-.53.52-.8a11.81,11.81,0,0,0,3.38-.27c-.84-.32-1.76-.58-2.7-.84l.25-.4h-9.58c-.55.1-.53.56-.17.76a9,9,0,0,0-1.15,1.1h-.26v.31a3.8,3.8,0,0,0-.77,1.49c-.18,1.1,1,1.75,1.86,2.37a8.7,8.7,0,0,0,2.72,1.69c.06.17.17.28.22.45.35-.06.39.2.77.11-.06.36.15.44.22.68,1.07.81,2.33,2,3.38,2.81.41.32.94.5,1.31.79.79.63,1.38,1.7,2.18,1.92s2-.32,3.06-.46h.05a.19.19,0,0,1,0,.2,24.94,24.94,0,0,0-3.41.94c1,.24.17,1.48,1.14,1.72-.81.05-1,.43-1.5.65a4.47,4.47,0,0,1-.57-.58c-.32,0-.45-.15-.79-.11l-.09-.1c0-.23-.21-.31-.32-.46l-.16,0a3.93,3.93,0,0,1-1.11-2.33c-.39.62-1.07,1.08-.85,2a2.61,2.61,0,0,0-1.61.85,6.2,6.2,0,0,0-1.84,0c-.29.08-.47.4-.76.45l-.2,0c-.63-.33-.79-.71-1.82-.89a7.32,7.32,0,0,0-.8-.11q.38-.09.75-.15c1.69-.23,3-.11,3.71-1,.39.58,1.77.3,2.29,0,.06-1.38-1-1.56-1.86-2a10.63,10.63,0,0,0-3.49-2.7,10.29,10.29,0,0,0-3.27-2.59,5.23,5.23,0,0,0-3.39-2.25c-.71-1.19.54-2,1.2-2.93S408.15.82,408.72,0h-9.46a4,4,0,0,0-.59,1.53,8.52,8.52,0,0,0-2,2.4c-.06-.06-.13-.12-.14-.19-.48.11-.09.27,0,.44-.44.73-.85,1.49-1.32,2.19.68.42,1.07,1.14,2,1.35A10.35,10.35,0,0,0,399,9.63a19.21,19.21,0,0,0,2.07,1.69,44.86,44.86,0,0,1,3.6,2.82c.38.28.78.72,1.09.9s.41,0,.55.11c.45.35.77.86,1.18,1.22-1.83.17-3.48.41-4.6.05a.93.93,0,0,0-.34-.13,1.77,1.77,0,0,1-.65-.5c.08-.63,2-.28,2-.94a10.85,10.85,0,0,0-4.53-3c-1.29-.1-1.79.06-1.83.35a13.4,13.4,0,0,0-2.56-1.7c0-.48-.64-.39-.66-.9A1.47,1.47,0,0,1,393.19,9l.21-.11c-1.1-.38-.39-1.76-1.42-2.19a5.52,5.52,0,0,0-1.14.57,2.26,2.26,0,0,1-.36-.57c0-.2.8-.56.44-.9a7.56,7.56,0,0,0,2.51-3.27c.88-.22.66-1.57,1.53-1.8V0h-7.71c-1.19,1.05-2.09,2.42-3.31,3.44.06.37-.08.52-.11.79-.35-.13-.27.17-.44.22v.79c-.51.23-.63.87-.92,1.33a3.6,3.6,0,0,0-2.39-.48c-.39.2-.28.68-.28,1.09a6.2,6.2,0,0,1,2.06.48v.17c-.32,0-.37.21-.54.34l.6.79c-.78.93-2.35,2-.71,2.61a13.46,13.46,0,0,1,3.19-.33,3.52,3.52,0,0,0,.52.19,1.53,1.53,0,0,0,1.42,1,6.13,6.13,0,0,0,.61.81,2.29,2.29,0,0,1-.07.34,2.36,2.36,0,0,1,1.07.23c0,.45.34.59.53.85,0,.82.49,1.27-.18,2.2,1.19.43,3,.49,4.36.84a3.69,3.69,0,0,0,.66.47,1.91,1.91,0,0,0,.64.17,1.08,1.08,0,0,1,.29.56c-1.82.14-4,.09-5.1.62a2.65,2.65,0,0,0,1,1.29.38.38,0,0,0-.12.18,2.55,2.55,0,0,0-2.29.56H386a.82.82,0,0,0,0-.62c-1.69-.17-2.9-.17-5.1-.31-.9.18-.62,1-2,.94a1.61,1.61,0,0,0-.41-1.35,27,27,0,0,0,3.32.1c.31-.09.3-.51.66-.56a23.28,23.28,0,0,0,5.67-.23A1.58,1.58,0,0,0,387,18c.74.14.72-.7-.08-.48V18a4.28,4.28,0,0,0-.54-.12,4.94,4.94,0,0,0-.62-1h0c.24-1-1.06-1.23-2-1.61h0a3.72,3.72,0,0,1-.49-.25c0-.55,1.43-.25,1.41-.79.33-1.12-1.65-1.43-3.11-1.09a1.87,1.87,0,0,1,.69,1.12c-.1-.09-.33,0-.44-.11a8.43,8.43,0,0,0-1.09-.9,3.17,3.17,0,0,0-1.53-.68c-.12-.73-.93-.76-1.09-1.46a2.59,2.59,0,0,1-.63,0,1.86,1.86,0,0,1-.16-1.24A19.2,19.2,0,0,0,375,9.69c-.53-.44-.7-1.08-1.13-1.57,1.7-.94,2.12-1.39,4.53-.62.06-.13.24-.19.57-.16.07-1.38.26-1.9-.57-2.82,1-.57,2.65-.83,3.4-1.56a1.23,1.23,0,0,0-1.13-.47,2.93,2.93,0,0,1-2.84.78c0-.51-.48-.78-.28-1.41,1.26,0,2.12.34,2.27-.47C379,1.21,378.57.52,378.15,0H356.27a14.78,14.78,0,0,1,2.56,2.18c2.08.75,2.77-1,4.81-.32a13.13,13.13,0,0,0-.85,2.35c-1.64.52-4.64-.51-6,.31v1.1c-2.44.11-6,1-7.93,0,.43-.45,2.3-1.86.28-2.19a4.85,4.85,0,0,1-3.12,2.66c-.68-1-3.5-1.83-2-3.13,1.71-.36,2.34.5,4.53.31-.19-.78,1.14-.73.86-1.56a47.15,47.15,0,0,0-5.67-1.1,2.43,2.43,0,0,0-.1-.61h-4.62a.54.54,0,0,0-.1.46c.05.49,1.53.2,1.42.78a3.62,3.62,0,0,1-2.55,1.88c1-.13,1.09.23,2,.15,0-.76,1.63-1,2.83-.62.25,1.23-1.78,1.2-2,2.19.45.66,2.36,2.09,1.42,2.5-1.43-.1-1.62-.88-1.7-1.72-1.05-.68-2.18-1.3-2.55-2.35-.5-.14-1.52,0-1.42-.47,1.21-.32,1.3-1.26,2-1.88-.67-.25-1.81-.25-2.55-.46,0-.26.17-.38.45-.46h-5.18c-.11.29.09.62.76.92h3.69c-.09.48.31,1.22-.57,1.26-1.26-1.71-4.27-.05-6.23.15-1.09-.88.5-1.61.85-2.33h-2.32a33.41,33.41,0,0,1-6.47.61c-2.37.1-4.91.83-7.36.31-.44.23-.25.81-.29,1.26a37.85,37.85,0,0,1-9.92,2.19c-.71-1-3.16-.68-3.4-1.57,0,.07,3.19-2.07.57-2.34l.14-.16.14-.16.1-.14h-9a2.76,2.76,0,0,1-1.62.92A7.82,7.82,0,0,1,286,0h-7.58a.66.66,0,0,1,.46.46c-1,.54-3.06.26-2.8-.46H185.53a.88.88,0,0,0,.43.61A16.74,16.74,0,0,0,183.39,0h-39a1.18,1.18,0,0,0,.5.61c1.62-.06,3,0,3.4.63a5.3,5.3,0,0,0-1.7.94c-1.22,0-1-.78-2.27-.79a38.47,38.47,0,0,1-4.25.79A6.23,6.23,0,0,0,136.37.46a4.09,4.09,0,0,1,.47-.46H121.49c-.07,1.72-.18,3.22-.34,4.36-.45,1.62-.72-.21-1.26.71s-.48,3.54-.78,3.89-.57-.88-.94-2.12h-.46c-.44-1.57-1.14-1.92-1.49-3.9A7.58,7.58,0,0,0,111.39,0h-8.46a6.16,6.16,0,0,0-1,.82c-.48.48-1,1.52-1.64.71-.08-.48-.15-1-.22-1.53h-7a.7.7,0,0,1-.4.27A1.48,1.48,0,0,1,92.87,0h-16c0,.27,0,.55,0,.82a7.05,7.05,0,0,1,1.2.05,2.49,2.49,0,0,1-1,1.09s0,.06,0,.1L76.83,2a10.18,10.18,0,0,0,.08,1.68A1.7,1.7,0,0,0,77.24,3a3,3,0,0,0,.4.64.18.18,0,0,0,.18-.07c0,.26,0,.51,0,.75-.18.25-.52.32-.4.88a1.47,1.47,0,0,1,.49.11.66.66,0,0,0,0,.15h.23l0,.18,0-.14h0c0,1.19,0,2,.31,1.73.17-.74-.06-.92-.14-1.56l.11.11c.6.1.75-.26,1-.58.37.36.27,1.2.8,1.4,0,.36-.37.29-.56.41.19.43,1.14.28,1.2-.16a5.78,5.78,0,0,1,.77.36v0a2.6,2.6,0,0,0,.8.29,20.35,20.35,0,0,1,.67,5.4A3.44,3.44,0,0,0,82.3,15a1,1,0,0,1-.12-.17,7.61,7.61,0,0,0-.8-1.4,3.27,3.27,0,0,0-2.63-1.23,6.34,6.34,0,0,0-2.46.08c-.21.09-.24.39-.56.66s-.48.18-.64.33c-.33.31-.41.81-.64,1.15-.33.49-1.24.87-.55,1.64a1,1,0,0,0-.09.22c-.17-.68-.37-1.16-.81-.89-.14.09-.21.91-.46,1.42-.15.29-.38.11-.47.35-.53,1.43-.84,4.47-1.8,2.84-.09-.16-.13-.92-.24-1.07s-.11-.1-.17-.09l0-.06a4.23,4.23,0,0,0-.68-.93A24.2,24.2,0,0,0,68.71,15c-.83.54-1.37-2-2.11-2.84A14.08,14.08,0,0,0,66,15.91c-.4,0-.85.1-1.3.1h-.21a11.81,11.81,0,0,1,.5-4.55c0-.62,0-1.14,0-1.61a.49.49,0,0,1,.18.09c.3.29.17.73.4,1,.68.06,1.22.27,1.43.82a1.41,1.41,0,0,1,1.09-.09,3.17,3.17,0,0,0,.67.09c.61,0,1.09-.41,1.59-.25a10.57,10.57,0,0,1,2.08-1.26,20.28,20.28,0,0,0,.14,4.4c0-1.32,0-3.14,0-4.49l.08,0c.06-.29-.12-.32-.08-.58a6.28,6.28,0,0,0,.56-3,5.29,5.29,0,0,0-4.06-4A2.79,2.79,0,0,0,66.94,3a1.55,1.55,0,0,0,.12-.41c-.24.18-.31-.83-.39.35,0,.13.06.19.1.21l-.12.12a2,2,0,0,0-.72-.08,4.22,4.22,0,0,1-1.59,1.4c-.11.4-.17.77-.24,1.12,0-.35,0-.62-.08-.64A42.27,42.27,0,0,0,65,0H62.92V.82h-.23V0H55.44a1.82,1.82,0,0,0,.16.43v0a5.29,5.29,0,0,1-3.4.15A.83.83,0,0,1,52.33,0H41.41c0,.15,0,.3,0,.48a14.77,14.77,0,0,0-.24,1.64c0,.23.19.25.31.5a6,6,0,0,1,.33,1,1.21,1.21,0,0,1-.36.39c-1.51-.16-2.35-.69-4.15-.69a5.63,5.63,0,0,0-.67-1.81c-.77.11-.84-.69-1.2-1.07A1.34,1.34,0,0,0,34.9.14a.78.78,0,0,0,0-.14H30.93c-.35.18-.69.4-1.08.56-.11.11-.08.36-.08.58a6.94,6.94,0,0,0-1.28.49,3.61,3.61,0,0,1-.35,1.81c-.89-.15-1.86-.14-2,.3a2.7,2.7,0,0,0,1.68.8,1.4,1.4,0,0,0,.28,1c0,.33,0,.64,0,.9a4.76,4.76,0,0,1-1.93.48,1.72,1.72,0,0,0,.29,1.25,4.89,4.89,0,0,0,2.26-.72,8.13,8.13,0,0,0,3.24,3c0,.24.11.43.16.66l.58.42c-1.33-.41-3-2.41-4.54-2.28-1.93.15-.87,1.06-.29,1.72-.58,0-.56.42-.85.63a5.21,5.21,0,0,0-1.34-.24,1.06,1.06,0,0,0,0-.25,1.39,1.39,0,0,0-1.11-.9c-.19-1,.81-.7.64-1.64h-.48c-.54-.36,0-.95-.08-1.4a1.69,1.69,0,0,0-.18-.59,3,3,0,0,0,.87-.31c.22-.42.78-1.71-.28-1.87A3.59,3.59,0,0,0,23.54,5v.07l-.05,0a1.37,1.37,0,0,0-.18.16.31.31,0,0,0-.08-.2c-.48-.24-1-.2-1.43-.41-.08,0-.38-.26-.7-.46a3.23,3.23,0,0,0,.5-.55,2.18,2.18,0,0,1-.28-3C21.11.6,21,.38,20.85,0H20a3.55,3.55,0,0,1-.42,1.17c0,.8,0,1.74,0,2.67a1.3,1.3,0,0,1-.86-.07,1.68,1.68,0,0,0-.32.33l-.23,0a2.71,2.71,0,0,1,0-.29,2.57,2.57,0,0,1-.29.28C16.72,4.13,16.06,5.54,15,6a.09.09,0,0,0,0,0c-.72-.12-1.35-.15-1.36.36s.64.43,1.11.55c0,.22-.08.44-.12.65-1.79.41-3.48-1.09-5.52-.42L9.08,7l-.16-.09v.64c-.21.39-.39.39-.6,0-.13.16-.24.33-.36.5a1.75,1.75,0,0,0-.18-.29,26.29,26.29,0,0,0-2.71-.09c-.93.12-1.91,1.07-3,1.24A1.48,1.48,0,0,0,2,10c-.21.12-.36.29-.56.41.23,1-.58,1.26-.56,1.9,0,.35.5.93.08,1.56a1.64,1.64,0,0,1,.48,1.72,2.6,2.6,0,0,0,1.12.79A5.6,5.6,0,0,1,1.2,18.61a7.89,7.89,0,0,0-1.2,0v2.67a.18.18,0,0,1,.06.13H0V31.89c.11,0,.22,0,.35,0a1.16,1.16,0,0,1,.42.28L0,32.08V52.87A23,23,0,0,1,3.46,53c.31.42.06.8-.28,1.25-1,0-1-.51-2-.47a2.22,2.22,0,0,1-1.2.25v137a1,1,0,0,1,1.54.23A1.92,1.92,0,0,1,0,193.15v6a.72.72,0,0,0,.59,0c1.12-.35,1.08-2,2.15-2.38.91,0,.9,1.11,1.91,1.06,1.07-2.11-1.19-3.36,0-5-.23-.72-.6-1.28-1.44-1.32.48-1,.35-2.62.72-3.7,3.57,0,1.77,6,5.73,5.55.81-.07.68-1.2,1.2-1.59,1.05.91,2.78,0,3.57.79a2.57,2.57,0,0,1-2.62,2.91c1.29,1.74,2.88,3.15,3.1,6.08-1.84,1.15-3.9-1.14-2.62-2.65-.67-.58-2.35-1.16-3.11-.79-.54.37-.09,1.84-.24,2.64a3,3,0,0,0-2.38,4c3.18-.94,3.43,3.09,6.92,2.64,1.25,2.69,1.5,5.17,1.19,9.25.19.66,1,.67,1.44,1a11.19,11.19,0,0,0-.56,3.3H18a.53.53,0,0,1,0-.13c0-1.46,1.75-2.23,1.67-4.22,2,.32,3.26-2.47,4.53-.53.38-.73.44-1.81,1.19-2.12,1.1.38,1.28,1.76,2.63,1.86,1.24-.61,1.05-2.06,2.63-2.38,1.33-.28,3.58.79,4.77,1.32-.81,1.78-3.18.2-4.53,1.32-.56,1.06-1,2.28-1.92,2.91a6,6,0,0,1,.17,2h1.23a1,1,0,0,1-.2-.65A19.36,19.36,0,0,1,31.86,219c1.27.46,2,1.09,3.34.26.24.35.23,1,.72,1.06-.09.2-.2.42-.3.65h3c.67-1,1.3-1.84,1.84-1.71a5.54,5.54,0,0,1,.82,1.71H58.56a.77.77,0,0,1-.2-.13c0-.82,1.19-.44,1.91-.52a.61.61,0,0,1-.21.65H85.19c-1-.79-.86-3.84.38-3.82a6.79,6.79,0,0,1,.51,3.82h5.37a2.13,2.13,0,0,1-.15-2.5c.83-.21,1,.29,1.43.53,0,1-.19,1.67-.77,2H216.28c-.19-.34.27-1,.58-.39V221h26.27a.75.75,0,0,1-.25-.65c.46-.11.46.27.47.65H275c.4-1.13.61-2.5-.82-3,.27-1.3.14-3,.48-4.23,1.66.18,2.21,1.61,3.34,2.38-1.19.9-.77,3-.72,4.88h31.69a8.09,8.09,0,0,0,.07-2.24c1.18.13,1.59,1.12,1.87,2.24h3.37c-.17-1.46,1.39-1,1.68-2,.85.47.5,1.43-.14,2h14.46c.13-1.39.71-2.3.48-4.09-.43,0-2,.47-3.1,0-.63,1.78,1.27,1.77.71,2.64-.85-.09-3.19-.64-3.34-2.37,2.28.13,2.25-2.28,4.77-1.85.19-.92-.26-1.12-.47-1.59a3.55,3.55,0,0,1-1.67.53c-3.25-2.56.12-3.45,2.14-6.34.21-.3,0-.8.24-1.32.79-1.51,1.79-1.52,1.67-4.23,1.15-.12.92,1.28,1.68,1.59,1.85-.24,2.86-.24,4.29-.53.46-2.62-2.1-1.9-1.91-4.23-.11-1.08.85.2,1.2.26,1.21-.07,2.43-1.52,3.1-1.32,1,.68.9,2.52,2.15,2.91-.23,2-1.65,2.76-1.91,4.75.93.91,2.76.82,4.3,1.06-.22,2.75-3.38,2.26-5,3.44.69,1.93-.08,2.64.24,4.75-.5.24-.7.81-1.43.8.63,4.41-2.2,4.5-4.77,3.43a1.56,1.56,0,0,0-.55,1.71h6.44c-.28-1.35-1.18-3-.17-4.09,1.11-.26,1.44.34,2.15.53.15-2.41-2.22-2.17-1-4.49.92.14,1.16-.47,2.15-.27.61-.64.37-2.23.71-3.17a2.73,2.73,0,0,1,2.15-.52c.2-1.37-.11-2.17-.95-2.38.88-2.33-1.22-4.36,0-6.08,1.35-.26,2,1.17,2.86,0-.33-.89-1.13-1.68-.48-2.91,1.21-.61,2.3.43,3.11,1.06-.25.53-.42,1.13-1,1.32a2.45,2.45,0,0,1,0,4c-.68-4.24-5.58-.78-2.63,1.84.89-.34.77-1.79,1.91-1.84,1.24,2-.28,3.85-1.19,5,.52.65,1.65.64,2.15,1.32a1.8,1.8,0,0,0,.72,2.9c-.39,1.18-5.11,6.13-1.2,5.55.8-.12,3.39-3.54,3.82-5,0-1.12-1.6-.52-1.67-1.59,1.24-3.1,4.94.16,8.36-1.05,1.2-.43,1-1.5,2.38-2.11-1.21-.06-1.56-2.22-.95-3.44,2.36.91,1.43,5.46,3.82,6.34a6.64,6.64,0,0,0,.71,3.44c.11-2.79,1.2-4.49,2.15-6.34.79.18.8,1.22,1.67,1.32-.81.41-.12,2.51-1,2.9.7.81,2,1,2.86,1.59.19,1-1.27.18-.95,1.32,0,.21.24.26.24.53,1.57,0,1.42-2,2.14-2.91a3.29,3.29,0,0,1,2.63,1.06c0,3.07-3.55,2.31-3.82,4.49a2,2,0,0,0,.32,1.71h1.55a5.62,5.62,0,0,0,2.43-2.24c.85-.07.87.79,1.67.79,1.57-1.6-1.5-2.33-1.19-4.22.23-1.51,2.11-2.19,3.81-1.33,1.13-.07.42-2.18,1-2.9,1.11-.26.32,1.58,1.43,1.32.94.24.17-1.39.72-1.59.93,0,1.74.19,1.91,1.06.64-.08.43-1.11.95-1.32.16-1.14-1-.83-.95-1.85,2.25.15,4,.87,4.06,3.43.1-1.28,2.35-1.33,3.34-.79a2.84,2.84,0,0,1-1.2,3.17c0,1,1,1,1.2,1.85a6.09,6.09,0,0,1-2.63,4c.4.2.78.42,1.15.65H408l.29-.13c-.39-1.81-2.39,0-3.58-.26-1.38-1.23-.14-2.78,1.2-3.17.93-.07.73,1.13,1.66,1.06,1.85-.22,0-3,1.68-3.44.09-1-1-.69-.72-1.85.88.4,4.28.17,5.25,1.32.15,2.22-2.86,1.16-3.82.8-.19,0-.23.26-.47.26-.35,1.7,1.14,1.37,1.91,1.85-.59,1.21-1.16,2.42-1.81,3.56h6.48a2.32,2.32,0,0,1,1.08,0h22c.61-1.45.53-3.67,1.36-4.88a8.36,8.36,0,0,1,2.39,1.58c-.14,1,.29,2.34.24,3.3h6.52c-.55-.43-1.61-.3-1.75-1.18-.16-1.76,1.31-1.72,1.91-2.64.83,0,.9.93,1.67,1,.71-.18.8-1,.72-2.11.74-.24,1.11-.88,1.9-1.06,1.52,3.16-.95,4.87-3,5.94h4.74a7.88,7.88,0,0,1,1.85-2.77c0-.93-.69-1.18-.72-2.11.5-.85,1.83-.8,1.91-2.12,1,0,2.23-.18,2.39.8s-1.19.8-1.91,1.06a12,12,0,0,1-.48,1.84c1.44,1.54,2.34-.53,3.34-1a6.92,6.92,0,0,1,.95,2.11c1.65-1.29,3.11.61,3.84,2.24h8.06s0-.08,0-.13a1.37,1.37,0,0,1,.2.13h4.14s0-.08,0-.13c-.1-1.16,1.29-.69,1.43-1.58-2.14-2.35.08-6.93,1-9.25,1.55.8,3.87,3.89.71,4.76-.28,1.09-.87,1.85-1.19,2.9.27,1,1.88.56,1.91,1.85a2.67,2.67,0,0,0-1.91,1.32.56.56,0,0,0,0,.13h13.76c-.75-1.74-.43-4.65-3-4.35-.23-1.14.9-.77,1-1.59,0-.66-.37-.83-.72-1.06-.61,0-.48.89-.48,1.59-1.44-.17-3.46.31-3.82-1.06,1.7.3,2.43-.48,3.34-1.05a4.37,4.37,0,0,1,.72-3.17c-.65-.71-2.23-.19-2.15.79-1.63-1.37-.72-4.67,1.67-4.49.12,3.65,4.94,2.1,4.54,6.34.89.16,1.51-.68,2.15,0,.16,1.23-.86,1.16-1.2,1.85,1.53,2-1.7,6.26,2.15,5.81a2.46,2.46,0,0,1-.22.39h3.35c.16-.57.34-1.1.45-1.71-.31-1-1.78-.67-2.38-1.32a14.69,14.69,0,0,1,1.19-2.38c1.11.67,2.06-.1,3.1-.26.72.7.65,2.28,1,3.43,1.47.49,2.11-.14,2.39-1.58a3.55,3.55,0,0,1,2.14,2.64c1.07.2,1.44-.35,2.39-.27a3.94,3.94,0,0,0,.65,1.45h18.44a7.38,7.38,0,0,0-1.9-4.35l-.12-.27-.12-.26a3.53,3.53,0,0,0,1.19-1.32,1.69,1.69,0,0,0-2.62-.53,16.6,16.6,0,0,1-2.39-3.44c-.78.2-.37,1.71-1.2,1.85-1,.34-1.82-1-3.1,0-.48-.51-.5-1.56-1.43-1.58-.5.24-.08,1.49-.72,1.58-1.45-.59-2.94-1.15-4.29-1.85.26-1.3.63-2.47,1-3.7,1-.55,1.28,1.68,2.63,1.59v2.11c1.76.42.69-1.47.71-2.64,0-1.56.64-3.78.48-5-.32-2.54-2.65-2.79-2.63-4.76,1.43-.5,1.94,1.78,4.3,1.06.89,1.59,4.32,2,4.54-.53-.68-.92-1.88-1.26-1.44-3.43a1,1,0,0,0,1-.53c1.12.7,1,2.82,2.63,2.91a26.24,26.24,0,0,1,4.06-5,1.78,1.78,0,0,1,1.19,1.32c-.68,1.27-2.3,4-1,5.81-1.08.84-2.49-1-3.58-.26-.46.67.66,1.66,0,2.64-1.43.45-1-1.22-2.15-1.06-.68,1.89-1.29,3.86-2.86,4.76.7,3.7,3.13,5.69,2.15,0,3.21-3.05,6.4,3,10.26,1.85,1.21.16.93,2,2.63,1.58.63-1.58,1-3.42,2.62-4,1,.32,1,1.77,1.44,2.64,1.11-.72,1.82.16,2.62.53.89-.34.29-2.33,1.43-2.38a1.88,1.88,0,0,1,0,2.38c.21.86,1.75,1.25,1.2,2.11a11.75,11.75,0,0,1-4.3,1.06c.38,1.43,1.55,2,1.91,3.44,1.4.34,3,.42,3.82-.53-.13-3.23,1.4-4.61,3.58-5.29,2.37,1.43,3.89,3.8,6,5.55,2-1-1.36-4.1.48-5.81-.18-.87-1.65-.29-1.67-1.32,1-1.52,1.86-4.41,4.29-3.44-1.28.91-1,.74-1.43,3.17a5.64,5.64,0,0,1-.48,1.06c.14,1.75,2.21,3.31,3.11,3.17s1.47-1.6,2.52-2.53V8.66a1.69,1.69,0,0,1-1.15.4c-.5-.57-.59-1.05,0-1.56A5.82,5.82,0,0,1,566,7.57ZM462.52,1.07a.82.82,0,0,1-.11.21c-.09-.12-.09-.24.14-.36L463,1A1.64,1.64,0,0,1,462.52,1.07Zm-11.68,3.5c0-.13-.06-.24-.09-.36a6.14,6.14,0,0,1,.45.63A2.81,2.81,0,0,1,450.84,4.57Zm2.07-.67a2,2,0,0,1-1.42-.32c.38,0,.26-.27.57-.31C452,3.68,453.16,3.39,452.91,3.9ZM389.43,15.32l-.15-.15a.9.9,0,0,0,.22,0l.09.16ZM78,2A.51.51,0,0,1,78,1.63C78.2,1.5,78.17,2.06,78,2Zm1.59-.16c-.43,0-.33-.53,0-.58A.55.55,0,0,1,79.63,1.88Zm.4-.66h-.16V1.05H80ZM.59,182.83H.11v-.53H.59Zm1.67-47c-.21,0-.22.11-.24.27H1.54c.05-.23-.09-.25-.24-.27v-.53c.21.05.23-.1.24-.26H2c0,.22.09.25.24.26Zm-.5-84.17c-.52.52-1.38-.47,0-.31Zm1.93,136c-1.39.39-1.32-1-.95-1.85C3.61,185.74,3.78,186.51,3.69,187.58ZM3.46,36.91H2.61c.21-.57-.7-.87,0-1.25h.85C4.16,36,3.25,36.34,3.46,36.91Zm6,164.68c.08-.32.64-.22.72,0C10.35,202.16,9.26,202.2,9.42,201.59Zm1.2,1.58c-.15-1,1.3-.31,1.91-.53C12.52,203.36,11.07,203.83,10.62,203.17ZM110.86,1.55a7.8,7.8,0,0,1,3.12,0c1.15,1.78-2.8,2-4.53,2.66C108.88,3.34,110.77,2.57,110.86,1.55Zm-3.68,1.88c.23.56,2,.91,1.42,1.41a4.08,4.08,0,0,0-2,.29s0,0,0,0c-.76.12-.92-.41-1.59-.57-.31,0-.31.33-.56.41-.41-.42-.9-.08-1.39-.29A9,9,0,0,0,107.18,3.43Zm-3.33,2.06c.31.09,1-.19,1,.17C104.57,5.57,103.9,5.85,103.85,5.49Zm.58.94-.31.12a.25.25,0,0,1,.28-.23Zm-1,.22a3.6,3.6,0,0,1-.7-.07.33.33,0,0,1,0-.1c.28-.21.41-.57.88-.58.1.41-.25.35-.24.66A.18.18,0,0,0,103.43,6.65Zm-3.9.53a3.85,3.85,0,0,1,2.55-2.66,7,7,0,0,0,.75.1c0,.15.18.21.14.46a2.72,2.72,0,0,1-2,.74c-.21.19-.25.57-.56.66,0,.31.34.31.32.66s-.42.18-.68.23l-.53,0,.14-.08Zm-4.82-.31c2.15-.19,2.39.66,4.54.47l-.15.08.15.08c0,1.18-2.51,2-4.79,2.17,0,0,0,0,0-.07a3.5,3.5,0,0,1-1-.82A1.42,1.42,0,0,1,92,8.45h-.25C92.67,7.88,93.81,7.44,94.71,6.87Zm-7.37,3.6a.7.7,0,0,1,.11.23c-.6.36-1.38.89-.49,1.7,0,.1,0,.2-.08.3l-.1.12C85,12.82,85.11,10.12,87.34,10.47ZM75.49,19.88c.61.5,1.06,1.15,1.59,1.56.33,0,.34-.42.8-.33s.23.52.48.66c.89,0,1.12-1.14,2.07-.82a2.33,2.33,0,0,0,.55-.58c.29.09.17.6.48.66a1.7,1.7,0,0,0,.48-.17c.12-.53-.18-.63-.32-.9.21-.83,1.13-1.19,1.2-2,0-.28-.16-.47-.26-.75.08-.19.18-.34.29-.13a14.18,14.18,0,0,1,0,3.19c-.87.3-1.37,2.3-1.95,3.9-.36-1.44-.57-.82-1.1-.71s-.74-.88-.93-.71c-.48.42-.71,3.35-1.25,2.48a7,7,0,0,1-.32-2.48,3.19,3.19,0,0,0-2-1.06,5.32,5.32,0,0,0-.36-2.26C75.09,19.6,75.3,19.72,75.49,19.88Zm-1.12-1.65v.15a1.46,1.46,0,0,1-.07-.19ZM63.75,7.8a.4.4,0,0,1,0,.32.91.91,0,0,1-.13.08Zm-.67.51a2.83,2.83,0,0,1-.41,0C62.12,6.46,63.55,4,63.08,8.31Zm.06,1.19a.46.46,0,0,1,.16-.06,5,5,0,0,1,1.19.22c0,.76,0,1.51.07,2.14-.33,1.3-1,1.29-1.09,3.54a4.69,4.69,0,0,0,0,.71,2.09,2.09,0,0,0-.3.14l0-.14a5.88,5.88,0,0,0-.71-2.13A23.67,23.67,0,0,1,63.14,9.5ZM60.66,20.88c-.15,0-.31-.19-.47-.58,0-1,0-2,.11-2.94a.57.57,0,0,0,.77.22c.22-.08.39-.51.4-.58.08-.65-.54-.79-1-1,0-.49.12-1,.19-1.35a1.21,1.21,0,0,0,.53-.21.5.5,0,0,0-.4-.4c.28-1.22.64-1.64,1-.48,0,1.33,0,2.64-.13,3.78C61.24,18.41,60.14,19.12,60.66,20.88Zm-.23-10.7a.47.47,0,0,1,.36-.3c-.1.36-.2.72-.3,1.06A1,1,0,0,1,60.43,10.18Zm-.16-7.24c.89-.75,1.09,1.67,1.25,4.25-.09.3-.17.61-.26.92a2.09,2.09,0,0,0,.3-.14.82.82,0,0,1,.11.41c-.45.19-.69.51-1.16.4-.24-.06-.34-.24-.46-.41C60.19,6.87,60,3.91,60.27,2.94Zm-.55,5.19a.92.92,0,0,0-.24,0c-.15-.27-.3-.64-.49-.95C59.35,7,59.54,7.5,59.72,8.13Zm-.48,8.61a1.69,1.69,0,0,1-.77-.38C58.66,15.46,59,15.91,59.24,16.74Zm-.92,1.2a1,1,0,0,0,.2,0c.4,0,.73-.35.79-1a6.45,6.45,0,0,1,.17,1.5c0,2.64-.85,1.41-1.17,0C58.31,18.32,58.32,18.12,58.32,17.94ZM56.2,5.9h-.38C55.94,5.58,56.09,5.57,56.2,5.9ZM53.62,4.37a1.37,1.37,0,0,1-.28,2C53.11,6,52.56,4.56,53.62,4.37Zm-1.56,0c.36-.34.36,4-.08,3.19A15.59,15.59,0,0,1,52.06,4.36Zm.14,11c.44.24.51,1.07-.56.94C51.2,16,51.13,15.19,52.2,15.32ZM50.72,1.7h.07a.58.58,0,0,1-.08.22A1.77,1.77,0,0,0,50.72,1.7ZM46.25,9.06a4.61,4.61,0,0,1-2.55.31c-.82-.22-.77-.92-1.13-1.4A3.25,3.25,0,0,1,46.25,9.06ZM46,191.28c-.05.21-.24.26-.24.53h-.48V191C45.61,190.94,45.64,191.27,46,191.28ZM42.82,5.07h0a4.77,4.77,0,0,0,.6.59.34.34,0,0,1,0,.1c-1.55.19-3.63.58-4-.46A6.87,6.87,0,0,1,42.82,5.07ZM41.07,19.81a1.34,1.34,0,0,1-.77.05C40,19.69,40,19.35,40,19a2,2,0,0,0,.35.55C40.58,19.72,40.81,19.7,41.07,19.81ZM39.74,7.5a7.22,7.22,0,0,0-.78.15,2.48,2.48,0,0,0-.39-.82C39.41,6.88,40,7,39.74,7.5Zm-.11,11.11h-.18v.15a7,7,0,0,1-2.27-.15c-.06-.3.32-.35.29-.63.52.12,1.15.18,1.64.31C39.28,18.4,39.46,18.49,39.63,18.61Zm-.39-7.71h0Zm-.87.1c.21.21.42-.05.72,0,.08.43-.05.63-.26.72a2.5,2.5,0,0,0-1.36-1.09,7,7,0,0,1,.82,0C38.31,10.79,38.35,10.88,38.37,11Zm-.88-4.11c.15,0,.18.09.32.08,0,.24-.19.24-.4.25A.52.52,0,0,1,37.49,6.89Zm.08,1,.12.28a2.16,2.16,0,0,0-.61.54.5.5,0,0,1-.3-.08C36.85,8.18,37,7.84,37.57,7.88ZM36,10h.16v.17H36Zm-1.35-.08a.94.94,0,0,1,.92.38h-.92Zm-1.36.25a.51.51,0,0,1,.08.41c-.2-.07-.69.16-.64-.17C33,10.45,33,10.18,33.27,10.18ZM30.1,12.82a5.39,5.39,0,0,0,1.8,1.06c-1,.27-1.94-.65-3-.58a1.12,1.12,0,0,0-.49.24.76.76,0,0,1-.28-.25A5.88,5.88,0,0,1,30.1,12.82Zm-7.82.81c.16.25,0,.83.16,1.07.71.19.88-.45,1.13-1,.32,0,.63,0,.95,0a1.07,1.07,0,0,0,.07.19l.13-.19a5.24,5.24,0,0,1,2.11.23c-.24.17-.48.38-.74.56-.54.12-1.13.24-1.73.33-.05-.12-.11-.23-.17-.36a4.89,4.89,0,0,0-.9.51A9.58,9.58,0,0,1,22,15c-.11-.35-.48-.15-.86-.16v.08a2.57,2.57,0,0,1-1-.36C20.77,14,21.48,13.37,22.28,13.63ZM21.48,21a.83.83,0,0,0,0-.71,4.26,4.26,0,0,0,.16-.54l.28.08.29-.08c.09.78,1,1.09,1.41,1.72-.22.58-.75.67-1.34.56a.37.37,0,0,0,.12-.29C22.43,21.06,21.81,21.15,21.48,21Zm2.74-2.36a4.25,4.25,0,0,1-2,.8l-.29-.08-.28.08c-1.37-1.32-.05-2.92,2-2.66a2.49,2.49,0,0,1,.81.21,1.62,1.62,0,0,0-.36.64A2.1,2.1,0,0,0,24.22,18.59ZM25.28,23a5.19,5.19,0,0,1-2-.16C23.14,22.25,25.2,22.71,25.28,23Zm-5.1-7.2h.57v.31h-.57Zm2.37,158.32c-.52.44-2.15.42-2.39-.27C20.19,172.61,22.78,172.76,22.55,174.11Zm-1.43,27.74c.2.21.14.72.47.79A1.38,1.38,0,0,1,19.93,204c-.11-.24-.22-.48-.48-.53C19.47,202.31,20,201.77,21.12,201.85ZM19.05,41.76c-3.35-.33-5,4.23-6.52,1.1.62-.18,1.83,0,2-.47.08-1.84,1.93-2.69,4.25-3.29C19.63,39.63,20.06,41.12,19.05,41.76Zm-.8,128.91c-.08.35-.42.42-.47.79-.32-.09-.38-.46-.72-.53.09-.34.42-.41.48-.79C17.85,170.24,17.91,170.61,18.25,170.67Zm-6-152.53v-.63c.7,0,1.37,0,1.41.31C13.12,17.89,13,18.16,12.25,18.14Zm6.8,12.51-.14.16.14.16c0,1-.72,0-1.13,0-1.08-.07-3.09.46-3.12-.32.4,0,.32-.34.56-.47a10.64,10.64,0,0,1,1.24.14c.1.37.26.65.66.65s.45-.11.6-.43A8.32,8.32,0,0,0,19.05,30.65ZM14.53,10c0,.14,0,.26,0,.4.27.45.7.85.48,1.57.67,0,.89.44,1,1.06a5.2,5.2,0,0,1,1.83.63c-1,.22-1.36.83-2.46,1-.9-.18-1-.82-1.41-1.25a2.38,2.38,0,0,1-2.28.23,4.29,4.29,0,0,1-.14-.62c.08-.27.57-.11.71-.32,0-.68-.2-1.11-.88-1.07a1.94,1.94,0,0,1,.06-.78A5.14,5.14,0,0,0,14.53,10ZM12,38.32c.27.8-2.8.89-2.83.16C9.41,38.07,11.35,38.06,12,38.32ZM10.68,16.25a4,4,0,0,1,.61-.48l.35,0A1.11,1.11,0,0,1,10.68,16.25Zm.43-7.82c.54.23,1.48.24,1.7.63-.81.23-1,.81-1.41,1.25l0-.05c-.17-.18-.39,0-.55.08A7.36,7.36,0,0,0,9.63,9,5.74,5.74,0,0,0,11.11,8.43Zm-6.8,10c.4,0,.88-.06,1.39-.06,0,.2-.12.31-.07.58a1.15,1.15,0,0,0,.88.33,1.62,1.62,0,0,0,.16-.87,8.46,8.46,0,0,1,2,.36c-.08.27-.1.6.11.76a1.27,1.27,0,0,1,.55-.09,1.45,1.45,0,0,1,.06-.3.81.81,0,0,1,.27.38C7.91,19.62,4.18,20.13,4.31,18.45Zm2.55,21.9c-.4,0-.47.26-.85.32-.07-.23-.46-.27-.56-.47.4,0,.47-.26.85-.32C6.36,40.11,6.76,40.15,6.86,40.35ZM5.36,140.81h.72c.51.57.12,1.48-.24,1.85A1.3,1.3,0,0,1,5.36,140.81ZM6.8,173.05c-1.34-1.08.11-4.23,1.43-2.38C8.44,172.23,7.87,172.92,6.8,173.05ZM8.28,21a.77.77,0,0,0,.57-.31,2.28,2.28,0,0,1,1.72.39.2.2,0,0,0,.12.13.94.94,0,0,1,.14.26c-.4,0-.32.34-.57.47C9,21.94,8.3,21.62,8.28,21Zm.66,129.64c-.06-1.5,3.35-4.11,4.54-2.64.85.06.87-.8,1.67-.8a3,3,0,0,1,.24,2.12,15.92,15.92,0,0,1-4.3.26C10.41,149.87,10.07,151.58,8.94,150.59Zm5,1.06v.52C12.79,152.44,13.51,150.77,14,151.65Zm-1.2,33.29a1.12,1.12,0,0,1-1.43-.79C11.62,182.09,14.16,183.69,12.76,184.94Zm-.71,5.81c-.72-1.15-.89-2.89-1.43-4.22.39-.45,1.4-.21,2.14-.27.39,1.42,2.14,1.33,1.91,3.44A2.82,2.82,0,0,1,12.05,190.75Zm3.34-12.15h-.72c-.59-.65.18-1.15,0-2.11h.72C15.21,177.45,16,178,15.39,178.6Zm.24,10c.34-.91,2.32-1.1,2.86-.26C18,189.64,16.63,188.89,15.63,188.64Zm2.15,5c-.5-.27-.66-1.17.24-1.06C18.12,193.15,17.85,193.3,17.78,193.66Zm0,2.64c-.66,0-.57-1.24-.24-1.58C18.19,194.72,18.11,196,17.78,196.3Zm-1.67,11.36c-.12-2.84,3-2,4.53-1.85C20.37,207.67,17.54,208,16.11,207.66Zm2.86,7.4c-.19-2.32,1.91-2.11,2.39-3.7,1.09,0,1,1.36,1.19,2.38C21.3,214.11,20.71,215.22,19,215.06Zm3.82-5.81v-1.06c.59,0,.74.42,1.19.53C24,209.3,23.38,209.29,22.79,209.25Zm-.72-6.34c-.3-3.3,2.51-1.2,2.39.53A3.18,3.18,0,0,1,22.07,202.91Zm1-36.47c1.3-5.29,2.66,2.41,5.49,1.85.86,1.09.49,3.61-.24,4.5a5.81,5.81,0,0,1-3.58-5.55C24.57,166.5,23.55,166.75,23,166.44Zm1.91,20.61c0-1.31,1.71-.4,2.62-.52.35-.05.94-1.68,1,0l-.12.26.12.26c-1.23.06-1.92.7-3.11.8C25.21,187.63,25.27,187.12,24.94,187.05Zm.95,9c.19-.77,1.62-1.18,1.67,0C26.81,196.4,26.76,196.1,25.89,196Zm3.34,7.4c-.33.86-.24,2.19-1.67,1.84a1.58,1.58,0,0,1,1.67-2.37l-.11.26Zm.72,8.71h-.48v-.52H30Zm-.48-8.71.12-.27-.12-.26c.77-.5,2.45-2.45,2.87-.27-.31,1.08-1.12,1.59-1.19,2.91l-.24-.13-.24.13C30.54,204.54,30.45,203.5,29.47,203.44Zm2.87,7.13c-1.72.44-2.82-2.27-1.67-4.49l.24.13.24-.13C33.06,206.51,34.56,210,32.34,210.57Zm-.24-10.31c.31-.36,1-.26,1.67-.26C33.7,200.47,32,201.25,32.1,200.26ZM34,16.26c-.2-.29-.7-.34-.8-.74.05-.36.53-.28.56-.66a1.8,1.8,0,0,1-1.83-1,13.32,13.32,0,0,0,1.58.49,1.91,1.91,0,0,1,.24-2.09l.89.68c.36,0,.25-.45.39-.65a2.55,2.55,0,0,0,.83-.16c2.29.85,1.06,3.42-.65,4.26a11.57,11.57,0,0,1-1.17,0A.26.26,0,0,0,34,16.26Zm1.21,2.35a1,1,0,0,1-.31.22c0-.17,0-.35-.07-.52A.89.89,0,0,1,35.2,18.61Zm6,200.15a6.21,6.21,0,0,1-.48-4.23,6.22,6.22,0,0,0-2.86,2.65,3.31,3.31,0,0,1-1.67-.8c.19-.66.83-.83,1.19-1.32-.08-2.81-3.55-1.88-3.1-5.28,1.72-.29,2.17-2,3.34-2.91.84-.05.78.89,1.43,1.06.5-.24.73-.78.72-1.59.93.21,2,.21,2.39,1.06-.48,1.41-2.82.76-2.39,3.17.12.92,1.56.39,2.39.53C43.85,212.79,45,218.69,41.17,218.76Zm4.54-11.63v.27H46c-.34.69-1.24.75-1.92,1.06,0-.48-.29-.56-.23-1.06C44.14,207,45,207.17,45.71,207.13ZM44,220.87a3.25,3.25,0,0,0,1.2-2.11H46C46.14,220.38,45.27,220.83,44,220.87Zm.72-6.6c.51-.57,1.33-.14,1.67.26C46.38,216,44.5,216.24,44.75,214.27Zm1.43-7.14.12-.13-.12-.13a2.52,2.52,0,0,1,.24-1.59c.76-.22.74.42,1.2.53C47.47,206.62,47.08,207.16,46.18,207.13ZM47.67,15a1.79,1.79,0,0,1-.22-.83c-.15,0-.06-.32-.32-.25a2.9,2.9,0,0,0-.69-1.52C46.65,8.84,48,10.76,47.67,15Zm.18,201.34c.22-1,1-.19,1.68-.26C49.52,216.89,48.18,216.74,47.85,216.38Zm.53-198a.77.77,0,0,1,.42-.25c.09.21.41.29.29.62h-.36A2,2,0,0,0,48.38,18.39ZM48.57,5.9a.57.57,0,0,1-.16-.32,5.79,5.79,0,0,0,.67-.42c.48.1.85.25.86.61A3.58,3.58,0,0,1,48.57,5.9Zm1.92,1.8a.29.29,0,0,0,0-.48h-.06v0c0-1.67,1-2.62.86,0C51.05,7.77,50.68,8.65,50.49,7.7Zm.58,11.06v-.47c.59-.25,2.64-.3,2.55.32S51.53,19,51.07,18.76Zm2.51,189.43c-.49-.26-.65-1.17.24-1.06C53.92,207.69,53.66,207.83,53.58,208.19ZM54,17.82c-.48.22-.64-1-.68-2.78a9.16,9.16,0,0,0,1,.63C54.21,16.24,54.18,17.35,54,17.82ZM53.9,4.21c-.27-.71,1.2-1,2-.63C56.13,4.28,54.61,4.52,53.9,4.21Zm1,15.74c-.18-1-.19-2.74-.28-4.15a5.49,5.49,0,0,0,.51.21,3.61,3.61,0,0,0,.95.25c.43,0,.67-.44,1-.58a6.55,6.55,0,0,0,.36,1.43,41.34,41.34,0,0,1-.13,4.3c3.49.38,2.41,4.19,1.4,5.49h0c0-.48-.62-.94-1.35-1a6.58,6.58,0,0,0,0-2.55,5,5,0,0,0-.56-.82c-.24-.38-.46-.75-.69-1.1h.22C55.86,20.52,55.48,19.13,54.87,20ZM57.3,34.1c.57,0,.37-.43,1.14-.32C59.9,34.28,57.43,35.29,57.3,34.1ZM55.73,217.7c0-.1.51-.46.72-.26C56.92,217.89,55.39,218.7,55.73,217.7Zm.72-4.75c-.91.22-.85-1.18-.48-1.59C56.87,211.14,56.81,212.55,56.45,213Zm-1-5v-.8c.39-.34,2.11-.56,2.15.27C57.72,208.43,56,208.35,55.49,207.93ZM57.87,45.52a1.74,1.74,0,0,1,0-2C59.28,43.57,59.52,45.5,57.87,45.52Zm1.68,157.12c-.94-1.68-.28-5.15-.48-7.66.72-.8,1.68-2.12,2.87-1.58C62.89,195.85,63.93,203.63,59.55,202.64Zm2.15-20.87c-.65.19-.48-.53-1-.53C60.85,179.23,62.94,180.93,61.7,181.77ZM61.22,162c1.39,0,1.18,3.3,0,3.44A5.47,5.47,0,0,1,61.22,162Zm55.16-26.58a17.78,17.78,0,0,1-5.57,6.83,21.9,21.9,0,0,1-8.09,3.62,42.65,42.65,0,0,1-9.59,1.05H61.29a2.39,2.39,0,0,1-2.41-2.41V75.76a2.39,2.39,0,0,1,2.41-2.41H91.62a39.92,39.92,0,0,1,9.25,1.05,22,22,0,0,1,7.78,3.47,18,18,0,0,1,5.42,6.28,19.9,19.9,0,0,1,2.06,9.49,13.54,13.54,0,0,1-2.26,7.83A21.12,21.12,0,0,1,109,106.7c-1.2.87-1.14,1.64.2,2.31a22.86,22.86,0,0,1,3.22,2.21,16.1,16.1,0,0,1,3,3.21,17.24,17.24,0,0,1,2.21,4.42,17.75,17.75,0,0,1,.85,5.73A24.69,24.69,0,0,1,116.38,135.37ZM276.06,188.9c.39-.07.41.25.72.27.46.77.34,2.71-.72,2.64C275.53,191.19,275.33,189.46,276.06,188.9ZM255.11.46c.59.48,1.33,1.08-.57,1.09C254.27,1.15,254.33.66,255.11.46Zm-4.82,2.19c.37.2.37.58-.28.62C249.64,3.06,249.63,2.69,250.29,2.65Zm-1.42.93c.63.07.27.86-.28.79C248.37,4.26,247.85,3.43,248.87,3.58Zm-6.23,6.89v.31C242.12,11.3,241.26,10.31,242.64,10.47ZM222.8,18.61a3.11,3.11,0,0,1-1.41.15C220.89,18.06,222.88,18.2,222.8,18.61Zm-6.8.62c-.09.47.32,1.22-.57,1.25C215,20.22,214.78,19.08,216,19.23ZM203.25,25c.45.23.41.89-.57.78C202.09,25.49,202.67,25.13,203.25,25Zm.28,17.52c.9.74-1.44,1.1-1.41.16A3.21,3.21,0,0,1,203.53,42.54Zm-9.77-25.73.14-.08c2.27-.26,5.48.31,5.1,2-3.2.75-3.71-1.27-5.39-1.88Zm5,13.69V31h-.85V30.5ZM197,23.93a4.6,4.6,0,0,1-2.55,0C194,23.28,197.5,23.14,197,23.93Zm-2.26-4.39c.78-1.3,2.1.6,0,0ZM188.23,40c.75-.16,1.61-.12,1.7.47a3.49,3.49,0,0,1-1.7,0Zm2.55,4.85a.68.68,0,0,1,.28.78,2.93,2.93,0,0,1-2,0C189.26,45.2,189.71,44.87,190.78,44.89ZM185.4,9.53c.72,0,1.45,0,1.41.47-.66.05-1.17.31-1.7,0C185.1,9.78,185.24,9.66,185.4,9.53ZM188,42.86c0,1-3.57,1.14-3.12-.16C185.74,42.21,186.83,42.65,188,42.86ZM186.24,41c0,.8-1.4.32-2.26.31C184,40.79,185.69,40.72,186.24,41ZM183.41,9.06c-.36.22-1.69.27-1.7-.16C182.07,8.69,183.41,8.63,183.41,9.06Zm-7.93-.16c-.1-.62,0-1.14.85-1.25a6.71,6.71,0,0,0,4,1.1C180.32,10.35,176.65,9,175.48,8.9Zm4.25,14.56v.47h-.85C178.83,23.58,179.11,23.43,179.73,23.46Zm-2.55,5.63c0-.22.13-.34.28-.47.54,0,.63.18,1.13.16C178.79,29.32,177.6,29.34,177.18,29.09Zm-.57,2.66H176c0-.16-.23-.19-.28-.31C176.21,31.45,176.74,31.42,176.61,31.75Zm2.27-28.17c1.75-.24,1.32,1.41.28,1.41C178.69,4.73,178.94,4.07,178.88,3.58ZM175.19.92a4.84,4.84,0,0,1,2.27,0C177.66,2,174.82,2.18,175.19.92Zm1.42,1.73c.23.72-2.06.52-2.27.15A3.26,3.26,0,0,1,176.61,2.65Zm-2.55,18.62c-.66,0-1.22.33-1.42-.16C173,20.9,174,20.87,174.06,21.27Zm-1.7-20c-.36.21-1.7.27-1.7-.16C171,.87,172.35.81,172.36,1.24Zm0,7.66c-.11.52-.25,1-1.13,1.1-.25-.49-1.08-.66-1.14-1.25A3.05,3.05,0,0,1,172.36,8.9Zm-2,8.45V18a2.67,2.67,0,0,1-1.14-.16C169.16,17.41,169.63,17.31,170.38,17.35Zm-2.55-10c.24-.15,1.8-.33,2,0-.73.22-.43,1-1.42,1.09C167.78,8.3,167.73,7.86,167.83,7.34ZM169,23a2.94,2.94,0,0,1-1.13.15v-.47C168.47,22.63,168.89,22.71,169,23Zm-4,8.13c-.45-.23-.41-.89.57-.78C166.15,30.65,165.57,31,165,31.12Zm0-24.56c-.3-.91,1.23-.07,0,0Zm.28,2.19c0,.15.23.18.29.31-.29,0-.34.13-.57.16,0-.16-.23-.19-.28-.32C165,8.9,165,8.78,165.27,8.75Zm-1.41-1.41c-1,.11-.81.91-2,.94-.35-.49-.82-1.09,0-1.41C162.72,6.93,163.6,7,163.86,7.34Zm.28,24.88c-.49,1.24-2.18,1.82-4.25,2.19-.39-.2-.28-.68-.28-1.1C161.05,32.94,161.79,31.6,164.14,32.22ZM157.06.61c2.92.13.2,2.8,1.7,3.44,1.06.06,2.14-.68,3.11-.15-1,.19-.41,1.23-.85,1.72a9.13,9.13,0,0,1-2.83.47c.35-1-1.61-.68-2-1.25-.22-.59.34-.75.28-1.26-.54-.27-1.75-.18-1.7-.78C155.29,1.93,156.52,1.46,157.06.61ZM153.37,7c1.45-.3,3.1-.48,4.54-.79C158.13,7.68,154.29,8.38,153.37,7Zm3.69,6.41V13C157.88,12.74,157.88,13.67,157.06,13.44Zm-3.4,7.83c3.78-.16,1.08,3.44-1.14,1.72A9.33,9.33,0,0,1,153.66,21.27Zm.85-9.86c.21.37.55,1.08,0,1.41h-.85C153.39,12.39,153.29,11.45,154.51,11.41Zm2.26,23.47c-1.06,1.59-3.09-.71,0,0Zm-7.65-33c.93-.3,4.49-.73,4.54.32-.88.5-2.83.42-4.25.62C149.08,2.62,149.08,2.25,149.12,1.86Zm2.27,8.61c-1.15.11-1.62-.15-1.42-.78.68.06.62-.29,1.42-.16,0,.1,0,.19.28.16C151.91,10.13,151.27,10.09,151.39,10.47Zm-2.27.47c1.34-.06,2.43,0,2.27.78C150,12,148.38,11.88,149.12,10.94Zm-.57,19.56A6.26,6.26,0,0,1,146,31.91c-.61-.46-.23-1.41.29-1.73A5.12,5.12,0,0,1,148.55,30.5Zm-4.25-6.42c0-.82,1.2-1,1.42-1.72a5.35,5.35,0,0,1,2.27.31C147.68,23.65,146.34,24.06,144.3,24.08Zm2.56-17.21c.41.48,0,.8-1.14.78C145.31,7.18,145.67,6.85,146.86,6.87ZM146,3.27c.73,0,1.1.23,1.14.63a3.14,3.14,0,0,1-1.42.15A.7.7,0,0,1,146,3.27ZM143.45,3l.05.18.24.13c-.18,1.25,2.07,1.15,2,2.35C142.7,7.65,140.77,3.63,143.45,3Zm-.56,26.76c.12-1.12-2.18-.89-2.27-1.88C142.29,27.37,145.23,29.34,142.89,29.72Zm-6.24-5.79c3.64-.05,5.79,3.33,1.42,3.75C136.86,26.81,134.53,25.23,136.65,23.93Zm-3.4-21a3.36,3.36,0,0,1-2,.31C130.26,2.51,133,2.17,133.25,3Zm-7.93-1.1c.53-.3,1,0,1.7,0,0,.46-.65.58-1.14.79C125.76,2.35,125.07,2.36,125.32,1.86Zm2.26,196.55c-1.79-2.2.18-4.87,1.2-6.34C132.46,192.78,130.65,198.49,127.58,198.41Zm3.35-6.6c.07-1.68,2-1.29,1.91-3.17C134.81,189.28,132.33,192.6,130.93,191.81Zm4.29,9.25c-.18-1.21-1.17-1.52-1.19-2.91,1.71,0,2.84.73,3.1,2.38A2.48,2.48,0,0,1,135.22,201.06Zm.48-13.21a3.12,3.12,0,0,1-.24-2.91,5.84,5.84,0,0,1,2.15,2.38A2.48,2.48,0,0,1,135.7,187.85Zm2.39,32.5c-.62-1.59.69-1.77,1.91-1.32C140.14,220.33,139.21,220.45,138.09,220.35Zm4.53-.8c-1-.07-.93-1.66-.71-2.37h.71C143.09,217.73,142.81,218.93,142.62,219.55Zm-.71-16.64a22.55,22.55,0,0,1-1-2.91C142.82,197.09,145.09,203.17,141.91,202.91Zm2.62-23c-2.6,1.19-.89-2.69,0,0Zm.24,37v-.79C145.47,215.73,145.47,217.3,144.77,216.91Zm2.15-34.35c0-.7-.09-1.51.24-1.85,1.74.63,3.17,1.6,3.58,3.7C148.76,185.46,148.14,183.19,146.92,182.56Zm5,5c-.82.19-.85-.92-.47-1.32C151.94,186.46,152.43,187.06,151.93,187.58Zm1.91,12.95v-.79c.5-.12.64.18,1,.26C154.74,200.47,154.39,200.6,153.84,200.53Zm2.15,9c-.62.08-1-.09-1-.79a1.26,1.26,0,0,1,1-.26Zm1.91-6.34c.17-.83.64-.34,1.2-.26C159.07,203.58,158.21,203.53,157.9,203.17Zm2.63-17.44c0-.21.24-.26.23-.53h.48C161.35,185.77,160.9,185.71,160.53,185.73Zm2.38,4.49c-.42,0-.5.33-.95.27a1.3,1.3,0,0,1-.24-.79C162.08,189.28,163.08,189.31,162.91,190.22Zm1,9c-.52,0-.76-.22-.72-.8h.72Zm3.58-30.12c.72,0,1.94-.83,1.91.52C168.89,170.05,167.47,169.94,167.45,169.09Zm.72-2.38c-.38-2.19,2.61-1.9,2.62-.27C169.85,166.8,168.93,167.54,168.17,166.71ZM171,171.2v-.79a1.51,1.51,0,0,1,1.43,0C172.39,171.4,171.66,171.48,171,171.2Zm.72-9.51a1.37,1.37,0,0,1,1.67,0,1.91,1.91,0,0,1-.24,1.32C172.28,163,171.89,162.49,171.75,161.69Zm2.15,6.87c-1.48-.21-2.91-2.9-1.2-4.76,2.08,0,3.33,1,4.78-.26.35-1.71-1-2.62-.72-3.44,1.55.59,1.73-.35,2.39-1.32,1,.25,1.27,1.23,1.67,2.11-1.65.38-2.47,1.68-2.15,4.23C176.89,165.49,176.1,168.87,173.9,168.56Zm6,18v.79h-.71v-.79Zm-3.58,11.88c.31-.3,1.88-.53,2.15,0C178.84,199.74,175.93,199.5,176.28,198.41Zm.24,7.4c1.77-1,.67,2.21,0,0Zm-.72,4.76-.11-.13-.12-.13c1.41-1,1.84-4.44,4.53-3.18C180.42,210,177.72,211,175.8,210.57Zm5.5-6.87c-1,.11-1.51-.27-1.44-1.32C180.78,201.56,181.89,202.76,181.3,203.7Zm.23-41.75a1.3,1.3,0,0,0,.24-.79c.63-.08.62.55.72,1.06C182,162.33,181.86,162,181.53,162Zm2.15,34.62c-.48-.2-1-.8-.48-1.33C184,195.06,184.06,196.17,183.68,196.57Zm.24-29.6a1.41,1.41,0,0,1-1.19-.26C182.7,165.12,184.67,165.74,183.92,167Zm-9.73-20.1a5,5,0,0,1-2.16-.55,4.7,4.7,0,0,1-1.76-1.35q-3.2-4.23-6.35-8.54t-6.24-8.74a4.71,4.71,0,0,0-1.7-1.36,4.84,4.84,0,0,0-2.1-.55h-2.2a2.39,2.39,0,0,0-2.4,2.41v16.27a2.41,2.41,0,0,1-2.42,2.41H131.81a2.41,2.41,0,0,1-2.42-2.41V75.76a2.39,2.39,0,0,1,2.41-2.41H163a28.75,28.75,0,0,1,10.75,2,24.08,24.08,0,0,1,8.38,5.47,25.39,25.39,0,0,1,5.43,8.34,28.13,28.13,0,0,1,2,10.65,27,27,0,0,1-.76,6.37,27.29,27.29,0,0,1-2.16,6,24.9,24.9,0,0,1-3.31,5.07A18.14,18.14,0,0,1,179,121a2.72,2.72,0,0,0-1,1.46,1.78,1.78,0,0,0,.35,1.65q3.81,5,8,10.35t7.54,9.74a1.86,1.86,0,0,1,.3,1.76,1.25,1.25,0,0,1-1.31,1Zm20.23,59.47c-1,.26-.8-1.67-.47-2.11C194.69,204.29,194.35,205.54,194.42,206.34ZM195,46.61c-.37-.48,1.27-1,.85-2-1.72-.74-3.2-.13-5.67-.16-2-1.1-.33-2.69,1.42-2.81,2.62-.19,3.55,1.82,5.67,2-.38,1.51.59,2.28,2.55,2.5a2.79,2.79,0,0,1-2,1.26A2.59,2.59,0,0,0,195,46.61ZM199,207.13a1.45,1.45,0,0,1,1.19.27C200.22,208.09,198.54,208.32,199,207.13Zm-.25-185.55c-.08-.62.55-.85,1.7-.78C201.13,21.35,199.81,22.06,198.71,21.58Zm2,23.94a3.11,3.11,0,0,1,1.13-.16c-.12.3-.1.68-.85.63A.56.56,0,0,0,200.7,45.52Zm36.69,165.31V210c.48-.45,1.94-.38,2.15.27C239.62,211.34,237.89,211.25,237.39,210.83Zm2.87-12.42c1-.18.51,1.38,1.19,1.59C240.66,200.94,239.92,199.6,240.26,198.41Zm23.39,20.09c-1.94.35-1.38-1.83-.72-2.64A2,2,0,0,1,263.65,218.5Zm2-102a35.72,35.72,0,0,1-2.25,13,27.71,27.71,0,0,1-6.47,9.94,29.23,29.23,0,0,1-10.13,6.38,39.33,39.33,0,0,1-26.28,0,29.23,29.23,0,0,1-10.13-6.38,28.21,28.21,0,0,1-6.51-9.94,34.89,34.89,0,0,1-2.31-13V75.86a2.32,2.32,0,0,1,.7-1.71,2.29,2.29,0,0,1,1.7-.7H219.1a2.32,2.32,0,0,1,1.7.7,2.36,2.36,0,0,1,.7,1.71v40.68a14.67,14.67,0,0,0,1.26,6.48,11.33,11.33,0,0,0,3.12,4,11.87,11.87,0,0,0,4,2.06,12.52,12.52,0,0,0,7.66,0,11.21,11.21,0,0,0,3.94-2.06,11.58,11.58,0,0,0,3.07-4,14.66,14.66,0,0,0,1.27-6.48V75.86a2.35,2.35,0,0,1,.69-1.71,2.32,2.32,0,0,1,1.7-.7h15.1a2.28,2.28,0,0,1,1.69.7,2.32,2.32,0,0,1,.7,1.71ZM267,17v-.47c.59-.25,2.64-.3,2.55.31C269.31,17.27,267.58,17.31,267,17Zm3.4,6.89c-.4-.7.48-1.5,1.42-.94C271,23.11,271.65,24,270.41,23.93Zm2.83-20.81c.79-1.31,2.11.59,0,0Zm.85,7.35c0,.25,0,.54-.56.47C273.51,10.67,273.75,10.54,274.09,10.47Zm2.93,202a3.65,3.65,0,0,1-2.63.79c-2.21-2.35.27-7.08,2.39-4.75C277.43,209.17,277.37,211,277,212.42ZM481.3,9.89a3.54,3.54,0,0,1-.88-.93.93.93,0,0,1-1.07-.51C480.5,8.53,481.28,9.08,481.3,9.89Zm-.62-4.12a3.05,3.05,0,0,1-1.41,0C478.81,5,481.14,5,480.68,5.77Zm-4,1.88c-.69-.27-.57-.89.57-.94C477.72,7,477.79,7.79,476.71,7.65Zm.57-3c-.5.32-1.32.47-1.76.83-.59-.51-1.27-.92-1.89-1.4a1.93,1.93,0,0,0,0-.53A13.7,13.7,0,0,1,477.28,4.68Zm-1.42,23.16.17-.05a1.22,1.22,0,0,0-.28.57C475.68,28.19,475.72,28.19,475.86,27.84Zm-2.73-2.69a1.47,1.47,0,0,1,.74-.65c0-.17.07-.32.11-.48a3.83,3.83,0,0,1,1.88.84A5.22,5.22,0,0,1,473.13,25.15Zm.15-18.42h.09c1.29.34,1.44.86,1.07,1.37-.84.11-1.7.22-2.68.29A3.67,3.67,0,0,1,473.28,6.73Zm-7.73-.47a2.08,2.08,0,0,0,.32.4l-.21,0C465.4,6.57,465.31,6.35,465.55,6.26Zm.11,4.52c1.41-.13,3.78.92,4.25-.15a14.33,14.33,0,0,1-2.83-.63c0-.8-.6-1.36.57-1.72a11.07,11.07,0,0,1,2.41,1.21c-.06,1.34,1.75,1.38,2.17,2.4a2.17,2.17,0,0,1,.7.08l.67.69c-.91.28-2.67.09-2.27,1.1.29,0,.34.12.57.15a14.42,14.42,0,0,1,3.28-.32,7.72,7.72,0,0,0,.54.89l.17.12a41.42,41.42,0,0,1-5.33.51c-.1-.12-.21-.23-.32-.34.24-.25.89-.28.81-.7-2.05-.25.21-1.91-2-2-1.1,0-.88.65-1.94.63l-.24-.1c-.27-.8-1.07-1.06-1.71-1.48A2.33,2.33,0,0,1,465.66,10.78Zm4.54,21.28c.88-.07,1.26.14,1.13.63C470.55,33.17,469.31,32.49,470.2,32.06Zm-1.71-1.25c-.18-.45.23-.57.3-.88A1.43,1.43,0,0,0,470,29.5c.57.37,1.55.5,1.05,1.47A17.9,17.9,0,0,1,468.49,30.81Zm2-2.11a1.94,1.94,0,0,0,.09-.48.82.82,0,0,0,.77-.23c.17-.55-.32-.42-.33-.79a1.67,1.67,0,0,0,.87-.11c.06.42.53.62.56,1.06A4.93,4.93,0,0,1,470.5,28.7Zm-3.42,2.11c-3,1-1.66-1.57-.57-2.19a2.72,2.72,0,0,1,1-.13,1,1,0,0,0,.43.4.94.94,0,0,1,.11.68l.06,0a1.66,1.66,0,0,0-1.35.26C466.59,30.35,467.29,30.33,467.08,30.81Zm-4.53,4.38c1-.23,2.54-.16,2.55-.94a3.38,3.38,0,0,1-1.42-2.81c1.66.12,1.27,1.38,4,.94,2.28,1.35.33,2.33-.57,3.59-.28.39-.13,1-.29,1.1-.87.72-3.26,1.45-4.53.47.89.07.8-.4,1.13-.63C462.93,36.44,462.28,36.07,462.55,35.19ZM462,38v.62a3.49,3.49,0,0,1-1.7,0C459.89,37.89,461.31,37.69,462,38Zm-2.84-13c1.06-.06,1.67.13,1.71.63a3.08,3.08,0,0,1-2,0C458.8,25.35,459.18,25.3,459.14,25Zm-.84-3.6c.49.32.53,1.34-.86,1.1C457.48,22,457.16,21.32,458.3,21.42Zm-.57-5c1,0,1,.8,0,.78ZM457.5,20c.52,0,.91.18.8.49a1.87,1.87,0,0,1-1.29.31A3.51,3.51,0,0,0,457.5,20Zm-.62,7.53c.5.51,1.15.93,1.13,1.73A2.72,2.72,0,0,1,454.33,28,5.78,5.78,0,0,1,456.88,27.52Zm-1.73-4.89a2.74,2.74,0,0,0,.59,0c.16.94-.63,1.12-1.42.9A7.26,7.26,0,0,1,455.15,22.63Zm-5.36-1.05a2.21,2.21,0,0,1,.57.07,3.3,3.3,0,0,0,.53.46c.22.55-.11,1.39,0,2-1.07.31-1.84-.15-3.12-.15C449.56,23.47,449.75,22.7,449.79,21.58Zm-1.41,3.75c1.76.39,1.83,1.7,4.25,1.73-1.18,1.54-4.16-.11-5.11-.63A2,2,0,0,1,448.38,25.33Zm-3.75-2.71-.23,0c-.1-.54-.61-.66-.89-1A2.67,2.67,0,0,1,444.63,22.62ZM441.89,32c1.43-.72,1.91-2.44,2.83-3.69.08.72.16,1.44.82,1.83,1.28-.13,1.47-.85,2.55-1.09,1,0,1.27.45,2.27.47s.44-1,1.7-.94c1.27,1.46-2.68,1.31-3.4,2.19.85.21.11,1.29,1.13,1.41,1.55-.91,3.66-.56,5.39-1.25a5.51,5.51,0,0,0,.85,1.56c-1.17.24-1.57.91-2.84,1.1-1.36-.24-1.94-.91-3.68-.94-.05,1-2.13.91-2.83,1.56a41.54,41.54,0,0,1,4,1.41c1.36.05,2.38-.4,3.12.16a2.39,2.39,0,0,0-.28,2.19h-3.69c-1.7-2-7-2.22-5.38-5.63a5.79,5.79,0,0,0-2.52-.09Zm13.29,7.06c.45.24.21.64-.29.78C455.05,39.66,454.56,39.08,455.18,39.1Zm-13.29-6.38v-.15c1,.19,1.54,1,.82,1.53a2.47,2.47,0,0,1-1.52-.63A8.28,8.28,0,0,1,441.89,32.72Zm-1.61,2a3.28,3.28,0,0,1,1.58,0c.61,1.58-1.87,2.1-2.29,1Zm-.69-17.8a2.11,2.11,0,0,1-.28.67l0,0c-.22-.17-.51-.07-.76-.23a1.63,1.63,0,0,1-.42-.41C438.75,16.78,439.29,16.68,439.59,16.88Zm-5.95,8c.09-.62-.51-.86-.28-1.56l.58-.07A15.1,15.1,0,0,1,436.1,25c.67.11,1.18.36,1.32.79.58,1.8-1.81,2.56-2.05,4-.73-.37-.66-1.2-.6-2a15.82,15.82,0,0,0-1.91-.44.84.84,0,0,0,.3-.49c0-.69-.63-1-1.42-1-.16-.19-.3-.39-.47-.57C432.2,25.14,433.55,25.35,433.64,24.86Zm1.33,5.3a.87.87,0,0,1-.83.42c-.07.14-.16.27-.24.41a6,6,0,0,0-1.39-.18V29.56A8.37,8.37,0,0,0,435,30.16Zm-3-1.55a2.85,2.85,0,0,1-.27.32h-.08C431.7,28.81,431.82,28.71,431.93,28.61Zm.58-6.41,0,0,.48.36c-.29.54-1.61.74-2.23.56C430.51,22.35,432.07,22.59,432.51,22.2Zm-2,13.61h-.85a2.6,2.6,0,0,1-.28-3C432.53,33,429.7,35.21,430.52,35.81ZM430,39.26v.31h-.57v-.3H430Zm-.29-7.89a1.4,1.4,0,0,0,.55-.4h0c.29.2.28.57.56.78a4.47,4.47,0,0,1-1.67.77,2.16,2.16,0,0,1,.43-.36C429.5,31.8,429.75,31.76,429.67,31.37Zm.41-7a1.11,1.11,0,0,1,.38.4l-.25,0A.49.49,0,0,0,430.08,24.34Zm1.36-3.14.09.09c-2.06.45-4.79-.52-3.27-1.43C429.68,20.11,430.26,20.82,431.44,21.2Zm-1.66-7.74a1.19,1.19,0,0,0,.25-.13,1,1,0,0,1,.49.89,8.34,8.34,0,0,1-1.31.47,6.37,6.37,0,0,0-1.18.12l-.12,0h-.51a3.46,3.46,0,0,1-.79-.93A17.56,17.56,0,0,0,429.78,13.46Zm-6.06,4.83v.47h-.2l-.62-.47C423.15,18.28,423.48,18.31,423.72,18.29Zm-3,8.17.53.35c-.22-.07-.43-.14-.62-.22ZM420,28.62c1.38,0,1.14.83,1.13,1.56l.48,0a1,1,0,0,1-.06.37l-.08.09a5,5,0,0,0-1.75-.64C419.74,29.36,419.16,29,420,28.62Zm-.85,3.29h-1.42C417.45,31.15,419.61,31.06,419.19,31.91Zm-.61,2.15a.83.83,0,0,1-.07.13l-.17-.09Zm-1.94-9c.92,0,1.36.19,1.41.63-.22,0-.33.13-.28.31h-1.13A.52.52,0,0,1,416.64,25Zm.85,7.36a2.54,2.54,0,0,1-1.77.52,2.26,2.26,0,0,0,.78-1.2A2.55,2.55,0,0,1,417.49,32.38ZM414.88,22c.43.4.9.76,1.37,1.12a5.17,5.17,0,0,1-2.73,0A2.66,2.66,0,0,1,414.88,22ZM413,23.77c-.35,0-.39.19-.82.16l-.11-.15C412,23.53,413.05,23.51,413,23.77Zm-7.65,9.39c.11,1.08-2.86.8-3.12,0A6.85,6.85,0,0,1,405.3,33.16Zm-4-5a3.52,3.52,0,0,0-.52.19c-.17-.13-.34-.25-.5-.35-.36-.21-.82-.07-.77-.56-.34.05-.38-.21-.76-.12-.51-.49-1-1-1.5-1.5a3,3,0,0,1,1.22-.16C400.75,25.81,399.72,27.43,401.33,28.15Zm-3,161.28a5.55,5.55,0,0,1-1,2.91,2.94,2.94,0,0,1-2.15-.79C395.51,189.85,396.67,188.2,398.29,189.43Zm-4-170.36c.64-.08,1-.3,1.15-.67a17.78,17.78,0,0,1,2.84-.15,2.61,2.61,0,0,1,1.07,1.26,12.92,12.92,0,0,0-2.34.2,1.57,1.57,0,0,0-.45-.17c-2.17,1-.77,2.12.8,2.26a2.26,2.26,0,0,0,.48.45,1.84,1.84,0,0,0,.87.22,10.55,10.55,0,0,0,1.4,1.58,4.93,4.93,0,0,1-3,.35c-.77-.73.17-1.2.57-1.73-1-.69-1.79.16-3.4,0C392.81,21.65,395.3,20.45,394.25,19.07Zm1.41,152.39a.9.9,0,0,1,.24,1.33C395.38,172.83,395.79,171.85,395.66,171.46Zm0-147.85a1,1,0,0,0-.53.51A6.81,6.81,0,0,0,394,23.6c0-.41-.44-.39-.6-.65C394.47,23,395.52,23.17,395.67,23.61ZM392,31.44c.27.47,1.38.49,1.42,1.09C391.83,33.48,390.17,32,392,31.44Zm-4.53-1.1c3.73-.2.36,1.66,0,0Zm0,3.13c-1,.24-2.7.54-2.84-.31C385.32,32.78,387.32,32.71,387.45,33.47ZM386.6,36a3,3,0,0,1-1.14.16C385,35.69,386.69,35.7,386.6,36Zm-4-11.89a13,13,0,0,0,3.14,1.73c0,.09.09.17.13.27h.47l.72.31a.43.43,0,0,0,0,.07c-.87,1-3.2.22-4.78,0C382.58,25.48,380.45,24.27,382.63,24.08ZM380.93,28c.24.13.78,1.23-.28,1.1C380.15,28.82,380.33,28.12,380.93,28Zm-1.7-5.32c1.14-.15,1.14.94,0,.79C379.2,23.07,378.7,23,379.23,22.67Zm-1.08-4.59a.24.24,0,1,1,0,.45C378,18.31,378.16,18.39,378.15,18.08Zm-.87.22c.16.25.07.75.32.91s.33-.2.66-.12a3.71,3.71,0,0,0,.2,1.07c-.4-.37-1-.59-1.5-1.09-.32-.3,0-.6-.28-.78-2.41-1.71-6.41-2.24-2.55-3.75a3.89,3.89,0,0,1,.71,0,2.87,2.87,0,0,1,0,.8C376.1,15.92,376.15,17.67,377.28,18.3ZM375,11.41c.66.52-1.59.51-.85,1.56a9.41,9.41,0,0,1,2.25-.09.84.84,0,0,1-.19.47,2.49,2.49,0,0,0-1.14.51c-1.49-.27-1.95-1.11-4-1C371.19,11.79,374,11.46,375,11.41Zm-7.37,2.5a10.6,10.6,0,0,1,4,0c.31.45-1.07,1.13-2,1.41C369.29,14.65,367.47,14.83,367.61,13.91Zm1.7,3.91c-.3.76-2.8.56-2.27-.47C368,17.12,369.35,17.12,369.31,17.82Zm-.57-8.13a2.3,2.3,0,0,1,2.27,0C371.18,10.7,368.65,10.64,368.74,9.69Zm-1.41-8.14c3.34-.23,4.82.57,7.37.78.49.77.65,1.73,2.55,1.72a1.37,1.37,0,0,1-.85,1.72,4.78,4.78,0,0,1-3.12-1.4c-2.08-.62-4.73-.12-6.52.31.76.83,4,.31,4.82,1.09H367.9a1.57,1.57,0,0,1-1.42.94c-.48-.26-.23-.91-.28-1.4-.61-.19-1.59-.17-2-.47C366,4.16,365.8,2.38,367.33,1.55Zm-1.7,5.32V7.5c-.7,0-1.38,0-1.42-.32C364.75,7.12,364.72,6.74,365.63,6.87ZM364.49,12c.56-.21,1.62-.15,2.27-.31,2.72,2.1-5.08,1.83-4.25,4.38a2.29,2.29,0,0,0-.85.16A2.76,2.76,0,0,1,360,15C361.43,14,364.49,13.86,364.49,12Zm-3.21,173.44c-.11-2.22,1.88-3,2.87-1.32C363.77,185.12,362.53,186.3,361.28,185.47Zm3.11,9.51c0,.31.05.47.24.53-.05.74-.42,1.13-1.2,1.06a1.44,1.44,0,0,1,0-1.59Zm-1-167.46c-.25-.48-.95-.72-1.13-1.25.37-.16,1-.15,1.41-.31a1.9,1.9,0,0,1,.85,1.41C364,27.33,363.87,27.54,363.36,27.52Zm-9.92-5.79a9.49,9.49,0,0,1-2.55,1.88C348.15,22.67,350.51,20.55,353.44,21.73Zm-3.68-5.47a4.53,4.53,0,0,1,3.4-.47C353,16.91,349.91,18.15,349.76,16.26Zm3.12,8c-.21.58.48.67.28,1.25-.41,0-.48.26-.85.31C351.9,25.29,351.21,24.25,352.88,24.24Zm.28-.47a12.94,12.94,0,0,1,4-.94c-.46-.63-.58-1.45-1.7-1.72-4.17.46-4.42-1.23-3.4-2.5,1.69-2.14,9.51-2.1,11.05.15.46.68.1,1.53.28,2.82-.46.27-1.78.06-1.7.62s1.12.85.85,1.73c-.66.37-1.39,0-2.27,0-.87.35-.26,1.52-.85,2C357.18,25.31,355.56,24.32,353.16,23.77Zm5.1-10.33c.94,0,1.84.63,1.13,1.1C358,14.63,357.77,14,358.26,13.44Zm0-3c1.17-.6,3.74.76,2,1.25C359.88,11.14,357.9,11.45,358.26,10.47ZM360,5.62c.28.89-1.82,1.28-1.13,1.88.49-.14,1.09-.35.56-.63a10.18,10.18,0,0,1,2.84.16c-1.48,1.07-3,2.91-5.39,3-.33-.42.55-.92,0-.94-2-.14-2.13-1.33-2.83-2.19C357.7,7.52,357,4.38,360,5.62Zm-5.67,4.85A2.27,2.27,0,0,1,352,11.88c.17-1,0-1.86-1.14-2.19C353.06,9.38,352.78,10.42,354.29,10.47Zm-5.1,2.5a7.07,7.07,0,0,0,3.4-.15,14,14,0,0,1,1.7.62c.13-.45.6-.71,1.42-.78a2.74,2.74,0,0,1,1.7.78,6.38,6.38,0,0,1-1.42.78c.17.33.71.45.57.94-1.62.83-2.59-.81-4.25-.94a4.47,4.47,0,0,1-1.7.32C349.69,14.31,348.3,13.7,349.19,13Zm-2.55-.78v.47h-.85C345.74,12.32,346,12.16,346.64,12.19Zm3.12,7.35c-1.23.53-1.68,1.48-3.69,1.57.08-.46-.64-.48-.56-.94C346.7,20,348.72,18.31,349.76,19.54Zm-1.7,7.2c-1.6,0-1.15-1.14,0-1.25C348.24,25.85,348.62,26.43,348.06,26.74Zm-3.12-2.34c-1.23.05-.7-.87-2-.79a3.69,3.69,0,0,1-1.7.79c-1.13-.83.36-2.1,1.41-2.67C344,22.27,345.76,23.17,344.94,24.4Zm-3.68-7.67a10.91,10.91,0,0,1,2.55,2C341.21,19.62,340.32,17.86,341.26,16.73ZM339.84,20a5.24,5.24,0,0,1,2.55,0c0,1-1.51,1.15-2.55,1.57C339.29,21.23,339.59,20.4,339.84,20Zm-6.52-6.88h.57v.31h-.57Zm-1.7,13c1.61-.06,1.14,1,2.27,1.25a6.88,6.88,0,0,1-2.27-.16ZM326.24,5.93c1.6.55-1.33,1.53-1.42.31C325.36,6.18,325.33,5.8,326.24,5.93Zm2.83,23c-.21.48.49.46.28.94a3.72,3.72,0,0,1-4.81-1.41C325.91,28.12,327.69,28.77,329.07,28.93ZM320.85,3.58h.57V3.9h-.57Zm-3.4,17.69a2.7,2.7,0,0,1-2.26,0C315.15,20.51,317.57,20.42,317.45,21.27ZM314.9,2.18a1.17,1.17,0,0,1-.85-.16C313.65,1.42,315.46,1.91,314.9,2.18Zm-1.41,3c.44.23.41.89-.57.78C312.47,5.7,312.5,5,313.49,5.15Zm-1.14,1.72c.54,0,.63-.18,1.14-.16.89.35.59,1.47,0,1.88l-.29.08-.28.08C312.66,8.2,311.63,7.47,312.35,6.87Zm-1.41,2.82a3.7,3.7,0,0,1,2-.63L313.2,9l.29-.08c2,1.06-.56,3.7,1.7,4.54-1.35.46-2,1.3-4,1.41-.41-.71-.26-1.74-.57-2.5C313.28,11.86,311.22,10.17,310.94,9.69Zm0,5.47a7.64,7.64,0,0,1,3.11.47c.42.84.49,1.93-.28,2.35C311.25,19.36,308.31,16.56,310.94,15.16Zm2.83,14.24c-.36,0-.39.2-.85.16a.94.94,0,0,1,0-1.72C314.17,27.79,314.32,29,313.77,29.4ZM301.87,5.62c-2,.08-1.89,1.35-3.12,1.88C297,6.05,300.54,4,301.87,5.62Zm-4.54,8c-.78-.48-1.45-1.78.85-1.57C298.88,12.57,298.22,13.44,297.33,13.6ZM297.05.92h.85c.05.35-.23.5-.85.47Zm-6.24.47c1.81,0,2.29.72,3.69.94a7.69,7.69,0,0,1,1.7-.47c.05.45.52.66.57,1.1-1.49.7-3.49,3.47-5.39,1.56-1.81.12-2.86-.19-3.4-.78A8.42,8.42,0,0,0,290.81,1.39ZM287.7,8A4.22,4.22,0,0,1,290,8c-.12.29-.1.67-.85.62C288.91,8.24,287.5,8.55,287.7,8ZM278,202.91a1.28,1.28,0,0,1,1.91,0C280,204.33,278,204.19,278,202.91ZM289.67,190c-1.16.27-2.66,1.36-3.82.79.57-1.78,2.22-4.33,4.06-2.37C290.09,189.18,289.5,189.15,289.67,190Zm4.06,26.69h-.48v-.53h.48Zm-1.91-21.93v-1.85c.35-.41,1.22-.24,1.91-.27C292.78,193,293.17,194.8,291.82,194.72Zm6.92,7.66c.88.7,2.14,1,2.15,2.64-.5.52-1.58.2-2.15,0C298.53,204.37,298.28,203,298.74,202.38Zm1.2,8.19c-.8-1.92,0-4.88,2.14-3.44A14.18,14.18,0,0,1,299.94,210.57Zm1.19-8.46c-.89-1-2.15-3.1-1.19-4.49.7.2,1,.8,1.43,1.32,1.08.14.64-1.41,1.67-1.32C303.73,199.68,302.25,201.22,301.13,202.11Zm3.34,16.12c-.52.05-.76-.21-.72-.79h.72Zm-1-13.47c-.07-.78.54-.81.47-1.59,1.7.16,2.07,1.76,3.11,2.64C306.22,207.89,304.52,205.07,303.52,204.76Zm2.14-11.1c.48.52.16,1.51,0,2.11C304.7,195.59,304.32,193.62,305.66,193.66Zm4.06,4.23c-1.4,0-.82-1.77-.47-2.65.31.1.37.47.71.53C310.13,196.75,309.55,196.91,309.72,197.89Zm.48,4.22c-2.46,2-4.46-1.57-2.15-3.17A12.29,12.29,0,0,1,310.2,202.11Zm-.24,10a2.27,2.27,0,0,1-2.86-.79C307.22,208.17,309.86,210.26,310,212.15Zm2.15,5.29a1.38,1.38,0,0,1-1.19-1.32,10.08,10.08,0,0,1-1.44,1.06,3.13,3.13,0,0,0-2.86-.27c-.75-1.23.42-2.26,1.19-2.64.75-.13.94.38,1.44.53,1.4-.22,2.21-3,3.58-1.59.11.83-.34,1-.48,1.59a6,6,0,0,1,1.19,1.32C313.15,216.65,312.9,217.35,312.11,217.44Zm-3.1-10c-.85-2.15-.65-5,2.86-4.23.95-.45,1.05-1.84,1.44-2.91a6.93,6.93,0,0,1-3.35-1.58c2-.93,3.39-2.6,5.25-3.7.5.87,0,2.84.72,3.43.74.05,1.35-.62,1.91,0,.22,1.49-.61,1.8-.72,2.91s1.05.61,1.44,1.06c-.16,2.18.15,3.6-.24,4.75C317,211,310.43,211,309,207.4Zm8.59-13c.16-.88.74-1.29,1-2.11.42,0,.5.32.95.26a4.53,4.53,0,0,1-.71,2.38C318.48,194.71,317.91,194.72,317.6,194.45Zm-3.34,21.67c-.41-.9-.22-2,.95-1.85A1.21,1.21,0,0,1,314.26,216.12Zm7.16,2.91c-.55-.28-1.44-.17-1.91-.53,0-3.08-2.58-3.31-3.82-5a3.46,3.46,0,0,1,1.43-2.12,1.09,1.09,0,0,0,.72.27C317.14,215.94,323.71,215.47,321.42,219Zm2.15-10.31c0,1.19-1.15,1.19-1.91.79C321.21,207.78,323.31,207.44,323.57,208.72Zm1.91,6.61a4.58,4.58,0,0,1-3.34,0c-.12-1.55,1.41-1.26,1.66-2.38C324.58,213.41,325.74,214.56,325.48,215.33Zm3.82-18c0,.83,1,3.32-.48,4,0,1.14,1.19,1,1.19,2.12-1.3.14-.94,2.12-2.62,1.84.07-2.75-.84-5.91-2.39-5.81-2.37.16-.58,4.67-1.91,6.08a18,18,0,0,0-3.82-2.64c.55-.54-.07-2.37.48-2.91,1-.26.69,1,1.43,1.06.87-.63,2.19-.75,2.39-2.12.1-1.17-1.39-.57-1.43-1.58.4-1.32,1-2.37,2.38-2.64.11.23.21.47.48.52.17,1.42-1.18,1.16-1.2,2.38,2.93,1.42,3-4.29,6.93-3.43a16.2,16.2,0,0,1,.95,3.43C331.08,198.26,329.56,198.43,329.3,197.36Zm-.48-12.42c-1.82-1.32-.44-4.52,2.15-2.64C331.59,184.17,330.15,185.9,328.82,184.94Zm2.15,2.38c-.75.12-.86-.67-.48-1.06C330.91,186.32,331,186.72,331,187.32Zm-2.39-.53c-.08.35-.42.41-.48.79-.42-.06-.54-.45-.47-1.05C328.12,186.41,328.26,186.71,328.58,186.79Zm2.63,2.91c0,2-1.61,2.27-1.68,4.22-.54-.36-.92-.91-1.43-1.32-.63.5-1.86,1.74-2.62.53-.07-.95,1-.6,1.43-1.06C327.81,190.78,329.17,188.08,331.21,189.7Zm.71,10.83c-.44-.5,0-.66,0-1.32C332.88,199,332.88,200.79,331.92,200.53Zm1.44-9a1.4,1.4,0,0,1-.24-1.85C334,189.48,333.56,191.32,333.36,191.55Zm1.43,6.6c-1.84-.31,0-2.36-.24-4,1.35-.43,3.34-1.8,4.06,0A18.42,18.42,0,0,0,334.79,198.15Zm4.06-15.85c-.11,1.28-1.79,1.17-2.39.53C336.58,181.38,338,181.89,338.85,182.3Zm-1.67-4.5c.49-.11.63.19.95.27C338.2,178.54,336.79,178.54,337.18,177.8Zm1.67,9.78c.3-2.8,3.14.34,0,0Zm.71,8.46v-1.85c.77.73,2.56.34,2.63,1.85C341.69,196.85,340.12,196.63,339.56,196Zm4.3-12.16c0,1-1,1-1.19,1.85C341.14,184.84,342.53,182.28,343.86,183.88Zm-1.67,15.86c0-.31-.05-.47-.24-.53.38-1.87,1.75-2.64,3.1-3.44.61.39-.27,2.21.72,3.17C345.57,200.2,343.25,200.29,342.19,199.74Zm6-4.23c-1.2.18-2.3-1.33-2.63-3.17.79-.45,1.53-.16,2.39,0,.67-.23.51-1.38.95-1.85.9-.12,1.12.52,1.67.79C349.19,192.49,350.05,195.23,348.16,195.51Zm.95-9.25c0-.52-.65-.33-.48-1.06a1.76,1.76,0,0,1,1.91.27C350.55,186.27,349.71,186.13,349.11,186.26Zm2.15-3.43c.22-1.35,2.72-1.84,2.62,0A3,3,0,0,1,351.26,182.83Zm8.35,15.58c.39-.07.41.26.72.27C360.43,199.19,359.24,199.07,359.61,198.41Zm.71-51.54H345.23a2.32,2.32,0,0,1-1.7-.7,2.36,2.36,0,0,1-.7-1.71V112.12c0-.67-.3-1-.9-1.1a1.56,1.56,0,0,0-1.51.7L323.5,138.94a1.74,1.74,0,0,1-1.61.8,2,2,0,0,1-1.71-.8l-16.91-27.22a1.38,1.38,0,0,0-1.42-.7c-.6.06-.9.43-.9,1.1v32.34a2.36,2.36,0,0,1-.7,1.71,2.3,2.3,0,0,1-1.7.7H283.46a2.39,2.39,0,0,1-2.4-2.41V75.86a2.39,2.39,0,0,1,2.4-2.41h14a4.37,4.37,0,0,1,2.1.6,4.15,4.15,0,0,1,1.6,1.41l19.33,28.32a1.75,1.75,0,0,0,1.41.81,1.5,1.5,0,0,0,1.31-.81l19.33-28.32a5.15,5.15,0,0,1,1.7-1.41,4.37,4.37,0,0,1,2.1-.6h14a2.39,2.39,0,0,1,2.4,2.41v68.6a2.32,2.32,0,0,1-.7,1.71A2.29,2.29,0,0,1,360.32,146.87Zm2.4,55.24a3.27,3.27,0,0,1-1.91-2.37,2.37,2.37,0,0,1,2.62.26C363.26,200.78,363.37,201.86,362.72,202.11Zm1.43,3.17c-.55-.08-1.12-.17-.95-1.05a1.08,1.08,0,0,1,1.43,0C364.8,205,364.15,204.76,364.15,205.28Zm.24-20.34h1.19C365.94,186.37,364.12,186.21,364.39,184.94Zm.48-3.7c1-1.38,3.5,1.34,1.91,2.91C365.19,184.22,366.19,181.45,364.87,181.24Zm1.43,24.57c-.59-1.19-.27-1.56,0-2.9a22.86,22.86,0,0,0,2.62.79V205A4.19,4.19,0,0,1,366.3,205.81Zm3.1,2.12c-.42-.06-1.19.26-.95-.53a1.26,1.26,0,0,1,.95-.27Zm-1.19-9.25c-.09,1,.22,2.53-.24,3.17-1.91.09-2.28-1.53-2.63-3.17,2.41-.27,2.25-2.53,1.44-4.76.69-.64,1.76-.86,2.14-1.85a13.9,13.9,0,0,1,2.15,2.12C370.61,196.23,369.83,197.92,368.21,198.68Zm.24-8.72c.09-1,1.74-.18,1.91-1.06.54.5-.32,1.73-1.44,1.85C368.72,190.54,368.78,190,368.45,190Zm-1.2-2.11c0,1.24.21,2.69-.95,2.64-.74-.63-.25-1.25-.24-2.38,2.29-.81,2.54-3.88,4.06-5.55C373.14,184.1,369.37,187.79,367.25,187.85ZM369.6,24.4c0,.72,1.61.56,1.41,1.4a.81.81,0,0,0-.57.32,3.39,3.39,0,0,1-2.83-1.57c.05-.6,1.82-.24,1.7-.94s-1.81-.88-2.83-1.25c-.88,0-.48.78-1.7.63-.65-.32.08-1.4-.57-1.72a28.87,28.87,0,0,0,4.53-1.57c1.58.84-.55,3.51,2.27,3.6,1.84.06,2.92-1.81,2.84-3.44,2-.17,1.57,1,3.11,1.09,0,.68-1.41.58-1.41,1.25,1.79.38.53,1.86.56,2.35.32-.63,2.12-.53,2.84-.15a6.47,6.47,0,0,1-1.14,2C373.13,26.93,373.07,23.56,369.6,24.4Zm5.95,7.51c1.57-.58,3.29.45,2.55,1.56C375,34.58,373.38,32.69,375.55,31.91ZM374.13,31c-.08-.36.07-.59.57-.63.06.22.46.26.56.47A3.11,3.11,0,0,1,374.13,31Zm4-.47c.08.35-.07.59-.57.62C377.08,30.89,377.21,30.42,378.1,30.5Zm-4.82-2.82c-.46-.27-1.78-.06-1.7-.62.9-.72,2.36,0,3.12.31.6-.24,1.05-.57,1.7-.78.08,1.15,2,1.3,2,2.5C376,30.05,374.35,28.45,373.28,27.68Zm-1,184.74c-.83.2-1.14-.15-1-1.06h1Zm.82-79.11a10.53,10.53,0,0,1,2.21-3.21,10.33,10.33,0,0,1,3.26-2.21,9.82,9.82,0,0,1,4-.8,10.36,10.36,0,0,1,7.33,3,10.71,10.71,0,0,1,2.21,3.21,9.51,9.51,0,0,1,.8,3.92,10.33,10.33,0,0,1-10.34,10.35,9.82,9.82,0,0,1-4-.81,10.17,10.17,0,0,1-3.26-2.21,10.06,10.06,0,0,1-2.21-3.31,10.17,10.17,0,0,1-.81-4A9.52,9.52,0,0,1,373.09,133.31Zm11.59,46.87a1.61,1.61,0,0,1-1.91-.26C382.2,176.36,385.3,177,384.68,180.18Zm-10.5,3.18a8.14,8.14,0,0,1,.24-5h.71C374.42,179.34,376.83,183.06,374.18,183.36Zm1.19,1.84c-.24.35-.23,1-.48,1.33-1.67.09-1.9-1.42-2.15-2.91A3.13,3.13,0,0,1,375.37,185.2Zm-1.19-12.68V172h.47v.53Zm-1.44,16.65c1.59-.26,1.62,1.2,3.35.79.36.75.71,1.81,0,2.38-1-.08-1.72-.39-1.67-1.59-.69,0-1.57.15-1.92-.26A1.89,1.89,0,0,1,372.74,189.17Zm4.54,12.15-.24-.13-.24.13c-.37-.65-1.68-.25-1.43-1.58A1.43,1.43,0,0,1,377.28,201.32Zm.24.79-.36-.13-.12.4c-.23,0-.19-.33-.24-.53l.36.13.12-.39C377.51,201.59,377.46,201.91,377.52,202.11Zm-1.43.8c-1.13.6-1.6,1.93-2.87,2.37C371.92,203.72,374.34,202,376.09,202.91Zm-1.91,8.45c-.37-1.09-1.39-1.46-1.68-2.64a3,3,0,0,1,2.39-.79,3.81,3.81,0,0,0,2.15,2.38C376.66,211.3,375.5,211.42,374.18,211.36Zm5.25-.79c-.37-2.32-1.88-3.38-3.82-4,.53-1.18.29-3.21,1.67-3.44v-.53l.24.14.23-.14c1.57.33,1.41-1.26,1.92-2.11v.26h.23c.49,1.05.06,3.12.72,4-.66.67-2.56,0-2.39,1.58,2.66.06,4.25,1.3,4.54,4C382.23,211.05,380.76,209.42,379.43,210.57Zm2.86-7.13c.88-1.89-.61-2.07-.48-3.18.4-3.35,5-2.81,5.26-.26C387.25,201.82,384.25,205,382.29,203.44Zm5.49-15.59c-1.06,1.28-.35,4.54-1.19,6.07-1.12.52-2.3,1-2.39,2.65a7.28,7.28,0,0,1-2.86-.27c-1.21.52-.32,3.36-1.44,4l-.11-.13-.12-.13a13.79,13.79,0,0,1-2.15-.53c-.19-1.17.32-1.58.23-2.64-.08-.88-1.37-.42-2.14-.53-.78.29-.35,1.91-1.67,1.59-.13-1.28.39-2.39-.24-4,1.64-.65,3.58-1,5-1.85-.06-1.65-.16-3.34,1-3.69-1-1.24-2,.1-2.87.52v-2.11c2.82-.14,2.8-3.42,4.54-4.76.34.68.39,1.68,1,2.12,1.74-.19,1.46-2.61,3.1-2.91a1.74,1.74,0,0,1-.95,2.64c.08.86,2,.61,2.39.27-1.34-5.77,3.1-6.1,4.53-9.52h3.11a7.57,7.57,0,0,0,.24,3.7c-.63.95-1.48.18-2.63.27a26.54,26.54,0,0,1-3.34,2.38c.59,1.1,2.35.92,2.38,2.64,1.47-.05,2-1.18,3.11-1.59,1.06.32,1.4,1.45,2.39,1.85a14.22,14.22,0,0,0-.72,2.65c-1.45-1.18-3.24-.59-4.54-2.12-.86.2-.24,2-.95,2.38.6,1.48,3.93,1.23,2.86,3.7-1,.11-.51-1.54-1.43-1.59s-1.07.76-1.91.8C389,189.29,388.86,188.07,387.78,187.85Zm2.87,18.49h-.48v-.53h.48Zm.71-4c0-1.9-.19-3.19-1.67-4,1.08,0,1.73-.78,2.63-.26C392.12,199.69,392.93,202.35,391.36,202.38Zm1.2,4.23a1.33,1.33,0,0,1-.24-.8c.45-.51.87-.08,1.43,0C393.53,206.28,393.31,206.73,392.56,206.61ZM390.17,196a4,4,0,0,1-.72-1.85c.8-.89,3.31-3.67,4.3-1.06C391.71,193.17,391.65,195.39,390.17,196Zm6.21,4.49c-1.22,0-1.4,1.1-2.39,1.32C393.43,199.52,396.65,197.2,396.38,200.53Zm0,4.23c-.07-1.17,1.75-1.38,2.15-.53C398.75,205.42,396.81,205.1,396.38,204.76Zm1.67,6.34v-1.32C398.91,209.73,398.91,211.14,398.05,211.1Zm.48-8.46c-1,.18-.69-1-.72-1.85C399,200.39,398.94,202.11,398.53,202.64Zm.71-6.07c0-.48-.29-.56-.24-1.06a1.37,1.37,0,0,1,1.67,0C400.64,196.35,400.13,196.67,399.24,196.57Zm2.39-21.94c-.56.55-1.76.2-1.43-1a1.51,1.51,0,0,1,1.43,0Zm1.19,1.86c-.28-.4-.2-1.19-.95-1.06,1.07-1.65,3.08-.43,3.82.79.13.22,0,1.2.24,1.85.76,2.14,2.39,3.79.47,6.08-2.27-.75-1.94,1.37-3.34,1.58-.06-1.09.33-3.82,1.19-4.75,0-1.32-1.3-1.2-2.14-1.59A4,4,0,0,1,402.82,176.49Zm1.43,35.66c-.35.42-1.36.39-1.19-.52C403.42,211.21,404.42,211.24,404.25,212.15Zm2.39,3.44c-.76.23-.74-.42-1.19-.53a1,1,0,0,1,1.19-1.06A1.4,1.4,0,0,1,406.64,215.59Zm.48-22.46c-.13-1,.61-1.09.71-1.85-.17-.95-1.81-.28-2.38-.79-.93-1.05-2-5.37.48-3.7.17.81-.42.78-.24,1.59s1.06.5,1.67.26c.11-.83-.43-.94-.24-1.85.78,0,1.18-.45,2.15-.26.59,2.23-1.21,1.83-1.2,3.43.67.59,1.92.51,2.39,1.32,0,.84-.54,1.16-.48,2.12A3,3,0,0,1,407.12,193.13Zm2.39-9.51q.17,1.24-1,1C407.81,184,408.85,182.8,409.51,183.62Zm.95,16.12c-2.8-1.28.38-4.94,2.86-2.91C412.78,198.25,410.81,198.1,410.46,199.74ZM414,183.88c.7.11.78.91,1.19,1.32,1.34-.52,2.56-2.85,4.3-1.32v1.59c-1.23.31-1.86,1.29-2.62,2.11a1.21,1.21,0,0,1-1.2-1.32,3.33,3.33,0,0,1-3.1-.53C412.59,184.57,413.12,184,414,183.88Zm-.24-2.64a1.3,1.3,0,0,0,.24-.79c.68-.06,1.3,0,1.19.79C414.68,181.32,414.25,181.76,413.8,181.24Zm-.48,10.57a1.88,1.88,0,0,1,0-1.32c1.3.06,3.1-.43,2.87,1.32A3.5,3.5,0,0,1,413.32,191.81Zm-1.9,29.06c0-.58,1-.11,1.43-.26C412.82,221.19,411.83,220.72,411.42,220.87Zm4.77-1.05c-.73.61-2,.08-2.63-.27C413.71,218.19,416.61,217.48,416.19,219.82Zm-.72-2.64c-.58-1.44.06-3.11,1.67-2.91.33.52.23,1.51.48,2.11A2.42,2.42,0,0,1,415.47,217.18Zm2.15-20.61a2.54,2.54,0,0,1,.48-2.12C419,194.71,419.2,197,417.62,196.57Zm1.67,19.81a2.15,2.15,0,0,1-.48-2.38,2.12,2.12,0,0,1,2.87.8C421.49,216,420.84,216.69,419.29,216.38Zm2.87-18c-2.51-2.51,2.88-2.09,0,0Zm-.24,20.88c-.34-.51-.78-1.7-.24-2.38,1,0,1.84.08,2.15.79A2.62,2.62,0,0,1,421.92,219.29Zm2.62-9.78a1.37,1.37,0,0,1-.24-.79,1.28,1.28,0,0,1,1-.26C425.33,209.15,425.17,209.59,424.54,209.51Zm2.87-20.08a8.37,8.37,0,0,1,1.67.53c-.17.81.41.78.24,1.59-.35.4-1.22.23-1.91.26A2.76,2.76,0,0,1,427.41,189.43Zm1.91,15.85c-.45-.46-.57-1.3-1-1.84.05-.29,3.19,0,3.58,1.05C431.91,205.69,430.33,205.17,429.32,205.28Zm4.06-21.13c-.22.11-.43.23-.48.52-.91-.57-1.32-1.71-3.1-1.31C428.44,180.14,433.33,182.06,433.38,184.15Zm-.72,18.49a.75.75,0,0,1,.48.8C432.31,203.67,432.32,203,432.66,202.64Zm.72-10.57h-1a3.36,3.36,0,0,1,0-2.64C433.7,189.19,433.81,191.27,433.38,192.07Zm.95,18.76h-.48v-.52h.48Zm1.2-27.47c-.33-.09-.2-.67-.24-1.06C436,182.53,435.55,182.69,435.53,183.36Zm6-1.06c-1,2.83-2.16-1.92,0,0Zm-.24-4.23a1.48,1.48,0,0,1,1.2-.27c0,.71.09,1.51-.24,1.85A2.46,2.46,0,0,1,441.25,178.07Zm1,27.21c-1.93-1.13,1.4-1.68,0,0Zm2.86-21.13c-.95.08-1.16,1-1.9,1.32v-1.59c.54-.36,1.48-.29,1.43-1.32C445.21,182.59,445.07,183.45,445.07,184.15Zm.72-16.65c.39-.07.41.25.72.26C446.6,168.28,445.42,168.15,445.79,167.5Zm0,7.93c.67-1.21,1-2.76,3.1-2.38a4.56,4.56,0,0,1,.48,2.91A2,2,0,0,1,445.79,175.43Zm3.58,3.17a2.11,2.11,0,0,1,2.39-2.11C451.75,178,450.69,179.43,449.37,178.6Zm2.39,15.32v.8c-.5.11-.63-.19-1-.27C450.86,194,451.21,193.85,451.76,193.92Zm-2.63-12.41a1.46,1.46,0,0,1-1.19-.27c0-.66.37-.82.47-1.32C449.27,179.77,449.14,180.7,449.13,181.51Zm2.39,21.4c-.89-.16-1.17-1-2.15-1.06a15.54,15.54,0,0,0,1.43-4C453.25,197.53,452.14,202,451.52,202.91ZM451,184.15c.15-1,1.61-.44,2.15-.27C453,184.53,451.52,184.6,451,184.15Zm6.93,6.07c-.48-.18,0-1.47-.48-1.58.65-.87.75,1.09,1.43,1.06A1,1,0,0,1,458,190.22Zm-.24-14.53c1-.17,1.37,2.32.47,2.64C457.13,178.31,457.49,176.42,457.73,175.69Zm1.67,37c-1.16.2-.76-2.34-.48-2.9.86-.16,1.15.3,1.67.53A12.81,12.81,0,0,1,459.4,212.68Zm1-26.68c-.24-1.33-.33-2.81-1.67-2.91-.48-2.29.95-2.47,1.67-3.44C461.19,181,462.42,185.34,460.35,186Zm2.39,12.15c2.1-1.52,3.71.87,2.15,2.64h-1.68C462.65,200.36,462.7,199.25,462.74,198.15Zm11.7-9c.16,1.33-.64,1.9-1.2,1.05A1,1,0,0,1,474.44,189.17Zm1.67-.53h-1.2C472.86,185.44,478.11,185.64,476.11,188.64Zm-2.63,4c.17,1.29-2.12.84-2.63.53C470.85,191.93,473,191.74,473.48,192.6Zm-2.15-6.34c-1-.29-1.05-1.66-1.91-2.11.29-.92,1.2-1.14,2.15-1.32C472.13,183.47,472.46,186,471.33,186.26Zm-4.06-13.74a5.7,5.7,0,0,1,1-2.11C471,171,468.81,175.4,467.27,172.52Zm1.68,17.7a13.86,13.86,0,0,0-1.44,1.85c-1-1.16-2.84-1.43-4.53-1.85-.16-1.23.37-1.69.47-2.64C466.36,186.44,467.89,188,469,190.22Zm-5.5,23.26a2.31,2.31,0,0,1,1-1.06c.75-.13.63.71,1.19.79C465.28,214.19,464.05,214.08,463.45,213.48ZM465.6,205c-.1-.55.17-.7.24-1.05.42.06.55.45.48,1.05Zm.48,11.63c0-1,.6-1.28.72-2.12,1.29-.1,1,1.52,2.15,1.59C468.67,217.14,466.93,217,466.08,216.65Zm1.19-14.8c.27-1.2,2-.76,1.91-2.38,1.44.09,2.1,1,2.39,2.38C470.45,202.47,468.49,202,467.27,201.85Zm2.15-3.7c0-1.45-1.48-1.35-1.91-2.38,1.3-2.68,2.53,1.07,4.06,1.32A2.27,2.27,0,0,1,469.42,198.15Zm2.39,12.42c.29-1.49,1.55-.81,2.39-.26C474,211.25,472.28,211.35,471.81,210.57Zm3.82-14.27c-.57.34-.88,1-1.91.79-.12-.39-.35-.66-.48-1.05.31-1.16,1.38-1.48,2.39-1.85Zm1.19,11.89c-1.16-.06-.92-1.1-.71-2.11h.95C477,206.84,477.19,207.81,476.82,208.19Zm-.95-8.45c.61-.6,1.68-.11,2.15.26C477.69,201.05,475.75,201.53,475.87,199.74Zm3.38-53.87a2.24,2.24,0,0,1-2.16,1H459.91a3.54,3.54,0,0,1-2.06-.65,4.48,4.48,0,0,1-1.45-1.56l-2.72-6a4.66,4.66,0,0,0-1.45-1.56,3.48,3.48,0,0,0-2-.65H429.08a3.59,3.59,0,0,0-2.06.65,3.78,3.78,0,0,0-1.36,1.56l-2.81,6a3.66,3.66,0,0,1-1.36,1.56,3.38,3.38,0,0,1-2,.65H402.26a3,3,0,0,1-1.06-.2,2,2,0,0,1-.9-.6,1.88,1.88,0,0,1-.45-1,2.3,2.3,0,0,1,.3-1.41l29.13-68a3.76,3.76,0,0,1,1.35-1.56,3.62,3.62,0,0,1,2.06-.65h14.06a3.45,3.45,0,0,1,2,.65,3.78,3.78,0,0,1,1.36,1.56L479.4,144A2,2,0,0,1,479.25,145.87ZM476.43,34.1a1.63,1.63,0,0,1,1.21-.07.47.47,0,0,0-.06.15h-1.05A.39.39,0,0,0,476.43,34.1Zm5.41,159c-.81.1-1.85.72-1.68-.79C480.93,192.37,482,192.08,481.84,193.13Zm1.39-160.6c-2.06.91-3.51-.47-5.1-.78-.5.25-.59.72-1.42.78a2,2,0,0,1-1.54-.58c2.43.23,3.93-.8,6.12-.47a3.51,3.51,0,0,0,.34-.33,5.44,5.44,0,0,0,1.6.44ZM491.62,219c.13,1.25-1.35.72-1.91.52C489.85,218.65,491.23,218.16,491.62,219Zm37.72-2.91-.12.26.12.27c-.57.61-2.35.83-2.86,0A1.6,1.6,0,0,1,529.34,216.12ZM517.81.77c.7,0,.87.24,1.41.31-.07.13-.12.28-.19.41a5.3,5.3,0,0,0-1.54,0A.8.8,0,0,1,517.81.77Zm2.61,8.12c-.18.28-.29.61-.63.8l-.28.08-.29.07c-.91-.89,0-2-1.13-2.81l.1,0A17.54,17.54,0,0,0,520.42,8.89ZM514.5,4.3c.22.23.46.47.73.72s.3.26.47.39a2.55,2.55,0,0,1-1.58-1Zm.75,37.78c-.36,0-.39.2-.85.15C514,41.85,515.37,41.77,515.25,42.08ZM510.44,3.27c.26-.79-1.91-.83-.85-1.56a19.38,19.38,0,0,0,3.5.77s0,0,0,.06c.27.36.52.69.79,1a.59.59,0,0,0,0,.49c-1.79.16-1.36-.92-3.4-.62.32.62-1.32.83-1.42.31.56,0,.36-.43,1.14-.31l.14.08.14-.08.14-.08ZM512,31.88a7,7,0,0,0-.19.73.66.66,0,0,0-.2,0,1.9,1.9,0,0,1-.36-.09v-.94A2.94,2.94,0,0,1,512,31.88Zm-2.2,3.29a1.32,1.32,0,0,1-.78.74A1.61,1.61,0,0,1,509.84,35.17Zm-.54-1.7c-2.57,1.14-1.2-1.68,0,0Zm-1.49-21c.21.13.31.85,1,.56a1.58,1.58,0,0,0,.13.26,5.18,5.18,0,0,1-.75.17,2.24,2.24,0,0,1-.73-1C507.55,12.48,507.73,12.4,507.81,12.45Zm-.43,179.36c-1,.25-.83-1.43-.48-1.85C507.75,190.1,507.58,191.17,507.38,191.81ZM501.69,4a.67.67,0,0,1-.21.09c-.68.13-1.31.1-1.79.18A9.52,9.52,0,0,0,500,3,2.2,2.2,0,0,1,501.69,4Zm-.81-1.6a2.37,2.37,0,0,1-1.21.37c0-.07,0-.13,0-.2A3.71,3.71,0,0,1,500.88,2.43Zm-2.34,25.25h1.13c.51.48.38,1.71-1.13,1.57A1.1,1.1,0,0,1,498.54,27.68Zm.3,4.48a2.89,2.89,0,0,0-.31.9,2.57,2.57,0,0,0-.89.57c-1.52.4-3.18.34-2.22-.79A5.22,5.22,0,0,0,498.84,32.16ZM492.71.66A2.69,2.69,0,0,0,494.61,2c.44.45.76,1.07,1.23,1.33A8.15,8.15,0,0,1,492,3.9c-.38-.79,1.64-.24,1.13-1.1-1-.51-1.31.32-2.27.32C491.19,2.27,492.31,1.4,492.71.66Zm1.1,20.21,0,.11s-.06,0-.06,0S493.78,20.89,493.81,20.87ZM488.33,1.08c0,.11,0,.21,0,.31a4.27,4.27,0,0,0-.68-.32A2.54,2.54,0,0,1,488.33,1.08Zm-2.55,4.23h1.14C487.14,5.91,485.56,5.91,485.78,5.31Zm.29,6.26a3.4,3.4,0,0,1,2.26.93c-.36.43-1.41.48-2.55.47C485.14,12.57,485.67,11.87,486.07,11.57Zm1.07,12.72c.53.36.1.59-.45.65A2.69,2.69,0,0,1,487.14,24.29Zm1.62,173.6c-.83.18-.86-.93-.48-1.32C489.11,196.38,489.14,197.49,488.76,197.89Zm2.15-13.48v-.79C491.6,183.23,491.6,184.8,490.91,184.41Zm-1.28-37.54a2.26,2.26,0,0,1-1.75-.7,2.45,2.45,0,0,1-.65-1.71V75.86a2.45,2.45,0,0,1,.65-1.71,2.26,2.26,0,0,1,1.75-.7h15.09a2.39,2.39,0,0,1,2.4,2.41v68.6a2.39,2.39,0,0,1-2.4,2.41Zm14.65,51a1.14,1.14,0,0,1,.71,1.32C504,199.85,503.46,198.51,504.28,197.89Zm0-4c.19.05.23.27.47.27C504.62,194.81,503.62,194.35,504.28,193.92Zm-1.68,7.93c-.55,1.19-1.58.54-2.38,0a2.39,2.39,0,0,1,.24-1.59C501.15,200.81,502.59,200.54,502.6,201.85Zm-3.34-4.23h-.48c-.06-.42.23-.45.24-.79C499.52,197,499.53,197.24,499.26,197.62Zm-2.15,0a1.45,1.45,0,0,1-1.19.27c-.29-.79-.07-.9.24-1.59C496.83,196.35,497.17,196.76,497.11,197.62Zm-5.25-8.72a3.18,3.18,0,0,1,.48-2.11c.49.25.94.54,1.43.79.79-.45,1.16-1.86,2.39-1.05C496.42,189.29,493.66,190,491.86,188.9Zm20.05,18c-.86.25-.24-1.14-.71-1.32-.72.08-1.86-.29-1.91.53-.23,1.31,1.51.44,1.91,1,.17,1.16-1.24.57-1.43,1.33-.72,0-.31-1.25-.72-1.59-2.15.36-1.8-2.05-3.1-2.64-.2.05-.24.26-.48.26,1.4,1.36.71,4,.24,5,1.22.83,1.91-.87,2.86-.79,2.77.22,2.32,3.72,1.43,6.61a7.07,7.07,0,0,0-4.29-1.06,4.3,4.3,0,0,0-3.11-2.12c-.2-1,.59-.93.72-1.58-4.75-.2-5.47-4.86-7.64-7.93-.84-.12-1.38-.59-2.39-.53-.3-.63-.87-1-.71-2.11a2,2,0,0,0,.48-.79c1.71.13,4.08-.47,4.77.79a11.92,11.92,0,0,1-.72,3.17c1.68.53,2.12,2.42,3.35,3.44a27.92,27.92,0,0,1,5.25-4.76c1.09.11,1.14,1.38,1.91,1.85,1.81.16,1.78-1.72,3.34-1.85-.33-.6-.83-1-1.19-1.59a14.19,14.19,0,0,1,1.19-2.37c2.44,2.38-1.73,5.42,2.63,6.6C512.94,205.19,513.34,207,511.91,206.87ZM509.53,196v-.53h.71V196Zm4.29-5.82c-1.62-.23-3.5.93-4.53-.26.89-1.62,3.41.2,4.53-1.06-.25-5.71,5.14-.49,2.39,2.12-.42-.77-.19-2.26-1.67-1.85C513.77,188.93,514.2,190,513.82,190.22Zm1.91.8c0,.71-.54,1.27-1,.79C514.71,191.11,515.11,190.94,515.73,191Zm-1,11.09a3.36,3.36,0,0,1,0-2.64C515.85,199.19,515.85,202.4,514.78,202.11Zm2.86,2.91c-.93.24-1.49.32-2.15-.26A1.12,1.12,0,1,1,517.64,205ZM518.09,39a4.19,4.19,0,0,1-2.43-.33,4.51,4.51,0,0,1,.66-.49,2.36,2.36,0,0,1,.57-1.41,4.09,4.09,0,0,1,1.76.5A1.64,1.64,0,0,1,518.09,39Zm.56-3.29c1.49-.47,2.69.3,2.82,1.12a.75.75,0,0,1-.16.15C520.32,37,518.58,36.53,518.65,35.66Zm0-13.77h.14l-.07.07Zm1.7,4.38a3,3,0,0,1,1.14-.15v.47C520.84,26.63,520.42,26.55,520.35,26.27Zm1.59,170.3c-.76.22-.74-.42-1.19-.53a1.36,1.36,0,0,1,1.19-1.32A1.81,1.81,0,0,1,521.94,196.57Zm-1.3-164.19h0c.58-.26,2.3-.22,2.55.16C522.55,32.63,520.83,32.93,520.64,32.38Zm3.68-18.31c-1-.11-1.38-.49-2.26-.63.1-.63,0-1.14-.85-1.25a3,3,0,0,0-1.21.45c-.89-.52-1-1.86-2.58-1.66l0-.06a12.54,12.54,0,0,0,1.85-.45v-.16l.29.08.28-.08a19.29,19.29,0,0,1,3.75,1.2l.43.38a5,5,0,0,0,.61.37C525,12.75,525,13.35,524.32,14.07Zm25.53-4.5a2,2,0,0,1,1.39.43c-1,0-1.27.45-2,.63a.85.85,0,0,0-.23-.27A3.64,3.64,0,0,0,549.85,9.57Zm-1.72,7.31c-1,.33-2.5.73-2.84-.15C545.85,16.27,547.84,16.33,548.13,16.88Zm-2.79,160.4c.68,1.65,1.82,4.1,1.66,5.81-2-.51-1.91-3.34-2.38-5.55C545,177.57,545.29,177.58,545.34,177.28Zm1.9,18.76a3.16,3.16,0,0,1-3.58-2.12c.4-.44,1.4-.21,2.15-.26C545.94,194.83,547.07,194.91,547.24,196ZM541.5,21.78a12.11,12.11,0,0,1,3.51.11c-.35.8-1.13,1.36-2.84,1.41.08-.55-.57-.7-1.2-.86A2.65,2.65,0,0,0,541.5,21.78ZM535.37,9.84c.26.28,1,.29,1.42.47a7.93,7.93,0,0,1,1.83-.74,8.59,8.59,0,0,1,1.14.84,4.21,4.21,0,0,1-4.59,1.49,6.58,6.58,0,0,0,.36-1l-.95-.81A2.49,2.49,0,0,1,535.37,9.84Zm4.82,17.84c.14.09.28.18.41.28a18.8,18.8,0,0,0-1.68,2.28,1.24,1.24,0,0,0-.1.2,9,9,0,0,1-3.44-.1,11,11,0,0,0,1.25-1.67l0-.12A10.05,10.05,0,0,0,540.19,27.68Zm-3.3-12.94c-.22.27-.43.53-.64.81a2.36,2.36,0,0,1-.88-.54A3.18,3.18,0,0,1,536.89,14.74ZM531.69,35l-.13-.07a1.41,1.41,0,0,0,.15-.89c.36.07.51-.08.77-.11a1,1,0,0,1,.36-.52A4.12,4.12,0,0,1,531.69,35Zm.12-18.1a.83.83,0,0,0,.08-.12l.08.07Zm.63-8.28a7.4,7.4,0,0,0-1.52-1.49l.21-.13a4.44,4.44,0,0,0-.55-.12c-.47-.34-1-.66-1.41-1a.5.5,0,0,0,.25-.59,8.63,8.63,0,0,1-1.09-.1,5.77,5.77,0,0,1-.44-.42c-.38.09-.42-.17-.76-.11a2,2,0,0,0-.44-.79,2.37,2.37,0,0,1-.94-.58,3.52,3.52,0,0,0,.56-.35c-.24-1,1-1.26,1.74-1.72a6.46,6.46,0,0,0,1.35.86c-.79.8.44,2.48,2.29,1.8a1.66,1.66,0,0,1-.26-.47A5.94,5.94,0,0,0,533,5.3,2,2,0,0,1,532,6.4c.83.69,2.8.75,2.55,2C533.8,8.49,533.08,8.55,532.44,8.65Zm2.06,15a12.17,12.17,0,0,0,3.19-.63c.59.92-1.08,1.78-3.17,1C534.51,24,534.51,23.81,534.5,23.68Zm.57,154.65h-.48v-.53h.48Zm1.19,23.26c-2.43-.73-.26-2.71.72-4.23,1.59.18,1.15,2.6,2.86,2.64C539,200.68,537.08,201.83,536.26,201.59Zm3.58-7.14c0-1.31-.35-1.57.24-2.38.83.49,1,1.76,1.43,2.65C540.88,194.71,540.15,194.82,539.84,194.45Zm1-154.12a.51.51,0,0,1,.6.12,3.8,3.8,0,0,1-.4.06Zm.43,157.56c-.72-1.2.38-2.31,1.68-2.12C543.14,197.31,542.42,197.83,541.27,197.89ZM543,25a6.68,6.68,0,0,1-.72.91,1.65,1.65,0,0,1-2-.37c.51-.61,2.22-.55,2.27-1.41q.4,0,.75,0l-.15.16C543,24.4,543.06,24.74,543,25Zm.22,178.22c.21-.39.77-.38,1.2-.53C544.55,203.56,543.54,203.59,543.18,203.17Zm6.45-1.32c-1.75-.67-3.12,1.36-5,.53-.66-1.92-.34-4.09,1-4.49,1.51-.47,3.62,2,5,2.11A9.76,9.76,0,0,1,549.63,201.85Zm-.72-13.21h1c.16,1,.7,1.19,0,1.85C548.6,190.54,548.66,189.71,548.91,188.64ZM549,29.72h1.41C552.77,31.49,546.54,31.61,549,29.72Zm1.37-7.11a2.16,2.16,0,0,1,1.58-.06A7.68,7.68,0,0,0,550.35,22.61Zm11,169.73c.55.07.55.7.24,1.06C561,193.32,561,192.69,561.33,192.34ZM558.78,14.7l.25-.26c2,.63.17,1.94-1.41,2.47.36-.42.7-.87,1-1.31C558.59,15.18,558.81,15.06,558.78,14.7ZM557,181a5.2,5.2,0,0,1-2.39,2.38c-.1-.24-.21-.48-.47-.53C554.4,181.33,556.22,178.68,557,181Zm-1.91,24c-.52,0-.76-.22-.72-.79h.72Zm.48-7.93c.45-.52,1.12-.12,1.67,0C557.28,198.67,555.58,198.67,555.6,197.09Zm3.34,2.38c-.59,0-.74-.41-1.19-.53v-1.05a1.37,1.37,0,0,1,1.67,0C559.61,198.8,559.15,199,558.94,199.47Zm-4.3-9c1.17-1.52,1.2-3.88,1.2-6.08,2.55.78,2.09-3.07,5.25-1.85-.42.86-.3,2.31-.72,3.17C556.86,185.38,558.42,192,554.64,190.49Zm5.5,6.87c.36-.55,1.19-1.45,1.9-.79C562.1,198.27,561,197.78,560.14,197.36Zm2.14-1.32c-.17-.72.48-.54.48-1.06.32.08.2.66.24,1.06Zm-.95-9.51c.49.15,1.57-.33,1.67.26C563.1,188.15,561.18,187.53,561.33,186.53Zm4.2-162.2c.3.26.19.74-.58.69A3.79,3.79,0,0,0,565.53,24.33Zm-.38,178.05c.82-.19.85.92.47,1.32C564.8,203.88,564.77,202.77,565.15,202.38Z"/></svg>