<?xml version="1.0" encoding="UTF-8"?>
<svg id="Layer_1" data-name="Layer 1" xmlns="http://www.w3.org/2000/svg" viewBox="0 0 2000 979.94">
  <defs>
    <style>
      .cls-1 {
        stroke-width: 0px;
      }
    </style>
  </defs>
  <path class="cls-1" d="m1104.76,1509.14c8.85,5.22,17.67,10.49,26.61,15.54.62.35,2.51-.67,3.24-1.53q11.69-13.83,30.85-16.52c-3.63,3.19-6.07,5.34-11.52,10.12,13.32,2.02,23.92,3.63,34.52,5.24-.26,1.87-.51,3.74-.77,5.61-8.99-1.16-17.98-2.32-26.97-3.48-.84.63-1.68,1.26-2.52,1.9,2.36,2.2,4.8,6.37,7.06,6.27,13.1-.58,26.52-.73,39.07-3.97,7.1-1.83,13.08-8.93,19-14.27,12.97-11.71,28.32-11.26,39.35.87,11.06-1.75,21.54-3.41,32.02-5.07.25,1.56.5,3.11.75,4.67-4.72.63-9.43,1.25-15.24,2.02.62,3.74,1.18,7.1,1.96,11.78-5.47-.64-10.19-1.2-14.9-1.75-.38,1.14-.76,2.28-1.14,3.43,6.16,5.28,14.4,7.13,22.37,5.6,2.73-.52,4.12-7.99,6.96-14.08,11.86,10.69,28.31,9.41,45.32,4.33.02,1.85.03,3.71.05,5.56-24.95,4.65-49.91,9.3-75.83,14.13,1.24-2.37,2.52-4.83,5.72-10.97-11.64,3.7-20.04,6.38-31.65,10.07,7.16,3.12,11.11,4.85,15.06,6.57.12.87.24,1.74.37,2.61-23.09,5.47-46.13,11.19-69.29,16.35-89.28,19.91-179.37,34.13-270.92,37.74-17.99.71-36.02,1.59-53.99,1.01-8.09-.26-15.96-4.62-24.13-5.84-13.29-1.99-26.73-2.94-40.91-4.42-1.6-6.95-5.1-15.08-4.94-23.15.24-12.51-5.09-13.3-15.49-9.96,3.37,5.33,6.4,10.12,11.37,17.99-12.21,3.11-22.86,5.81-33.5,8.52-.66-3.13-1.31-6.26-2.08-9.9-4.5.6-10.01,1.34-15.53,2.07-.33-1.18-.66-2.35-1-3.53,9.93-3.75,19.85-7.49,29.78-11.24-.13-1.41-.27-2.82-.4-4.23-20.13,1.37-40.62.87-60.29,4.66-18.97,3.66-37.08,11.75-56.93,16.11,3.84-2.59,7.7-5.14,11.51-7.78,7.63-5.29,14.55-12.73,23-15.48,13.72-4.47,28.4-6.1,42.76-8.41,3.01-.49,6.39,1.25,10.36,2.14,1.56-11.93-5.08-17.3-14.04-20.04-19.87-6.08-38.58-2.52-55.93,8.17-2.96-2.17-5.91-4.34-8.87-6.51-.74.65-1.48,1.31-2.22,1.96,1.09,3.27,2.18,6.53,3.62,10.83-4.5.47-8.5.89-13.81,1.44,2.23-4.57,3.86-7.89,6.26-12.8-57.11-6.46-112.76-12.76-168.41-19.05-.08-1.3-.15-2.6-.23-3.9,16.34-2.36,32.68-4.71,49.01-7.07-.18-1.6-.36-3.2-.53-4.79h-50.48c-2.54,7.89-6.42,16.39-18.86,12.79-8.32-2.41-16.72-4.56-25.14-6.59-2.96-.71-6.12-1.1-9.16-.99-18.28.7-36.86,2.73-50.89-14.27-16.03,9.67-31.75.28-47.81-1.38-6.34-.66-11.43-4.1-17.85,5.21-6.57,9.54-17.4-1.2-25.85-6.47h19.17c.06-.96.12-1.91.18-2.87-23.54-4.97-47.12-9.79-70.63-14.94-42.67-9.34-85.31-18.84-127.93-28.4-4.51-1.01-8.95-2.64-13.21-4.47-33.85-14.55-67.7-29.08-101.42-43.93-12.76-5.62-25.17-12.06-40.23-19.33,4.32-3.25,8.02-4.65,9.3-7.25,4.39-8.9,10.3-5.62,16.78-3.41,9.33,3.19,18.89,5.71,28.34,8.55,8.65,2.6,17.16,5.89,25.98,7.59,4,.77,9.68-.31,12.68-2.84,4-3.38,6.13-8.97,9.03-13.56,7.05-.44,14.2-.9,21.34-1.35-.05-1.15-.1-2.3-.15-3.45-4.71-.48-9.42-.95-14.44-1.46,1.29-6.41,2.45-12.22,3.62-18.03-1.6-.38-3.2-.76-4.79-1.14-1.84,7.3-3.69,14.61-5.25,20.77-33.71-1.14-67.93,5.98-98.4-12.67q7.48-6.6,40.69,1.52c1.24-3.34,2.43-6.53,4-10.74-8.51-7.58-18.4-14.88-32.53-6.2-2.56,1.57-8.15,1.41-10.49-.38-13.04-10-25.59-4.07-40.35-.52,5.3,3.65,8.96,6.17,12.62,8.69-21.21-7.53-46.6-4.46-64.49-24.89,5.47-1.13,8.88-1.83,12.29-2.54.13-.81.26-1.62.38-2.44-5.56-1.3-11.11-2.6-17.42-4.07,9.71-8.33,20.28-8.07,32.95,2.56,7.51,6.29,13.89,5.59,23.89,1.95-16.99-13.58-42.82-8.13-53.65-28.82,6.19-5.34,11.49-9.91,16.8-14.48-4.15-2.81-8.3-5.63-14.88-10.09,7.8-1.91,11.93-2.91,17.87-4.37-4.1-4.37-6.85-7.3-10.37-11.05,1.86-2.69,3.86-5.57,6.58-9.49,8.02,6.26,15.26,11.92,22.47,17.55,2.58-3.82,5.01-7.42,7.75-11.48-7.56-9.89-18.59-11.65-30.27-11.7-5.1-.03-10.19.14-15.29.16-13.38.07-15.69-2.61-12.61-18.25-10.29-1.04-20.39-2.06-31.16-3.14-10.6-25.07-29.77-38.58-58.37-37.8-9.46,13.93-9.84,13.43-22.95.36-4.02-4.01-11.75-4.3-20.84-7.3,12.67-8.82,23.42-16.31,37.51-26.13-8.49-6.84-15.27-12.29-22.04-17.75-3.52,7.23-7.03,14.47-10.24,21.07-1.27-4.09-3.35-10.78-5.43-17.47-.73.06-1.45.12-2.18.19-.71,11.69-2.9,23.56-1.51,35,.74,6.07,7.59,11.48,11.9,17.02,3.79,4.87,7.86,9.52,10.57,16.24-11.62-19.3-24.96-7.02-35.98-2.54-3.69-8.96-6.84-16.64-10-24.31-1.32.36-2.64.72-3.95,1.08v14.86c-.85.23-1.69.47-2.54.7-2.22-5.24-4.44-10.49-6.66-15.73-.8.08-1.59.17-2.39.25v34.74c-13.74-3.23-20.55-24.37-37.66-10.48-3.61-5.82-7.22-11.64-10.84-17.46-.88.51-1.75,1.02-2.63,1.53,3.34,6.24,6.67,12.48,10.01,18.71-.74.45-1.49.89-2.23,1.34-1.89-3.2-3.78-6.39-7.88-13.33-3.6,13.26-6.42,23.67-9.24,34.07-5.82-1.43-12.11-10.72-7.62-15.33,9.25-9.49,4.19-20.46,6.4-30.5.54-2.45.7-4.97,1.01-7.3-16.52-8.9-19.3-8.01-22.22,8.17-5.32-8.06-10.03-15.21-16.9-25.62,9.64,3.07,15.58,4.96,21.52,6.85.57-.74,1.14-1.49,1.7-2.23-8.65-12.76-17.31-25.51-27.39-40.38,1.09-3.43,3.29-10.35,5.49-17.27-12.06,9.45-15.22-.18-19.26-7.35-1.23.42-2.46.85-3.7,1.27,2.55,10.27,3.56,21.3,8.09,30.61,4.43,9.08,8.01,17.45,9.59,27.78,1.93,12.63,8.57,24.55,13.49,37.59h-10.05c-.1,14.69,4.18,17.29,17.87,11.8q8.38,10.96-16.17,17.65c-2.82-6.4-5.66-12.82-9.15-20.74-2.96,3.47-4.68,5.49-6.48,7.59-8.96-19.41-17.89-38.78-26.81-58.15-3.73,2.83-7.48,5.67-11.23,8.51-1.4-.53-2.79-1.07-4.19-1.6.96-5.73,1.65-11.51,2.94-17.16,1.66-7.3,1.47-13.28-7.15-16.08-4.72-1.53-9.15-3.92-14.11-6.1.09,1.77.22,4.25.35,6.72-1.14.55-2.27,1.1-3.41,1.65-1.82-3.95-5.49-8.2-4.91-11.75.5-3.07,5.83-5.36,11.01-9.61-2.58-5.8-6.44-14.47-10.81-24.28-1.28,7.99-2.37,14.76-3.45,21.53-1.54.15-3.08.3-4.62.45-4.44-11.15-9.38-22.12-13.2-33.47-5.69-16.91-8.11-18.26-25.99-9.76,2.93-4.99,5.92-8.26,6.77-12.02.87-3.86-.35-8.19-.71-13.08,14.51-2.95,10.05-13.72,8.81-21.75,9.17,7.31,23.61,13.26,27.79,23.42,6.43,15.66,23.74,10.33,30.58,26.19.84-13.63-3.35-18.98-11.41-23.46-6.47-3.6-11.37-10.03-15.97-14.27,3.96-6.09,6.26-9.63,8.57-13.18,1,1.43,3.12,4.47,5.27,7.55,6.04-11.33,2.67-15.97-20.04-25.77,2.24,7.13,4.04,12.84,6.21,19.75-3.29,1.14-6.66,2.3-12.22,4.22-1.42-15.49-2.71-29.57-4-43.65,1.12,1.27,2.25,2.55,3.37,3.82,5.18-7.29,9.68-15.24,15.83-21.59,3.31-3.42,9.39-5.07,14.34-5.37,1.39-.08,3.82,7.35,4.73,11.57,1.08,5.02,1.04,10.28,1.68,17.64,12.14-19.33,11.31-22.58-6.43-34.71,2.38-12.76,4.75-25.44,7.01-37.52,9.1-9.87,18.52-20.09,29.11-31.59,5.68,13.86,12.15,14.76,22.88,6.11,10.35-8.34,12.08,5.54,18.95,11.94-2.49-10.55-4.45-18.83-6.4-27.12,1.45-.44,2.89-.89,4.34-1.33,2.45,6.29,4.9,12.57,7.35,18.86.62-.02,1.23-.05,1.85-.07v-23.5c.72-.7,1.44-1.41,2.17-2.11,2.22,3.34,4.45,6.68,7.08,10.63-.76-7.36-1.45-13.95-2.45-23.62,6.06,4.14,9.32,6.37,12.58,8.61,10.57-25.11,14.6-27.71,31.61-18.77-2.27-6.28-4.15-11.47-6.03-16.66.71-.41,1.41-.82,2.12-1.23,4.15,3.41,8.29,6.82,14.67,12.08-3.08-8.85-5.29-15.18-8.48-24.36,14.58,5.61,17.19,16.76,21.05,27.13-2.03-1.7-4.06-3.39-6.11-5.11-.38,7.28,17.93,22.04,25.89,21.99,3.98,7.26,7.65,13.96,11.32,20.65,1.07-.55,2.15-1.1,3.22-1.65-6.33-16.28-12.67-32.55-19-48.83,1.77-.79,3.55-1.59,5.32-2.38,4.22,7.87,8.44,15.73,12.94,24.12.88-1.89,1.77-3.78,3.96-8.47,7.21,14.39,13.58,27.11,19.94,39.84l1.75-.64c0-1.49.45-3.16-.07-4.44-5.13-12.62-9.52-24.81-7.81-39.39,1.16-9.9-6.71-11.41-19.29-3.03-.88-4.39-1.61-8.08-2.72-13.65,4.5,1.41,7.28,2.29,10.6,3.33.7-2.79,1.41-5.6,1.37-5.41-5.04-6.8-8.62-11.62-10.89-14.68-7.53,1.8-14.37,3.44-21.21,5.08-.47-1.19-.94-2.39-1.41-3.58,1.82-2.76,3.65-5.51,6.21-9.39h-42.29c-.11-1.17-.22-2.35-.33-3.52,25.46-2.67,50.91-5.35,78.86-8.28-8.83-14.51.18-20.94,7.53-28.51,7.66-7.91,14.51-16.6,23.2-26.67,6.56,12.03,12.69,23.27,18.99,34.83,29.71-.47,58.81-15.53,88.54-9.45,5.66-3.87,10.6-7.25,15.36-10.5-3.19-2.39-7.74-5.78-14.63-10.93,9.36-1.11,15.9-1.88,22.44-2.66.03-1.43.05-2.85.08-4.28-6.89-1.01-13.78-2.02-22.22-3.25,2.45-3.68,4.13-6.22,5.22-7.86-5.37-7.95-10.48-15.53-15.62-23.14,14.3-6.96,18.85-16.62,15.91-34.59-4.86-.71-10.03-1.47-15.19-2.22,7.84-2.9,15.76-11.03,23.35.59.4.6,11.28-2.77,12.56-6.1,6.83-17.7,20.03-23.9,37.56-28.07,14.83-3.53,28.64-12.13,42.28-19.62,8.03-4.41,4.99-9.8-.83-15.1-2.9-2.65-3.74-7.56-5.52-11.45,5.38-.76,10.81-2.31,16.14-2.01,3.49.2,6.69,3.93,10.28,4.54,7.14,1.2,13.38-.07,10.91-9.84-2.46-9.73,2.64-12.36,10.87-11.97,4.64.22,9.28,1.74,13.87,1.51,8.11-.4,16.15-1.82,24.25-2.53,2.69-.24,5.46.51,8.19.59,3.81.11,7.63.03,12.53.03-7.93-11.83-5.69-17.98,6.86-27.07,4.81-3.49,8.26-8.81,12.84-12.68,3.76-3.17,7.98-6.81,12.53-7.81,15.24-3.35,30.71-5.6,46.09-8.28,4.95-.86,9.9-1.76,17.76-3.15-4.19-8.82-9.05-16.09-11.03-24.08-1.89-7.61-3.21-16.95-.43-23.77,4.32-10.62,14.82-14.32,26.55-13.16,11.62,1.15,21.86,6.01,23.27,17.89.96,8.06-3.75,16.79-6.1,25.89,2.06.13,6.41.4,12.21.76-4.17-16.28,5.01-16.53,15.51-15.15,3.37.44,6.73.96,10.11,1.34,15.39,1.73,15.65,1.63,15.94-13.97.29-15.98,9.57-23.73,23.45-29.58,18.49-7.79,33.88-4.24,47.97,8.72,2.76,2.54,4.82,5.86,6.94,8.5,17.15-3.28,34.12-6.53,51.1-9.79.58,1.35,1.16,2.7,1.74,4.06-3.14,2.87-6.29,5.74-12.77,11.66,14.69,0,26.41.1,38.13-.15,1.19-.03,3.1-1.99,3.39-3.34,3.55-16.72,17.56-17.02,29.9-18.05,39.74-3.33,79.92-3.43,119.19-9.52,20.6-3.19,38.72-6.18,59.82-.43,13.51,3.69,29.15-.68,43.56,7.46,4.82,2.73,14.64-3.04,22.05-5.33,6.3-1.95,12.75-7,18.57-6.26,14.08,1.79,17.26-6.54,19.92-16.85.52.29,1.52.48,1.82,1.04,10.39,19.81,13.74,20.62,34.69,10.87,8.73-4.06,17.94-7.93,27.33-9.39,4.64-.72,10,4.67,15.31,6.5,7.45,2.56,15.08,4.69,22.77,6.38,5.26,1.15,10.75,1.24,17.5,1.95-3.29-8.05-6.82-14.43-8.37-21.26-.97-4.26,1.43-9.19,1.58-13.85.12-3.84.13-8.22-1.56-11.45-2.7-5.15-6.2-10.29-10.55-14.06-4.7-4.07-10.76-6.55-16.18-9.69.25-17.13,16.89-7.28,22.18-16.04,13.5,16.04,14.25,34.61,17.08,52.48.46,2.93.33,5.94.61,8.9,2.38,25.04,3.02,25.12,26.48,32.43,9.07,2.82,17.06,8.93,25.93,12.6,6.06,2.51,12.79,3.4,19.84,5.17,7.98-16.86,6.06-33.17,3.41-48.33,2.06-4.43,5.96-8.91,5.84-13.28-.33-12.27-2.84-24.46-3.44-36.74-.34-7.03,1.35-14.16,2.47-24.29,23.49,24.53,19.78,49.86,14.78,75.29-3.6,18.34-3.81,18.3,5.16,31.71,3.63-14.97,4.72-28.39,10.22-39.66,5.53-11.34,15.45-20.53,24.28-31.71,2.73,4.74,4.9,9.81,8.26,13.91,2.83,3.46,6.99,5.87,10.68,8.57,2.02,1.48,4.63,2.28,6.39,3.98,4.01,3.86,3.75,39.15.23,43.58-2.61,3.29-4.62,7.04-7.3,11.21-1.98-3.75-4.01-7.6-7.86-14.88,1.82,17.18,15.24,30.4.42,43.91,4.51,3.1,8.04,5.52,13.67,9.39,1.23-11.83,2.2-21.24,3.18-30.65,1.03.02,2.07.04,3.1.06v33.02c4.55,1.16,10.12,2.58,16.97,4.33,3-8.41,5.9-16.54,8.97-25.15,9.96,16.24,16.15,18.3,23.68,6.64,1.24,4.86,2.51,8.61,3.09,12.47.61,4.13.56,8.36.66,10.15,12.63,3,23.81,6.82,35.28,8.06,12.43,1.35,25.12.31,33.87.31,2.13-10.15,4.24-17.82,5.22-25.63.77-6.21.16-12.59.16-20.45,2.72,2.47,4.31,4.69,6.45,5.63,2.03.89,5.54,1.4,6.76.29,1.31-1.2,1.72-5.09.74-6.75-3.56-6.02-7.87-11.6-10.46-18.86,3.17,2.74,6.34,5.47,9.5,8.21,1.14-.47,2.28-.94,3.43-1.41-6.26-16.02-13.14-31.83-18.46-48.16-2.09-6.41-3.71-17.48-.34-20.37,13.22-11.34,12.51-25.05,10.95-37.54,7.14-5.66,12.82-10.15,21-16.63-.75-14.34-1.74-33.29-2.79-53.28,27.08,12.72,31.07,31.22,22.06,54.31-.75,1.91-.5,4.19-.84,6.28-1.09,6.8,3.25,12.8-1.5,21.01-4.79,8.27,3.53,16.53,14.81,21.04,0-7.73-.7-14.78.21-21.62.82-6.19-.47-15.39,11.15-13.97-2.1,7.73-4.06,14.96-6.03,22.2,1.45.53,2.9,1.05,4.35,1.58,2.98-5.93,5.97-11.87,9.44-18.77,3.98-1.13,10.91-3.09,17.99-5.09-2.64-11.66-17.47-19.16-7.67-32.63,5.29,14,8.51,28.95,21.19,33.31,7.99-3.21,13.56-7.46,18.83-7.12,9.43.62,12.55-2.83,11.52-12.22,26.42-2.62,52.58-22.68,80.17,4.06-5.41-1-8.14-1.5-13.55-2.5,4.57,7.19,7.78,12.23,12.63,19.86,4.27-14.2,7.72-25.63,11.16-37.07,1.03.23,2.07.46,3.1.69,1.11,5.19,2.23,10.38,3.34,15.58.97-.07,1.95-.13,2.92-.2-.82-7.8-1.64-15.6-2.47-23.4,1.36-.42,2.73-.84,4.09-1.26,4.52,21.22,5.03,44.34,25.13,56.6,4.3-3.64,9.64-8.15,14.99-12.67,1.22.72,2.44,1.45,3.66,2.17-.49,5.46-.99,10.91-1.56,17.22,2,1.08,5,2.7,8.79,4.75-.53-4.71-1.07-9.39-1.6-14.07.56-.17,1.13-.34,1.69-.51,1.07,2.04,2.2,4.05,3.21,6.12,4.62,9.44,3.12,20.54,16.24,27.56,9.39,5.02,13.07,20.7,20.87,30.83-6.6-20.12-14-39.83-30.06-55.7,6.41-5.17,12.5-10.08,19.15-15.45,2.77,2.09,6.74,5.08,11.77,8.86v-45.75c1.42-.17,2.83-.34,4.25-.51,2.26,14.09,4.52,28.17,6.66,41.46,5.62-3.12,5.9-4.32,6.22-26.67,5.87,13.16,11.73,26.31,17.6,39.47,1.64-.37,3.28-.74,4.91-1.11-14.99-23.45-13.34-48.54-8.83-73.33,13.22,2.8,13.04,2.75,8.13,17.89-.73,2.24,1.17,5.32,1.42,6.29,10.69-.62,20.25-1.17,32.2-1.86-1.82-6.31-4.04-13.99-6.77-23.44-2.71,5.07-4.62,8.63-6.59,12.33q-8.27-10.7,3.19-27.54c6.62,15.9,13.05,31.35,19.48,46.8,1.37-.39,2.74-.79,4.11-1.18-4.03-33-8.06-66-12.09-99,2.31-.38,4.62-.75,6.93-1.13,4.53,17.23,9.06,34.47,13.7,52.16,1.86-.17,5.33-.5,8.8-.82-2.19,3.52-4.38,7.05-7.65,12.32,7.09,5.36,23.7.37,24.54,16.22-.56-6.32-1.13-12.63-1.69-18.95.87-.18,1.75-.37,2.62-.55,2.41,6.61,4.81,13.22,7.22,19.84,1.81-.43,3.62-.86,5.43-1.29-2.83-12.21-5.66-24.42-8.77-37.84,14,2.11,17.44,10.29,17.53,20.91.11,13.3.03,26.61.03,41.92-7.63-5.43-15.71-11.18-25.51-18.16,10.29,34.5,29.49,61.9,47.61,90.02,14.95-17.23,14.51-25.71-1.03-38.74,2.41-10.84,4.7-21.14,6.99-31.44,1.29-.1,2.58-.19,3.87-.29,1.52,7.47,3.04,14.94,4.78,23.51,9.92-6.6,9.42-13.72,4.99-21.52-3.6-6.35-7.29-12.66-10.95-18.98,1.22-.67,2.45-1.35,3.67-2.02,6.58,11.89,13.16,23.78,20.88,37.72,2.49-8.72,4.34-15.22,6.89-24.15,5.31,10.96,10.09,20.83,15.03,31.01,5.69-2.82,11.12-5.51,18.39-9.11-4.42-4.95-7.8-12.11-12.9-13.67-8.78-2.68-9.95-8.87-12.49-15.55-4.93-12.93-8.65-26.89-22.95-33.47v-14.57c12.87,7.87,25.27,16.98,42.77,13.74-1.54-7.24-3.07-14.45-5.43-25.54,7.21,7.77,11.82,12.74,17.92,19.31v-14.1c.76-.14,1.53-.28,2.29-.42,1.3,5.07,2.61,10.14,4.08,15.86,4.24-.87,8.73-1.79,13.49-2.77-.67-4.17-1.42-8.88-2.18-13.58,17.64,11.84,18.65,29.9,20.97,49.23-10.01-2.89-11.71,2.09-9.58,9.35,1.88,6.43,4.85,12.54,6.9,18.94,1.58,4.92,2.48,10.07,4.28,17.59,11.07,3.09,8.59-16.65,20.89-16.22.81,7.99,1.64,16.15,2.47,24.31.85.13,1.7.26,2.55.4,5.49-9.39,10.99-18.77,16.48-28.16,1.04.55,2.09,1.11,3.13,1.66-.13-9.54-12.24-18.66-2.81-30.39,8.55,19.11,16.14,36.07,24.32,54.33,4.35-4.15,7-6.68,9.92-9.46,9.08,8.05,4.26,15.5-1.84,21.13-5.54,5.11-12.94,8.19-18.08,11.3v22.48c9.61-.82,22.63-6.54,30.23,5.57,3.44,5.48,7.17,14.66,4.85,18.96-3.64,6.73-12.3,10.73-18.75,15.83,9.3,12.73-3.09,37.11,19.67,48.92,3.99-2.3,7.75-6.2,1.38-12.92-10.34-10.89-10.67-23.98.13-38.12,5.27,13.9,10.32,27.2,15.37,40.5l5.19.06c4.44-5.68,10.71-10.74,12.92-17.19,4.16-12.13,12.11-18.07,23.87-20.45,1.24-.25,2.99-.33,3.58-1.15,4.27-5.93,8.58-7.75,14.01-1.23.53.63,3.04-.39,6.55-.94-6.59-5.19-11.9-9.37-19.02-14.99,10.98-1.55,19.37-2.73,28.7-4.04-1-7.16,1.15-16.28-12.48-15.13,5.64-3.36,11.28-6.72,16.92-10.09-5.8,6.77-27.18-6.45-21.05,16.73-7.86-7.19-12.38-10.41-7.32-20.23,8.05-15.63,5.6-19.05-8.81-30.25-2.79-2.17-3.31-7.26-4.88-11,4.02-.25,8.3-1.48,11.99-.5,4.8,1.27,8.95,5.4,13.74,6.24,4.18.73,8.85-1.39,12.93-3.84-15.09-9.46-15.12-10.34-8.95-25.71,1.25-3.12-.2-7.97-1.71-11.45-4.79-11.07-10.94-21.72-5.42-35.11,2.32,7.58,4.63,15.16,7.66,25.05,2.62-8.17,4.7-14.64,6.69-20.86,19.45,10.13,16.79,38.73,39.68,46.54-1.63-1.96-3.01-4.22-4.95-5.81-6.32-5.22-9.67-10.67-3.23-18.18,1.32-1.54,1.93-3.79,2.52-5.81,2.83-9.73-.57-21.01,11.34-28.3,10.26-6.29,3.81-16.09.22-24.39-2.01-4.66-3.67-9.47-5.53-14.33-3.8-.18-7.31-.34-13.23-.61,3.25,11.43,6.2,21.79,9.73,34.21-11.33-4.55-21.72-6.32-14.61-20.73,1.48-3-.68-7.79-3.88-11.63-.12,2.2-.24,4.4-.38,7.04-9.98-4.01-11.77-10.8-6.08-18.84,2.1-2.97,7.06-3.91,10.72-5.78.8,1.14,1.6,2.29,2.4,3.43,1.86-6.31,3.71-12.62,5.84-19.84,5.35,7.71,10.06,14.49,14.94,21.52,5.09-5.43-.71-20.68,14.67-12.67-.87-5.4-1.65-10.27-2.44-15.13.78-.43,1.55-.85,2.33-1.28,3.94,5.4,7.88,10.8,11.92,16.34,2.5-4.46,4.84-8.63,7.17-12.79,1.41.13,2.81.25,4.22.38.58,7.06,2.02,14.23,1.1,21.08-.21,1.59-8.46,2.1-15.02,3.56.28,4.87.65,11.21.99,16.93,13.26-2.28,25.75-2.58,36.68-6.85,9.46-3.7,17.21-11.84,25.62-18.15,5.43-4.08,10.69-8.39,16.71-11.61-5.05,12.23-3.1,22.91,6.87,30.04,2.64,1.89,7.07,2.77,10.26,2.11,9.72-2.02,18.1,2.39,20.36,11.65,2.21,9.05.63,15.27-6.64,14.61-5.89,9.39-10.65,16.97-15.4,24.56l.27-.24c-6.39,1.83-12.77,3.65-19.8,5.66,1.39,2.85,1.88,5.96,3.62,7.06,15.07,9.48,12.19,24.63,12.47,38.66.32,15.67.21,31.35.09,47.03-.02,3.16.18,7.89-1.65,9.2-11.52,8.24-9.82,16.33-.99,25.07.44.44.3,1.56.27,2.35-.01.33-.45.65-2.52,3.37-4.11-6.63-7.71-12.45-11.34-18.32-.47,4.96-.97,10.11-1.38,14.5,4.17,3.62,7.99,6.95,12.19,10.59,1.19-.76,3.46-2.21,6.92-4.42,1.23,8.78,2.29,16.3,3.34,23.82,1.48.04,2.97.08,4.45.12,1.66-4.49,3.06-9.11,5.11-13.41.72-1.5,3.18-3.21,4.61-3.03,1.42.18,3.87,2.95,3.6,4.03-1.81,7.35,2.27,18.24-10.91,19.32-1.05.09-1.92,2.29-2.28,2.76,3.5,1.52,6.57,2.86,9.65,4.19-2.21,2.01-4.42,4.02-8.56,7.78,1.81,18.98,14.25,41.11-3.16,61.41,10,3.11,18.28,5.68,26.55,8.25-.07-.64-.13-1.28-.2-1.92,5.11,0,10.24.36,15.31-.1,5.1-.46,10.1-2.24,15.18-2.48,4.86-.22,9.93.25,14.58,1.59,1.48.43,3.03,6.51,2.59,6.78-3.97,2.43-8.26,5.3-12.71,5.79-7.12.79-17.09-3.62-18.42,7.32-1.34,11.04,6.11,16.82,17.21,17.74,3.34.27,6.55,1.85,9.9,2.36,20.73,3.11,22.83.97,20.6-20.07-.12-1.14,1.42-2.45,4.01-6.62.35,5.83.35,8.4.68,10.92,1.05,8.05,3.23,14.47,13.7,14.11,4.85-.17,9.79,2.42,16.89,4.37-.35.4,1.34-1.55,4.7-5.45.51,5.44.82,8.76,1.18,12.54,6.62,0,13.53.59,20.2-.39,1.76-.26,4.76-6.73,3.86-8-5.54-7.85-7.36-19.63-20.16-20.59-1.84-.14-3.51-2.45-7.8-5.66,13.1,2.89,23.08,5.08,33.05,7.28.41-1.49.81-2.97,1.21-4.46-7.27-3.81-15.04-6.92-21.73-11.58-18.5-12.89-17.31-40.23,2.21-51.47,6.55-3.77,14.06-5.87,21.03-8.96,9.4-4.17,19.72-7.21,27.74-13.27,6.97-5.27,8.23-14.12,2.91-22.86-5.61-9.22-10.4-18.94-13.42-29.64,12.76,11,25.52,21.99,38.68,33.33,5.96-5.76,11.36-11.24,17.11-16.33,1.13-1,3.58-.64,5.43-.67,2.5-.04,5.15.73,7.48.13,13.01-3.34,32.17-31.71,31.44-45.39-.16-3,1.73-6.33,3.41-9.06.42-.69,3.65.34,5.58.57-.58,3.69-.16,7.95-1.9,10.96-6.51,11.22-1.09,35.06,8.39,43.87,10.51,9.77,14.74,2.91,19.99-7.66,3.54,8.43,6.16,14.69,9.06,21.6,4.68-4.92,7.91-8.32,11.14-11.72,1.08.53,2.16,1.06,3.24,1.59-.21,3.51.86,9.18-.83,10.19-12.27,7.28-4.28,15.33-1.25,22.78,3.5,8.63,10.59,16.61,11.42,25.32,1.24,12.97,2.92,29.81-3.87,38.67-8.95,11.69-4.99,30.65-23.3,35.76,16.63-2.82,37.5,4.67,43.52,16.04,4.33,8.18,2.73,31.02-3.1,33.39-10.22,4.14-20.93,7.06-31.48,10.5,7.06,13.93,18.33,8.2,28.83,7.54,8.49-.53,17.08,1,25.63,1.04,2.72.01,5.45-1.81,8.37-2.86,2.57,2.35,6.38,5.1,9.22,8.63,2.59,3.22,3.39,8.06,6.29,10.8,4.9,4.62,11.8,12.44,16.18,11.45,37.86-8.52,65.01,8.46,68.4,42.07,4.01,2.93,6.53,4.76,9.05,6.6-7.25,3.54-3.17,12.94-7.47,16.52-10.26,8.55-21.88,15.45-32.46,22.69,4.64,2.27,11.17,5.47,18.86,9.24-9.28,6.21-11.8,12.77-.88,18.7-4.03,5.36-7.25,9.65-11.1,14.78,26.28,11.64,53.43,3.87,79.48,6,.11,1.91.22,3.82.33,5.73-8.09.96-16.19,2.73-24.27,2.63-7.09-.09-11.89-.5-16.41,7.44-3.71,6.53-12.09,11.98-19.55,14.47-14.77,4.93-30.33,7.49-47.29,11.43,8.13,6.88,15.41,13.04,22.76,19.26-6.53,17.88-20.47,23.58-36.75,14.65-3.7-2.03-7.17-4.57-10.47-7.21-11.69-9.36-11.7-10.88,1.99-23.96-24.64,6.73-46.11,12.23-67.26,18.77-3.07.95-4.59,6.91-7.74,12.04-2.94-11.61-10.29-8.71-17.64-6.69-21.05,5.78-42.47,10.44-63.12,17.38-13.49,4.54-24.78,12.01-32.12,26.73-3.86,7.74-18.06,10.25-27.48,15.33-3.22,1.74-6.34,3.85-9.07,6.27-2.49,2.22-4.39,5.1-6.55,7.68-2.09-2.54-4.17-5.08-6.73-8.19-7.22,1.86-15.98,2.81-23.36,6.5-4.15,2.08-8.55,8.77-8.39,13.22.26,7.35,7.08,7.71,13.66,6.94,5.82-.68,12.28-1.49,17.61.29,22.81,7.64,45.31,15.73,70.09,13.77,3.59-.28,7.52,3.76,12.21,6.29-28.39,22.05-66.09,10.58-92.81,31.08-.05,1.45-.11,2.9-.16,4.34,5.55.75,11.22,2.65,16.62,2.04,24.84-2.79,49.67-5.92,74.38-9.7,9.89-1.51,19.43-5.2,29.22-7.5,2.98-.7,6.26-.11,9.94,2.77-9.82,4.46-19.63,8.92-29.45,13.38-.03,1.07-.06,2.14-.09,3.21,55.99-5.17,110.12,7,168.23,14.91-4.71,4.88-7.35,8.65-10.9,11.09-11.62,7.98-12.86,19.58-1.82,27.99,5.65,4.3,12.72,6.68,18.8,10.49,3.4,2.13,8.75,5.72,8.47,8.08-.45,3.77-4.18,8.92-7.73,10.22-13.83,5.1-28.1,9.06-42.29,13.13-6.43,1.85-13.07,2.98-19.95,4.51,1.05,6.54,2.37,12.27,2.73,18.07.15,2.44-1.06,6.23-2.83,7.18-1.99,1.06-6.52.57-7.8-1-1.78-2.18-2.83-6.43-1.93-8.99,1.58-4.5,4.89-8.4,7.47-12.56-.61-.98-1.23-1.96-1.84-2.95-24.56,6.59-49.13,13.19-75.33,20.22,2.97,4.14,3.8,5.55,4.87,6.75,8.52,9.57,7.45,13.37-5.26,16.61-13.86,3.54-27.83,6.65-41.74,9.94.58,6.73,1.71,11.8,1.17,16.69-.31,2.81-3.3,5.33-5.09,7.97-1.68-3.09-4.87-6.29-4.65-9.23.28-3.71,3.35-7.21,5.21-10.8-.59-1.24-1.18-2.48-1.76-3.72-36.58,10.71-72.94,22.24-109.79,31.91-36.78,9.65-74.81,14.97-109.74,30.53.36,1.3.72,2.6,1.08,3.9,4.41-.84,8.83-1.67,17.24-3.27-6.45,4.88-10.08,7.63-13.55,10.26.94,4.81,1.92,9.76,3.2,16.3,25.76-2.42,49.49,19.43,79.1,6.21-7.59,13.98-2.33,12.27-59.93,3.98,5.36,3.9,8.31,6.05,9.06,6.59-.29,5.08-2.06,10.43-.42,11.84,9.44,8.18,21.55,10.43,33.32,13.67,9.5,2.62,15.12.52,19.19-8.5,2.85-6.31,7.15-11.97,10.81-17.91,1.1.51,2.2,1.02,3.3,1.53-4.2,9.07-8.39,18.14-12.52,27.07,34.81,10.79,35.59,15.66,75.82-33.8,1,.59,2.01,1.18,3.01,1.77-8.3,14.16-16.6,28.33-25.75,43.93,10.98,2.19,23.63,5.69,36.49,6.98,10.52,1.05,13.8-7.27,16.01-16.28,1.13-4.59,4.65-8.6,7.1-12.87,1.81.93,3.62,1.87,5.43,2.8-4.2,9.22-8.41,18.44-13.34,29.25,14.78,4.24,30.07,8.63,46,13.2.11-.42-.35,1.34-.24.93,12.14,3.17,24.29,6.34,36.44,9.52-.14.82-.27,1.64-.41,2.45-30.51-4.99-61.01-9.98-91.52-14.96-.41,1.75-.81,3.51-1.22,5.26,16.04,5.27,31.8,11.82,48.21,15.47,17.28,3.85,35.13,5.31,52.8,7.12,17.53,1.79,35.15,2.7,52.64,5.44h-82.72c-.04.55-.08,1.1-.12,1.65,20.2,7.46,40.4,14.92,60.59,22.38-.06.92-.13,1.84-.19,2.76h-69.13c16.57,17.85,37.47,12.81,56.66,13.96,19.72,1.19,39.64-.34,59.44-1.31,10.66-.53,21.25-2.39,31.87-3.65.17,1.2.34,2.4.52,3.6-15.4,2.49-30.8,4.97-46.2,7.46,31.09,1.11,61.14-2.07,87.39-20.93.59,1.15,1.18,2.3,1.78,3.45-6.81,4.23-13.15,9.76-20.53,12.46-24.8,9.07-50.38,14.55-77.08,13.76-5.18-.15-10.42,1.87-15.63,2.9-.11,1.8-.22,3.6-.33,5.39,8.36,2.76,16.72,5.52,25.08,8.28.03.54.06,1.08.09,1.62-24.86-1.7-49.72-3.55-74.59-4.95-4.59-.26-10.17-.04-13.76,2.31-10.82,7.09-14.4,5.86-16.98-6.95-51.72-7.64-103.2-15.25-156.8-23.17,3.66,1.08,5.37,1.58,5.85,1.72-9.28.7-19.77,1.5-30.26,2.3-.13.63-.26,1.26-.39,1.89,11.33,3.33,22.66,6.65,33.99,9.98-.14.68-.28,1.36-.43,2.03-4.84-.42-9.68-.84-14.52-1.25-.17.88-.34,1.76-.51,2.65,12.4,3.29,24.8,6.58,37.19,9.86-.21,1.28-.42,2.56-.63,3.84-8.49-.82-16.97-1.94-25.49-2.4-13.82-.75-27.77-.16-41.45-1.84-11.91-1.47-23.5-5.47-35.3-8.02-9.43-2.04-15.02,4.03-15.4,13.36-.24,5.92-3.08,16.12-6.16,16.68-7.58,1.38-17.42.52-23.66-3.55-7.95-5.18-13.25-14.42-20.13-22.41,2.2-1.47,4.16-2.78,6.25-4.17-.56-.47-.98-1.14-1.51-1.25-14.95-3-29.81-6.61-44.89-8.66-10.45-1.42-21.35.35-31.75-1.24-8.13-1.24-15.62-6.32-23.74-8.14-10.86-2.44-22.04-3.53-33.12-4.89-5.02-.62-10.15-.89-15.2-.62-10.49.57-17.55-2.37-15.97-13-42.37-3.47-83.73-6.85-125.38-10.26.24,1.5.17,2,.39,2.19.29.26.86.18,1.17.42.71.54,1.35,1.19,3.62,3.24h-32.28c.03.97.07,1.94.1,2.91h65.21c-35.06,6.33-70.46,12.71-105.86,19.1-.48-.98-.96-1.95-1.44-2.93,4.06-2.83,8.12-5.66,11.19-7.81-.71-1.88-1.92-4.24-2.48-6.74-1.02-4.54-1.66-9.17-2.46-13.76-3.38,1.39-6.73,2.86-10.15,4.16-9.22,3.48-18.47,6.89-29.35,10.94,8.07,4.15,14.31,7.36,20.99,10.78-12.22,11.26-28.39,14.05-49,6.32-13.77-5.17-25.01-5.11-39.05,1-22.6,9.84-44.43,20.31-63.84,35.54-2.15,1.69-4.2,3.5-8.6,7.19,16.66-3.85,30.11-7.08,43.61-10.04,12.94-2.84,25.85-6.26,38.97-7.63,4.41-.46,9.39,4.61,14.12,7.15-.89.97-1.79,1.93-2.68,2.9,3.62,3.4,7.24,6.8,12.81,12.03-4.35.33-8.71.71-13.07.96-5.77.33-11.66-.07-17.28,1-6.75,1.28-13.14,4.57-19.9,5.62-24.74,3.84-49.6,6.85-74.31,10.82-4.64.75-8.81,4.46-13.19,6.8l-1,.31c-3.56-1.77-7.03-4.86-10.68-5.08-15.14-.91-29.51-3.27-40.36-14.86-11.02,6.95-29.65,3.45-36.99-5.96-1.62-2.08-5.53-3.81-8.07-3.47-5.82.79-11.96,2-17.06,4.75-16.99,9.16-34.61,10.47-53.24,7.07-2.33-.43-5.52,3.82-9.08,6.47-5.61-9.72-19.51-10.03-22.9-2.71-6.99,15.1-19.72,8.79-29.4,12.73.14,1.11.28,2.21.43,3.32,15.59-2.72,31.18-5.43,48.68-8.48-1.83,3.55-2.22,5.36-2.91,5.49-16.82,3.03-33.59,6.99-50.56,8.4-12.01,1-24.41-2.91-36.46-2.09-15.05,1.02-29.84,5.34-44.89,6.98-34.57,3.79-69.22,6.81-103.83,10.19-2.34.23-4.64.84-9.51,1.75,5.53,3.41,8.76,5.4,14.9,9.18-12.83-1.2-23.04-8.2-31.95.96-4.58-4.76-9.16-9.52-15.9-16.52h-28.6c1.7,11.15,6.98,9.31,13.13,7.78,5.2-1.3,10.81-.9,18.67-1.4-3.56,5.09-5.77,8.27-7.23,10.36,1.3,3.81,3.72,9.15,3.14,9.5-7.57,4.56-15.57,8.4-23.46,12.43-.94-1.01-1.89-2.03-2.83-3.04.44,2.9.88,5.8,1.44,9.51-3.5,1.17-6.99,2.34-9.91,3.31-6.31-6.61-11.11-15.38-18.21-18.08-8.07-3.07-18.2-.71-27.73-.71,1.08,7.86,1.73,12.56,2.47,18.01,5.11.23,11.37.52,17.63.81.37.97.75,1.94,1.12,2.91-4.1,2.11-8.19,4.22-12.87,6.64,12.36,12.7,29.1-9.97,40.69,3.57,16.84-2.29,33.58-4.56,50.33-6.83.11-1.36.23-2.72.34-4.08,2.29,2.48,4.58,4.96,6.71,7.28,5.72-2.15.16-16.06-6.89-16.17-7.96-.12-15.96,2.21-24.89,3.62q3.54-12.95,34-8.81l-.24-.09Zm450.07-159.74c-4.23.38-8.51.5-12.69,1.21-3.12.53-6.14,2.75-9.15,2.65-28.69-.94-57.38-2.22-86.07-3.36-1.15-.05-2.32.34-3.92.6,1.64,1.87,3.11,3.54,7.21,8.2-9.11,0-15.05.23-20.95-.1-2.78-.16-5.51-1.39-8.26-2.14.47,2.84,1.18,5.66,1.31,8.52.06,1.42-.93,2.88-1.98,5.8,5.01-3.17,8.49-5.37,11.53-7.29,4.69,2.01,8.87,5.24,13.11,5.33,8.63.18,17.33-1.12,25.95-2.2,25.91-3.25,51.8-6.68,77.7-10.04,14.57,2.73,17.45,1.8,24.05-9.51-6.94.91-12.39,1.62-17.84,2.33ZM-128,833.18c4.97-9.4,16.96-17.77,5.08-31.82-1.24-1.46,2.22-6.89,3.5-10.48,2.85,2.1,6.04,3.89,8.4,6.45,1.06,1.15.47,3.83.45,3.47,5.33,1.35,8.91,2.26,11.49,2.92,2.06-6.23,4.1-12.41,6.14-18.58-2.73-5.4-5.73-11.35-8.73-17.29,1.14-1.2,2.28-2.4,3.42-3.59,8.05,3.77,16.11,7.54,24.61,11.52-.68-8.23-1.25-15.18-2.02-24.59-7.29-3.65-17.74-8.89-23.64-11.84-22.35,3.81-40.19,6.84-59.29,10.1,12.58,14.25,26.1-.57,40.54,4.52-11.92,4.04-21.29,7.22-32.63,11.06,1.2,11.42.48,23.17,4.03,33.45,4.17,12.06,12.06,22.83,18.65,34.72Zm2486.57-289.23c-3.09,9.05-6.74,19.72-11.3,33.02,6.49-1.18,10.68-2.75,14.73-2.45,4.32.31,8.62,2.16,12.65,3.96.49.22-.21,5.93-1.27,6.27-4.17,1.36-8.69,1.73-13.11,2.12-.98.09-2.04-1.36-3.14-1.96-8.7-4.74-29.45,4.76-32.43,14.91-.14.49.82,1.31-.14-.12h107.21c-9.21-14.11-20.78-27.15-26.62-42.38-4.06-10.57-9.97-12.45-18.17-13.19-8.89-.8-17.91-.18-28.4-.18Zm-1045.99-149.22c1.34.43,2.67.86,4.01,1.28,4.2-8.73,13.44-18.73,11.62-25.95-5.08-20.2-14.74-39.24-22.59-58.74-.8.28-1.61.55-2.41.83.22,3.51.44,7.01.66,10.48-13.36,1.32-16,7.95-10.17,19.82,5.51,11.21,13.6,22.96,1.42,35.3-18.01-6.11-5.31-26.62-17.07-35.42-1.28,2.7-2.54,5.37-4.87,10.3-1.57-5.67-2.44-8.82-3.31-11.98-1.14.24-2.27.48-3.41.71.89,4.91,1.26,13.88,2.76,14.08,12.84,1.66,6.56,13.25,10.74,19.63-8.04-5.24-16.08-10.48-24.12-15.72-.63.91-1.25,1.82-1.88,2.73,2.54,7.99,5.08,15.97,7.63,23.96,1.17-.25,2.34-.5,3.51-.75.67-3.24,1.35-6.48,2.1-10.07,9.93,6.48,11.83,10.54,8.9,17.66-5.19,12.56-2.66,19.49,10.82,27.43-.26-4.94-.49-9.22-.76-14.3,4.98.68,9.13,1.25,14.23,1.95-2.36-5.53-4.18-9.8-6-14.07l1.24-.48c3.18,3.86,6.36,7.73,9.54,11.59,1-.71,2.01-1.43,3.01-2.14-2.34-4.14-5.52-8.04-6.77-12.48-1.16-4.08-.25-8.75-.25-13.16,1.22.13,2.44.25,3.66.38,2.59,5.71,5.17,11.42,7.76,17.12Zm-365.02,1099.95c-17.96-2.96-32.75-5.4-47.42-7.82,1.69,17.49,15.93,8.09,25.39,9.29.05,1.24.1,2.48.16,3.72-11.09,2.13-22.17,4.25-34.15,6.55v15.44c9.48,1.57,18.09,3.12,26.73,4.4,5.27.78,10.61,1.15,15.91,1.71.02-1.18.04-2.35.06-3.53-2.14-1.56-4.27-3.12-7.16-5.23,6.59-1.58,11.87-2.85,15.36-3.69,3.14,7.19,5.92,13.55,9.02,20.66,7.16-4.3,12.03-7.22,16.9-10.15.02-1.48.03-2.95.05-4.43-5.05-.98-10.11-1.96-16.79-3.25,5.34-3.52,9.89-8.17,15.33-9.79,13.34-3.98,23.36-17.29,23.01-32.83-8.05-4.04-15.6-6.16-19.48,3.83,3.95,3.63,7.33,6.74,10.7,9.84-.82.87-1.64,1.74-2.46,2.6h-24.73c-6.46,14.87-14.86,20.69-24.21,17.72,5.04-4.27,10.49-8.88,17.76-15.04Zm170.53-144.35c-13.05.74-23.83,1.35-36.07,2.05,1.1,5.59,1.95,9.87,3.24,16.4,10.26-17.29,13.26-1.91,20.38,3.58v-12.11c1.54,0,2.43-.2,3.18.06.71.24,1.59.82,1.85,1.46,5.15,13.03,15.78,14.08,27.37,12.17,8.75-1.44,17.35-3.83,26.07-5.48,3.69-.7,8.14-2.01,11.2-.67,15.49,6.85,38.64,4.18,51.33-7.18-2.03-.31-3.54-.69-5.07-.76-17.65-.86-34.44-3.3-51.81-8.99-13.61-4.46-32.76-7.88-46.8,6.54-2.07,2.12-7.58.89-11.49,1.21-.1-.93-.21-1.86-.31-2.79,1.71-1.35,3.43-2.71,6.94-5.49Zm-65.19,46.36c-2.44,4.79-4.08,8.01-5.72,11.22,3.73.98,7.48,2.87,11.19,2.79,22.75-.5,45.5-1.55,68.25-2.2,9.94-.28,19.9-.05,30.52-.05-1.88-11.62-8.11-13.23-16.83-12.36-14.27,1.42-28.62,2.1-43.21,3.11-2.53-14.99-12.8-7.38-20.15-7.77-3.84-.2-9,2.48-11.39.79-10.45-7.4-18.88-.08-28.06,3.15,4.84.41,9.68.82,15.39,1.31ZM-211.35,786.55c-8.31,8.16-.42,15.3,2.05,22.3,1.4,3.97,6.9,10.01,9.1,9.45,4.35-1.11,7.8-6.06,11.43-9.62,2.94-2.89,5.61-6.06,10.3-11.19-4.45-1.72-10.27-3.97-16.68-6.44v-12.57c9.83,2.62,18.53,4.93,27.96,7.44.47-5.84.9-11.17,1.42-17.66-13.54-.74-26.3-1.44-39.06-2.14-.04,1.51-.07,3.03-.11,4.54,7.12-.45,14.24-.89,21.36-1.34,0,.9,0,1.79,0,2.69-11.62,2.37-23.23,4.75-37.16,7.59,4.5,3.34,6.97,5.17,9.39,6.96Zm1203.83,786.47c-1.73,4.78-2.18,11.77-5.57,13.77-3.5,2.07-9.87-.73-14.98-1.39.07-1.21.13-2.43.2-3.64,2.92-2.08,5.84-4.15,8.77-6.23-.67-1.12-1.33-2.24-2-3.35-12.39,6.06-24.78,12.13-37.17,18.19-.52-1.25-1.04-2.51-1.56-3.76,4.02-2.65,8.04-5.29,13.4-8.82-18.35,2.52-23.56,7.19-23.17,18.65,33.23-3.24,66.48-6.48,99.72-9.73-.26-1.74-.53-3.48-.79-5.22-7.38,1.51-15.22,5.24-22.01,3.86-5.72-1.16-10.24-8.26-14.83-12.32ZM1603.57,493.98c-1.59-6.43-2.91-11.81-4.24-17.2-.94.18-1.87.37-2.81.55-1.13,8.79-2.26,17.58-3.48,27.16,5.05-.6,8.18-.97,11.3-1.34.8,5.57,1.5,10.45,2.32,16.13,7.3-1.3,13.65-2.43,20.43-3.63-2,13.06-.82,14.02,10.65,10.25-9.67-27.11-19.61-36.58-34.17-31.91Zm-286.22-58.57c4.17,28.09,11.17,33.14,40.18,28.21-2.33-4.15-4.6-10.72-6.14-10.56-11.04,1.2-11.85-7.87-15.77-13.97-4.32-6.75-8.57-13.6-13.64-19.75-1.08-1.31-5.56.17-8.48.37.32,1.03.65,2.06.97,3.08,4.57,3,9.13,6,16.65,10.94-6.97.85-9.94,1.22-13.77,1.68Zm-457.75,1169.2c-5.13-6.92-8.6-11.6-12.17-16.42,7.94-6.04,16.27-12.39,24.61-18.73-.07-.76-.15-1.53-.22-2.29-9.39,1.07-18.78,2.13-28.16,3.2-.02.92-.05,1.84-.07,2.76,3.62.79,7.23,1.57,11.03,2.4-13.8,15.36-32.94,5.22-49.09,11.45,5.94,3.51,11.98,4.78,18.04,5.99,6.44,1.29,18.2,1.84,18.46,3.88,1.5,11.77,8.81,7.36,17.59,7.75ZM1736.98,293.96c-1.13-5.58-2.14-10.54-3.51-17.3,3.5,3.21,5.43,4.98,8.12,7.44-.35-7.24-.37-13.18-.99-19.05-.57-5.4-1.78-10.73-3.24-19.11-4.53,11.73-7.79,20.17-11.48,29.75-5.2-6.64-9.15-11.69-13.11-16.75-.95.59-1.9,1.18-2.85,1.77,1.93,5.17,3.85,10.35,6.53,17.55-5.55-3.72-8.71-5.84-11.88-7.96-.88.95-1.75,1.89-2.63,2.84,3.94,4.52,7.88,9.05,10.76,12.36,13.15-7.9,14.97,8.05,24.26,8.47Zm-54.81,150.12c-.05-11.76,14.09-20.26,7.48-32.04-5.6-9.98-13.25-18.8-19.59-27.59-8.83,23.42,9.92,39.14,12.11,59.63Zm-818.42,1052.73c-2.36.91-6.84,2.63-11.72,4.5,10.61,15.84,21.22.18,31.12,3.91v-7.41c5.64.85,10.46,1.57,15.28,2.29.47-1.25.94-2.49,1.4-3.74-12.87-5.86-25.73-11.73-38.6-17.59-1.18,1-2.35,1.99-3.53,2.99,2.09,5.21,4.19,10.41,6.05,15.06Zm-309.88-57.79c-11.1,5.93-20.59.62-30.98-1.3-10.85-2.01-22.83,2.12-37.47,3.96,19.14,14.85,47.52,13.08,68.45-2.66Zm-150.97-6.97c-10.99-11.19-20.21-11.24-33.85-.6,14.14,2.68,27.34,5.17,36.13,6.84,7.63-3.55,11.83-6.46,16.43-7.42,7.15-1.49,14.58-1.64,21.89-2.36-.25-1.68-.5-3.35-.75-5.03-13.07,4.11-28.44-7.81-39.85,8.58Zm-534.09-364.05c9.45-3.84,17.77-6.58,25.29-10.77,1.77-.98,2.21-9.36.92-10.06-12.95-7.09-26.94,2.54-26.21,20.83ZM1236.63,430.99c1.12.49,2.24.98,3.36,1.48,10.16-10.61,18.38,3.32,29.79,2.25-.54-6.31-1.06-12.39-1.58-18.48-1.12-.14-2.23-.27-3.35-.41-1.95,4.48-3.9,8.96-6.71,15.43-4.15-8.49-7.35-15.03-9.68-19.82-3.01,3.04-6.3,5.37-8.19,8.55-1.93,3.24-2.48,7.31-3.63,11.01Zm-68.79,958.85c-6,10.93,2.18,13.28,7.89,13.29,10.06,0,20.17-2.11,30.16-3.89,2.48-.44,4.57-3,6.85-4.59-.46-.98-.93-1.96-1.39-2.94-10.37,1.41-20.73,2.81-32.49,4.4-2.34-1.33-6.28-3.58-11.02-6.28Zm547.34-997.66c8.39,2.98,13.22,4.7,19.2,6.82,0-3.14.3-5.14-.05-7.02-1.33-7,7.13-17.39-4.03-19.93-3.07-.7-9.18,11.93-15.12,20.14Zm-503.43,31.12c-1.55-.3-3.09-.61-4.64-.91-2.41,5.39-4.83,10.79-8.11,18.13-1.24-5.1-1.9-7.84-2.71-11.14-6.78,14.91-5.22,19.28,9.78,25.11,1.93-10.62,3.8-20.9,5.67-31.18ZM-473.37,1055.6c-6.07,7.75-7.16,12.87-2.79,22.16,1.34,2.86,6.22,4.05,9.47,6.01,1.04-3.81,3.76-8.15,2.75-11.3-1.83-5.74-5.87-10.78-9.44-16.88ZM1800.54,538.1c-3.92-5.53-6.78-11.26-11.22-15.24-2.83-2.53-7.96-2.78-12.15-3.25-.73-.08-3.12,4.16-2.68,5.87,3.16,12.2,11.86,16.25,26.05,12.62Zm524.3,772c.27-1.63.53-3.26.8-4.88-21.94-3.43-43.88-6.87-65.82-10.3-.13.87-.27,1.75-.4,2.62,21.81,4.19,43.61,8.38,65.42,12.57Zm-1403.28,229.6l-1.3-3.33c-11.43,5.42-22.86,10.84-34.63,16.42,11.16,5.33,24.31.42,35.93-13.09Zm1564.84-834.41c7.9,13.44,31.32,15.98,56.45,6.03-7.13-.93-13.34-3.8-16.65-1.82-14.65,8.78-27.13,4.83-39.81-4.21Zm-203.24-108.45c-9.93,2.93-20.89,1.98-18.6,17.41,6.31-.69,12.38-1.36,18.6-2.04v-15.38ZM-15.55,1387.13c20.51,10.41,28.73,9.76,35.44-2.38-12.59.85-24.02,1.62-35.44,2.38Zm600.79,74.3c.14,1.81.28,3.62.42,5.43,13.63-.97,27.25-1.93,40.88-2.9-.16-2.06-.32-4.11-.48-6.17-13.61,1.21-27.21,2.42-40.82,3.63ZM1732.14,320.1c1.16-.51,2.32-1.01,3.48-1.52-1.18-6.53-2.36-13.06-3.53-19.59-1.2-.33-2.4-.65-3.59-.98-4.66,6.71-9.32,13.42-13.98,20.13.89.81,1.79,1.62,2.68,2.42,3.45-2.26,6.9-4.53,10.3-6.76,1.83,2.47,3.24,4.38,4.65,6.29Zm-868.09,1272.21c-.29.67-.59,1.34-.88,2.01,4.1,3.37,7.85,8.9,12.38,9.64,9.26,1.52,18.94.45,28.45.45.25-1.36.5-2.72.75-4.07-13.57-2.68-27.14-5.35-40.7-8.03Zm40.24-115.35c4.07,11.01,11.17.89,16.38,2.35,6.11,1.72,12.23,3.44,18.34,5.16-10.96-14.57-18.64-16.31-34.72-7.51Zm228.54-1122.96c7.11,3.48,12.15,5.95,17.2,8.43,1.36-4.07,5.07-9.47,3.66-11.98-4.76-8.46-11.05-4.58-20.86,3.55Zm697.5,104.88c-5.75-9.98-9.36-16.26-13.83-24.03-2.88,7.25-5.02,12.63-7.73,19.42,6.75,1.44,13.01,2.78,21.56,4.6Zm-1285.96,997.3c.11,1.43.22,2.86.33,4.28,12.28.48,25.04,5.99,37.23-6.19-13.25.67-25.4,1.29-37.55,1.9Zm-1019.31-460.95c-7.52,15.24-9.99,26.3,5.53,35.89-1.83-11.84-3.43-22.23-5.53-35.89Zm288.73-153.92c1.45-.58,2.9-1.17,4.35-1.75-1.12-5.98-1.72-12.17-3.91-17.73-.33-.85-8.04,1.21-15.52,2.45,6.71,7.58,10.9,12.3,15.08,17.03Zm1404.08,690.94h40c-12.7-8.76-32.6-8.58-40,0Zm432.48-1040.29c4.56-6.5,8.47-12.05,12.03-17.13-7.85-2.39-14.36-4.37-21.9-6.67,3.35,8.08,6.32,15.27,9.86,23.8Zm-93.46,930.93c7.96-4.81,14.75-8.92,22.93-13.87h-31.75c3.27,5.14,5.88,9.25,8.82,13.87Zm-384-955c1.08-.5,2.16-1.01,3.24-1.51-3.45-8.88-6.9-17.75-10.34-26.63-1.52-.14-3.03-.29-4.55-.43-1.37,5.62-2.74,11.24-4.11,16.86,1.07.32,2.13.63,3.2.95,1.27-1.72,2.54-3.45,4.29-5.81,3.01,6.04,5.64,11.3,8.27,16.57Zm813.96-122.97c.43-.34.85-.68,1.28-1.01-4.48-9.59-8.96-19.18-13.43-28.77-.72.29-1.45.57-2.17.86-.71,7.43-1.41,14.86-2.12,22.29.99.25,1.98.51,2.98.76,1.27-1.53,2.54-3.05,3.93-4.72,3.21,3.57,6.38,7.08,9.54,10.59ZM-263.81,1039.55c-4.89-9.01-8.43-15.53-13.52-24.88-2.11,9.89-3.36,15.75-4.67,21.89,6.03.99,10.45,1.72,18.18,2.99Zm1025.79,507.04c-5.85,1.94-11.48,3.81-17.1,5.68.15,1.09.31,2.18.46,3.27,8.47,1.41,16.94,2.82,27.37,4.56-4.28-5.38-7.06-8.88-10.74-13.51Zm-865.74-253.9c-.03,1.43-.06,2.86-.09,4.29h30.35c-11.15-14.92-20.87-5.9-30.26-4.29ZM1518.07,312.93c1.24-.45,2.47-.9,3.71-1.34-3.76-9.01-7.52-18.02-11.46-27.47-10.23,14.19,2.7,20.2,7.76,28.82ZM34.99,1316.93c-9.82-18.49-14.4-21.45-25.45-18.87,8.91,6.6,17.18,12.74,25.45,18.87ZM2005.66,209.05c4.45,13.49,11.46,10.7,17.51,8.12,1.5-.64,1.27-5.3,1.84-8.12h-19.35ZM-148.33,816.88c-1.11.31-2.23.63-3.34.94,2.54,8.83,5.09,17.66,8.12,28.18,12.35-14.8-.21-20.86-4.79-29.12Zm-346.9,247.72c-1.96,1.55-3.92,3.11-5.88,4.66,1.9,4.85,3.2,10.09,5.97,14.37,1.21,1.87,5.43,1.79,8.29,2.59.07-2.78,1.09-6,.03-8.24-2.23-4.73-5.54-8.95-8.41-13.38ZM1567.73,455.99c1.44-1,2.87-2.01,4.31-3.01-5.51-6.54-11.02-13.08-16.36-19.42-13.27,17.27,8.06,14.78,12.05,22.43ZM-428.93,1043.74c-1.71,0-3.41-.02-5.12-.03-5.33,8.53.09,16.55,5.12,24.68v-24.65ZM1526.13,450.71c-11.79,22.08,13.29,14.08,14.15,24.56,1-.77,2-1.54,3-2.31-5.28-6.86-10.57-13.71-17.15-22.26Zm-664.54,1079.91q37.05,9.29,42.26,2.81c-13.51-.9-27.89-1.86-42.26-2.81Zm-569.34-121.45c-.32-1.88-.63-3.75-.95-5.63-8.1,1.34-16.2,2.67-24.3,4.01.32,1.92.65,3.85.97,5.77,8.09-1.38,16.18-2.77,24.27-4.15Zm695.86,130.87c7.83,14.24,13.29,14.47,21.56,1.38-7.28-.47-13.95-.9-21.56-1.38Zm-155.9,20.76c.59,1.88,1.18,3.77,1.76,5.65,8.7-2.81,17.4-5.62,26.1-8.43-.54-1.69-1.07-3.38-1.61-5.07-8.75,2.62-17.5,5.23-26.25,7.85Zm45.27,26.98c5.56-2.87,11.27-5.82,16.99-8.77-.49-1.13-.98-2.26-1.47-3.39-5.28-.53-10.56-1.05-15.95-1.59-.8,3.5-1.6,6.59-2.14,9.74-.1.6.84,1.39,2.57,4.01ZM1952.23,391.09c3.71-18.83-.16-28.02-9.57-26.42,2.85,7.87,5.66,15.63,9.57,26.42ZM-338.96,1149.08c1.86-.55,3.72-1.1,5.59-1.65-3.05-9.24-6.11-18.48-9.16-27.72-1.13.39-2.27.78-3.4,1.16,2.33,9.4,4.65,18.8,6.98,28.2ZM1254.3,316.57q-4.91,18.97,5.91,22.64c-2.2-8.43-4.06-15.53-5.91-22.64ZM-239.48,808.38c-4.73-7.08-8.24-12.31-11.74-17.55-.66.11-1.31.23-1.97.34.66,6.76,1.32,13.53,2.14,21.93,5.47-2.23,9.09-3.71,11.57-4.72Zm86.91,239.17c-3.44,26.56-3.05,27.31,15.44,26.55-17.18-2.7-15.1-15.09-15.44-26.55Zm-218.67-176.23c1.41-1.67,2.82-3.34,4.23-5.01-4.48-3.83-8.96-7.66-13.44-11.49-.91,2.11-3.16,5.45-2.52,6.13,3.53,3.81,7.75,6.97,11.74,10.36Zm1563.64-457.12c-2.82-8.48-5.65-16.97-8.75-26.29-8.51,12.34-.86,19.61,8.75,26.29Z"/>
  <path class="cls-1" d="m99.58,285.43c-2.98-10.85-5.9-17.92-6.71-25.22-1.28-11.59-4.74-24.76-.81-34.71,6.36-16.1,16.53-31.32,27.77-44.67,9.93-11.8,24.78-9.39,37.91-3.81,12.98,5.51,21.69,15.55,21.82,29.96.12,13.89-1.83,27.82-3.42,41.67-.36,3.1-2.59,6.27-4.65,8.85-19.46,24.39-49.66,18.25-71.92,27.92Z"/>
  <path class="cls-1" d="m874.39,298.84c-3.79,1.4-7.89,2.91-12.68,4.67,1.39,3.02,3.64,7.91,7.28,15.84-7.34-2.77-11.36-4.28-15.87-5.99-10.6,13.35,12.5,18.33,5.6,32.38-21.13-33.71-18.04-72.88-33.22-106.36,1.37-1.23,2.74-2.47,4.11-3.7,5.2,3.85,12.95,6.7,14.97,11.81,2.61,6.6.64,15.01.64,25.15,15.88-8.9,12.24-22.67,15.34-34.32h10.59c.51,1.74,1.49,3.19,1.12,4.07-6.29,14.77,3.78,21.05,13.77,27.88,2.75,1.88,4.63,5.7,5.87,9.02,8.39,22.43,16.5,44.96,24.2,66.08-10.06,5.61-18.87,10.53-27.69,15.44-1.15-1.17-2.3-2.33-3.46-3.5,2.45-3.29,5.35-6.34,7.22-9.93,2.15-4.14,6.03-10.17,4.56-12.93-6.68-12.52-14.98-24.19-22.35-35.62Z"/>
  <path class="cls-1" d="m649.35,296.33c2.92,3.87,6.7,7.32,8.52,11.61,4.77,11.24,9.62,22.57,3.39,35.2-6.02,12.21-16.77,18.52-29.77,16.43-13.77-2.21-24.34-12.91-25.69-26-1.46-14.09,5.09-24.29,18.95-29.18,7.04-2.48,14.19-4.66,24.59-8.06Z"/>
  <path class="cls-1" d="m80.26,359.96c-20.95,0-30.18-14.25-23.61-31.24,2-5.19.55-11.62,1.35-17.39.64-4.62,1.18-12.09,3.72-13.03,5.22-1.93,12.31-1.74,17.49.38,2.67,1.09,5.16,9.18,3.75,12.34-3.11,6.98-.28,10.68,3.63,15.56,7.31,9.11,9.53,19.11.96,28.79-2.28,2.57-6.04,3.84-7.29,4.6Z"/>
  <path class="cls-1" d="m1834.67,134.48c-3.78,8.76-5.79,15.15-9.15,20.73-3.34,5.55-7.59,14.08-12.22,14.61-9.62,1.11-12.7-8.26-13.72-16.5-.77-6.22-1.26-13.01.48-18.84,1.46-4.9.2-17.59,12.83-9.02,1.33.9,5.92-3.02,9.02-4.72-1.97-6.4-3.64-11.81-5.31-17.21,1.11-.72,2.22-1.43,3.33-2.15,6.3,7.44,14.07,14.11,18.47,22.55,4.38,8.4,5.38,18.56,7.85,27.95-1.06.57-2.12,1.14-3.19,1.71-2.14-4.85-4.27-9.7-8.41-19.11Z"/>
  <path class="cls-1" d="m1082.16,461.74c-4.99-9.68-7.1-17.79,2.65-27.59,4.84-4.86,4.98-16.37,4.03-24.49-1.05-8.92-5.14-16.85,9.01-17.35,2.12-.08,4.11-3.61,9.45-8.64,1.32,16.43,2.38,29.5,3.49,43.32-8.85,6.92-9.69,9.72-8.37,29.53-6.43,1.66-12.78,3.3-20.25,5.22Z"/>
  <path class="cls-1" d="m982.45,319.82c-12.42-.45-18.51-6.94-18.29-19.49.22-12.91,8.57-22.13,19.77-21.87,12.25.29,21.67,10.26,21.01,22.25-.65,11.85-9.74,19.57-22.49,19.11Z"/>
  <path class="cls-1" d="m1100.83,340.55c-10.77,13.66,10.56,27.55-2.84,41.19-1.61.13-3.21.26-4.82.39-.19-4.44-.33-8.89-.59-13.33-.19-3.24-.54-6.46-.82-9.7-1.54.05-3.07.09-4.61.14-2.1,7.74-4.19,15.48-6.29,23.22-1.64,0-3.29,0-4.93-.01-1.37-11.29-2.74-22.59-4.44-36.5,7.47-2.02,16.03-4.33,24.59-6.64,1.58.42,3.16.83,4.74,1.25Z"/>
  <path class="cls-1" d="m1709.68,130.06c18.17-4.49,37.56,23.79,34.53,49.82-20.71-11.21-23.54-32.96-34.53-49.82Z"/>
  <path class="cls-1" d="m1409.94,296.68c-5.31-10.07-10.4-20.27-16.02-30.16-2.1-3.7-5.16-6.99-8.28-9.94-3.94-3.73-13.33-5.97-1.46-12.06,1.76-.9.76-7.18,1.04-10.89,10.68,2.62,24.01,20,19.64,29.72-3.16,7.03.33,9.72,2.39,14.25,2.52,5.56,4.74,11.27,7.08,16.91-1.46.72-2.92,1.45-4.39,2.17Z"/>
  <path class="cls-1" d="m1875.49,359.76c-7.19,4.95-10.77,9.28-14.83,9.79-7.17.9-14.76-1.93-12.53-11.04,1.22-4.98,7-8.83,10.73-13.2,4.54,3.94,9.07,7.88,16.63,14.44Z"/>
  <path class="cls-1" d="m1867.79,201.61c14.45-4,19.71,7.64,20.28,40.97-7.15-14.44-13.44-27.14-20.28-40.97Z"/>
  <path class="cls-1" d="m1533.96,195.48c.17-1.39.47-3.85.76-6.31.56-.14,1.12-.28,1.68-.42,1.43,5.61,2.87,11.21,5.16,20.17-7.17-4.14-11.82-6.82-17.98-10.37,1.21,5.08,2.04,8.53,2.87,11.98-.97.83-1.95,1.66-2.92,2.49-4.52-4.42-9.03-8.84-13.55-13.26.59-1.43,1.18-2.85,1.77-4.28h22.2Z"/>
  <path class="cls-1" d="m1903.07,236.33c3.04,14.85,5.55,27.12,8.22,40.17-2.34,1.23-7.2,3.79-12.19,6.42.16.43-.58-.53-.35-1.11,5.16-13.42,5.66-26.71-.17-40.17-.43-1,3.06-3.69,4.48-5.31Z"/>
  <path class="cls-1" d="m911.26,227.54c12.88,5.87,16.38,15.55,17.52,27.54-11.29-2.91-19.16-14.79-17.52-27.54Z"/>
  <path class="cls-1" d="m229.26,193.04c3.39,4.57,6.92,7.51,6.38,8.97-1.37,3.77-4.53,6.89-6.98,10.27-2.56-2.19-7.52-4.85-7.21-6.48.74-3.75,4.03-7,7.8-12.75Z"/>
  <path class="cls-1" d="m485.86,178.35c2.63,5.2,5.52,8.3,4.9,10.3-.88,2.84-4.35,4.87-6.72,7.24-1.85-2.42-5.3-4.94-5.14-7.22.19-2.78,3.4-5.36,6.96-10.32Z"/>
</svg>