<?xml version="1.0" encoding="UTF-8"?>
<svg id="Layer_2" data-name="Layer 2" xmlns="http://www.w3.org/2000/svg" viewBox="0 0 127.14 96.36">
  <defs>
    <style>
      .cls-1 {
        fill: #fff;
        stroke-width: 0px;
      }
    </style>
  </defs>
  <g id="Layer_1-2" data-name="Layer 1">
    <g id="_图层_2" data-name="图层 2">
      <g id="Discord_Logos" data-name="Discord Logos">
        <g id="Discord_Logo_-_Large_-_White" data-name="Discord Logo - Large - White">
          <path class="cls-1" d="m107.7,8.07c-8.35-3.82-17.17-6.54-26.23-8.07-1.24,2.22-2.36,4.5-3.36,6.83-9.65-1.45-19.46-1.45-29.11,0-1-2.33-2.12-4.61-3.36-6.83-9.06,1.55-17.89,4.27-26.25,8.09C2.79,32.65-1.71,56.6.54,80.21h0c9.72,7.18,20.6,12.65,32.17,16.15,2.6-3.5,4.91-7.22,6.89-11.11-3.76-1.4-7.39-3.14-10.85-5.18.91-.66,1.8-1.34,2.66-2,20.37,9.58,43.95,9.58,64.32,0,.87.71,1.76,1.39,2.66,2-3.46,2.05-7.1,3.78-10.87,5.19,1.98,3.89,4.28,7.6,6.89,11.1,11.58-3.49,22.47-8.95,32.19-16.14h0c2.64-27.38-4.51-51.11-18.9-72.15Zm-65.25,57.62c-6.27,0-11.45-5.69-11.45-12.69s5-12.74,11.43-12.74,11.57,5.74,11.46,12.74-5.05,12.69-11.44,12.69Zm42.24,0c-6.28,0-11.44-5.69-11.44-12.69s5-12.74,11.44-12.74,11.54,5.74,11.43,12.74-5.04,12.69-11.43,12.69Z"/>
        </g>
      </g>
    </g>
  </g>
</svg>