<?xml version="1.0" encoding="UTF-8"?>
<svg id="Layer_1" data-name="Layer 1" xmlns="http://www.w3.org/2000/svg" viewBox="0 0 24 24">
  <defs>
    <style>
      .cls-1 {
        fill: #fff;
        stroke-width: 0px;
      }
    </style>
  </defs>
  <path class="cls-1" d="m12,2.16c3.2,0,3.58.01,4.85.07,3.25.15,4.77,1.69,4.92,4.92.06,1.27.07,1.65.07,4.85s-.01,3.58-.07,4.85c-.15,3.23-1.66,4.77-4.92,4.92-1.27.06-1.64.07-4.85.07s-3.58-.01-4.85-.07c-3.26-.15-4.77-1.7-4.92-4.92-.06-1.27-.07-1.64-.07-4.85s.01-3.58.07-4.85c.15-3.23,1.66-4.77,4.92-4.92,1.27-.06,1.64-.07,4.85-.07Zm0-2.16c-3.26,0-3.67.01-4.95.07C2.7.27.27,2.69.07,7.05c-.06,1.28-.07,1.69-.07,4.95s.01,3.67.07,4.95c.2,4.36,2.62,6.78,6.98,6.98,1.28.06,1.69.07,4.95.07s3.67-.01,4.95-.07c4.35-.2,6.78-2.62,6.98-6.98.06-1.28.07-1.69.07-4.95s-.01-3.67-.07-4.95c-.2-4.35-2.62-6.78-6.98-6.98C15.67.01,15.26,0,12,0Zm0,5.84c-3.4,0-6.16,2.76-6.16,6.16s2.76,6.16,6.16,6.16,6.16-2.76,6.16-6.16-2.76-6.16-6.16-6.16Zm0,10.16c-2.21,0-4-1.79-4-4s1.79-4,4-4,4,1.79,4,4-1.79,4-4,4Zm6.41-11.85c-.8,0-1.44.64-1.44,1.44s.65,1.44,1.44,1.44,1.44-.64,1.44-1.44-.64-1.44-1.44-1.44Z"/>
</svg>