<?xml version="1.0" encoding="utf-8"?>
<!-- Generator: Adobe Illustrator 28.0.0, SVG Export Plug-In . SVG Version: 6.00 Build 0)  -->
<svg version="1.1" id="Layer_1" xmlns="http://www.w3.org/2000/svg" xmlns:xlink="http://www.w3.org/1999/xlink" x="0px" y="0px"
	 viewBox="0 0 72 72" style="enable-background:new 0 0 72 72;" xml:space="preserve">
<style type="text/css">
	.st0{fill-rule:evenodd;clip-rule:evenodd;fill:#FFFFFF;}
</style>
<path class="st0" d="M8,72h56c4.4,0,8-3.6,8-8V8c0-4.4-3.6-8-8-8H8C3.6,0,0,3.6,0,8v56C0,68.4,3.6,72,8,72z M62,62H51.3V43.8
	c0-5-1.9-7.8-5.8-7.8c-4.3,0-6.5,2.9-6.5,7.8V62H28.6V27.3h10.3V32c0,0,3.1-5.7,10.5-5.7S62,30.8,62,40L62,62L62,62z M16.4,22.8
	c-3.5,0-6.4-2.9-6.4-6.4s2.8-6.4,6.4-6.4s6.4,2.9,6.4,6.4S19.9,22.8,16.4,22.8z M11,62h10.7V27.3H11V62z"/>
</svg>
