<?xml version="1.0" encoding="UTF-8"?>
<svg id="Layer_1" data-name="Layer 1" xmlns="http://www.w3.org/2000/svg" viewBox="0 0 72 72">
  <defs>
    <style>
      .cls-1, .cls-2 {
        fill-rule: evenodd;
        stroke-width: 0px;
      }

      .cls-2 {
        fill: #fff;
      }
    </style>
  </defs>
  <path class="cls-2" d="m8,72h56c4.42,0,8-3.58,8-8V8c0-4.42-3.58-8-8-8H8C3.58,0,0,3.58,0,8v56c0,4.42,3.58,8,8,8Z"/>
  <path class="cls-1" d="m62,62h-10.68v-18.2c0-4.99-1.9-7.78-5.84-7.78-4.3,0-6.54,2.9-6.54,7.78v18.2h-10.3V27.33h10.3v4.67s3.1-5.73,10.45-5.73,12.62,4.49,12.62,13.78v21.95ZM16.35,22.79c-3.51,0-6.35-2.86-6.35-6.4s2.84-6.4,6.35-6.4,6.35,2.86,6.35,6.4-2.84,6.4-6.35,6.4Zm-5.32,39.21h10.74V27.33h-10.74v34.67Z"/>
</svg>