<svg xmlns="http://www.w3.org/2000/svg" xmlns:xlink="http://www.w3.org/1999/xlink" viewBox="0,0,256,256" width="64px" height="64px"><g fill="#ff822e" fill-rule="nonzero" stroke="none" stroke-width="1" stroke-linecap="butt" stroke-linejoin="miter" stroke-miterlimit="10" stroke-dasharray="" stroke-dashoffset="0" font-family="none" font-weight="none" font-size="none" text-anchor="none" style="mix-blend-mode: normal"><g transform="scale(3.55556,3.55556)"><path d="M36,23c7.18,0 13,5.82 13,13c0,7.18 -5.82,13 -13,13c-7.18,0 -13,-5.82 -13,-13c0,-7.18 5.82,-13 13,-13zM36,41c2.761,0 5,-2.239 5,-5c0,-2.761 -2.239,-5 -5,-5c-2.761,0 -5,2.239 -5,5c0,2.761 2.239,5 5,5zM40,11c0,0.732 0,3.268 0,4c0,2.209 -1.791,4 -4,4c-2.209,0 -4,-1.791 -4,-4c0,-0.732 0,-3.268 0,-4c0,-2.209 1.791,-4 4,-4c2.209,0 4,1.791 4,4zM56.506,21.151c-0.518,0.518 -2.311,2.311 -2.828,2.828c-1.562,1.562 -4.095,1.562 -5.657,0c-1.562,-1.562 -1.562,-4.095 0,-5.657c0.518,-0.518 2.311,-2.311 2.828,-2.828c1.562,-1.562 4.095,-1.562 5.657,0c1.562,1.562 1.562,4.095 0,5.657zM61,40c-0.732,0 -3.268,0 -4,0c-2.209,0 -4,-1.791 -4,-4c0,-2.209 1.791,-4 4,-4c0.732,0 3.268,0 4,0c2.209,0 4,1.791 4,4c0,2.209 -1.791,4 -4,4zM50.849,56.506c-0.518,-0.518 -2.311,-2.311 -2.828,-2.828c-1.562,-1.562 -1.562,-4.095 0,-5.657c1.562,-1.562 4.095,-1.562 5.657,0c0.518,0.518 2.311,2.311 2.828,2.828c1.562,1.562 1.562,4.095 0,5.657c-1.562,1.562 -4.095,1.562 -5.657,0zM32,61c0,-0.732 0,-3.268 0,-4c0,-2.209 1.791,-4 4,-4c2.209,0 4,1.791 4,4c0,0.732 0,3.268 0,4c0,2.209 -1.791,4 -4,4c-2.209,0 -4,-1.791 -4,-4zM15.494,50.849c0.518,-0.518 2.311,-2.311 2.828,-2.828c1.562,-1.562 4.095,-1.562 5.657,0c1.562,1.562 1.562,4.095 0,5.657c-0.518,0.518 -2.311,2.311 -2.828,2.828c-1.562,1.562 -4.095,1.562 -5.657,0c-1.562,-1.562 -1.562,-4.095 0,-5.657zM11,32c0.732,0 3.268,0 4,0c2.209,0 4,1.791 4,4c0,2.209 -1.791,4 -4,4c-0.732,0 -3.268,0 -4,0c-2.209,0 -4,-1.791 -4,-4c0,-2.209 1.791,-4 4,-4zM21.151,15.494c0.518,0.518 2.311,2.311 2.828,2.828c1.562,1.562 1.562,4.095 0,5.657c-1.562,1.562 -4.095,1.562 -5.657,0c-0.518,-0.518 -2.311,-2.311 -2.828,-2.828c-1.562,-1.562 -1.562,-4.095 0,-5.657c1.562,-1.562 4.095,-1.562 5.657,0z"></path></g></g></svg>